<svg width="1245" height="100" viewBox="0 0 1245 100" fill="none" xmlns="http://www.w3.org/2000/svg">
<rect width="1245" height="100" rx="25" fill="#1A1A1A"/>
<path d="M220.831 41.5455V43.3864C220.831 43.9091 220.729 44.4432 220.524 44.9886C220.325 45.5284 220.058 46.0398 219.723 46.5227C219.388 47 219.021 47.4062 218.624 47.7415L217.021 46.7955C217.305 46.3466 217.555 45.8494 217.771 45.304C217.993 44.7585 218.104 44.125 218.104 43.4034V41.5455H220.831ZM225.118 41.5455V43.3864C225.118 43.9091 225.016 44.4432 224.811 44.9886C224.612 45.5284 224.345 46.0398 224.01 46.5227C223.675 47 223.305 47.4062 222.902 47.7415L221.3 46.7955C221.59 46.3466 221.842 45.8494 222.058 45.304C222.28 44.7585 222.391 44.125 222.391 43.4034V41.5455H225.118ZM231.649 41.5455V59H227.958V41.5455H231.649ZM237.659 41.5455V43.3864C237.659 43.9091 237.557 44.4432 237.352 44.9886C237.153 45.5284 236.886 46.0398 236.551 46.5227C236.216 47 235.85 47.4062 235.452 47.7415L233.85 46.7955C234.134 46.3466 234.384 45.8494 234.6 45.304C234.821 44.7585 234.932 44.125 234.932 43.4034V41.5455H237.659ZM252.845 45.9091L248.268 59H244.177L239.6 45.9091H243.435L246.154 55.2756H246.291L249.001 45.9091H252.845ZM260.247 59.2557C258.9 59.2557 257.741 58.983 256.769 58.4375C255.803 57.8864 255.059 57.108 254.536 56.1023C254.014 55.0909 253.752 53.8949 253.752 52.5142C253.752 51.1676 254.014 49.9858 254.536 48.9688C255.059 47.9517 255.795 47.1591 256.744 46.5909C257.698 46.0227 258.818 45.7386 260.102 45.7386C260.965 45.7386 261.769 45.8778 262.514 46.1562C263.264 46.429 263.917 46.8409 264.474 47.392C265.036 47.9432 265.474 48.6364 265.786 49.4716C266.099 50.3011 266.255 51.2727 266.255 52.3864V53.3835H255.201V51.1335H262.837C262.837 50.6108 262.724 50.1477 262.497 49.7443C262.269 49.3409 261.954 49.0256 261.551 48.7983C261.153 48.5653 260.69 48.4489 260.161 48.4489C259.61 48.4489 259.122 48.5767 258.695 48.8324C258.275 49.0824 257.945 49.4205 257.707 49.8466C257.468 50.267 257.346 50.7358 257.34 51.2528V53.392C257.34 54.0398 257.46 54.5994 257.698 55.071C257.943 55.5426 258.286 55.9062 258.729 56.1619C259.173 56.4176 259.698 56.5455 260.306 56.5455C260.71 56.5455 261.079 56.4886 261.414 56.375C261.749 56.2614 262.036 56.0909 262.275 55.8636C262.514 55.6364 262.695 55.358 262.82 55.0284L266.178 55.25C266.008 56.0568 265.658 56.7614 265.13 57.3636C264.607 57.9602 263.931 58.4261 263.102 58.7614C262.278 59.0909 261.326 59.2557 260.247 59.2557ZM277.81 51.4318V59H274.179V45.9091H277.639V48.2188H277.793C278.082 47.4574 278.568 46.8551 279.25 46.4119C279.932 45.9631 280.759 45.7386 281.73 45.7386C282.639 45.7386 283.432 45.9375 284.108 46.3352C284.784 46.733 285.31 47.3011 285.685 48.0398C286.06 48.7727 286.247 49.6477 286.247 50.6648V59H282.617V51.3125C282.622 50.5114 282.418 49.8864 282.003 49.4375C281.588 48.983 281.017 48.7557 280.29 48.7557C279.801 48.7557 279.369 48.8608 278.994 49.071C278.625 49.2812 278.335 49.5881 278.125 49.9915C277.921 50.3892 277.815 50.8693 277.81 51.4318ZM295.075 59.2557C293.728 59.2557 292.569 58.983 291.597 58.4375C290.631 57.8864 289.887 57.108 289.364 56.1023C288.842 55.0909 288.58 53.8949 288.58 52.5142C288.58 51.1676 288.842 49.9858 289.364 48.9688C289.887 47.9517 290.623 47.1591 291.572 46.5909C292.526 46.0227 293.646 45.7386 294.93 45.7386C295.793 45.7386 296.597 45.8778 297.342 46.1562C298.092 46.429 298.745 46.8409 299.302 47.392C299.864 47.9432 300.302 48.6364 300.614 49.4716C300.927 50.3011 301.083 51.2727 301.083 52.3864V53.3835H290.029V51.1335H297.666C297.666 50.6108 297.552 50.1477 297.325 49.7443C297.097 49.3409 296.782 49.0256 296.379 48.7983C295.981 48.5653 295.518 48.4489 294.989 48.4489C294.438 48.4489 293.95 48.5767 293.524 48.8324C293.103 49.0824 292.774 49.4205 292.535 49.8466C292.296 50.267 292.174 50.7358 292.168 51.2528V53.392C292.168 54.0398 292.288 54.5994 292.526 55.071C292.771 55.5426 293.114 55.9062 293.558 56.1619C294.001 56.4176 294.526 56.5455 295.134 56.5455C295.538 56.5455 295.907 56.4886 296.242 56.375C296.577 56.2614 296.864 56.0909 297.103 55.8636C297.342 55.6364 297.524 55.358 297.649 55.0284L301.006 55.25C300.836 56.0568 300.487 56.7614 299.958 57.3636C299.435 57.9602 298.759 58.4261 297.93 58.7614C297.106 59.0909 296.154 59.2557 295.075 59.2557ZM315.305 45.9091L310.729 59H306.638L302.061 45.9091H305.896L308.615 55.2756H308.752L311.462 45.9091H315.305ZM322.707 59.2557C321.361 59.2557 320.202 58.983 319.23 58.4375C318.264 57.8864 317.52 57.108 316.997 56.1023C316.475 55.0909 316.213 53.8949 316.213 52.5142C316.213 51.1676 316.475 49.9858 316.997 48.9688C317.52 47.9517 318.256 47.1591 319.205 46.5909C320.159 46.0227 321.278 45.7386 322.563 45.7386C323.426 45.7386 324.23 45.8778 324.975 46.1562C325.725 46.429 326.378 46.8409 326.935 47.392C327.497 47.9432 327.935 48.6364 328.247 49.4716C328.56 50.3011 328.716 51.2727 328.716 52.3864V53.3835H317.662V51.1335H325.298C325.298 50.6108 325.185 50.1477 324.957 49.7443C324.73 49.3409 324.415 49.0256 324.011 48.7983C323.614 48.5653 323.151 48.4489 322.622 48.4489C322.071 48.4489 321.582 48.5767 321.156 48.8324C320.736 49.0824 320.406 49.4205 320.168 49.8466C319.929 50.267 319.807 50.7358 319.801 51.2528V53.392C319.801 54.0398 319.921 54.5994 320.159 55.071C320.403 55.5426 320.747 55.9062 321.19 56.1619C321.634 56.4176 322.159 56.5455 322.767 56.5455C323.171 56.5455 323.54 56.4886 323.875 56.375C324.21 56.2614 324.497 56.0909 324.736 55.8636C324.975 55.6364 325.156 55.358 325.281 55.0284L328.639 55.25C328.469 56.0568 328.119 56.7614 327.591 57.3636C327.068 57.9602 326.392 58.4261 325.563 58.7614C324.739 59.0909 323.787 59.2557 322.707 59.2557ZM331.085 59V45.9091H334.605V48.1932H334.742C334.98 47.3807 335.381 46.767 335.943 46.3523C336.506 45.9318 337.153 45.7216 337.886 45.7216C338.068 45.7216 338.264 45.733 338.475 45.7557C338.685 45.7784 338.869 45.8097 339.028 45.8494V49.071C338.858 49.0199 338.622 48.9744 338.321 48.9347C338.02 48.8949 337.744 48.875 337.494 48.875C336.96 48.875 336.483 48.9915 336.063 49.2244C335.648 49.4517 335.318 49.7699 335.074 50.179C334.835 50.5881 334.716 51.0597 334.716 51.5938V59H331.085ZM352.358 64.1818C351.182 64.1818 350.173 64.0199 349.332 63.696C348.497 63.3778 347.832 62.9432 347.338 62.392C346.844 61.8409 346.523 61.2216 346.375 60.5341L349.733 60.0824C349.835 60.3438 349.997 60.5881 350.219 60.8153C350.44 61.0426 350.733 61.2244 351.097 61.3608C351.466 61.5028 351.915 61.5739 352.443 61.5739C353.233 61.5739 353.884 61.3807 354.395 60.9943C354.912 60.6136 355.171 59.9744 355.171 59.0767V56.6818H355.017C354.858 57.0455 354.619 57.3892 354.301 57.7131C353.983 58.0369 353.574 58.3011 353.074 58.5057C352.574 58.7102 351.977 58.8125 351.284 58.8125C350.301 58.8125 349.406 58.5852 348.6 58.1307C347.798 57.6705 347.159 56.9687 346.682 56.0256C346.21 55.0767 345.975 53.8778 345.975 52.429C345.975 50.946 346.216 49.7074 346.699 48.7131C347.182 47.7187 347.824 46.9744 348.625 46.4801C349.432 45.9858 350.315 45.7386 351.276 45.7386C352.009 45.7386 352.622 45.8636 353.117 46.1136C353.611 46.358 354.009 46.6648 354.31 47.0341C354.617 47.3977 354.852 47.7557 355.017 48.108H355.153V45.9091H358.759V59.1278C358.759 60.2415 358.486 61.1733 357.94 61.9233C357.395 62.6733 356.639 63.2358 355.673 63.6108C354.713 63.9915 353.608 64.1818 352.358 64.1818ZM352.435 56.0852C353.02 56.0852 353.514 55.9403 353.918 55.6506C354.327 55.3551 354.639 54.9347 354.855 54.3892C355.077 53.8381 355.188 53.179 355.188 52.4119C355.188 51.6449 355.08 50.9801 354.864 50.4176C354.648 49.8494 354.335 49.4091 353.926 49.0966C353.517 48.7841 353.02 48.6278 352.435 48.6278C351.838 48.6278 351.335 48.7898 350.926 49.1136C350.517 49.4318 350.207 49.875 349.997 50.4432C349.787 51.0114 349.682 51.6676 349.682 52.4119C349.682 53.1676 349.787 53.821 349.997 54.3722C350.213 54.9176 350.523 55.3409 350.926 55.642C351.335 55.9375 351.838 56.0852 352.435 56.0852ZM361.648 59V45.9091H365.278V59H361.648ZM363.472 44.2216C362.932 44.2216 362.469 44.0426 362.082 43.6847C361.702 43.321 361.511 42.8864 361.511 42.3807C361.511 41.8807 361.702 41.4517 362.082 41.0938C362.469 40.7301 362.932 40.5483 363.472 40.5483C364.011 40.5483 364.472 40.7301 364.852 41.0938C365.239 41.4517 365.432 41.8807 365.432 42.3807C365.432 42.8864 365.239 43.321 364.852 43.6847C364.472 44.0426 364.011 44.2216 363.472 44.2216ZM380.391 45.9091L375.815 59H371.724L367.147 45.9091H370.982L373.701 55.2756H373.837L376.548 45.9091H380.391ZM387.793 59.2557C386.447 59.2557 385.288 58.983 384.316 58.4375C383.35 57.8864 382.606 57.108 382.083 56.1023C381.56 55.0909 381.299 53.8949 381.299 52.5142C381.299 51.1676 381.56 49.9858 382.083 48.9688C382.606 47.9517 383.342 47.1591 384.291 46.5909C385.245 46.0227 386.364 45.7386 387.649 45.7386C388.512 45.7386 389.316 45.8778 390.06 46.1562C390.81 46.429 391.464 46.8409 392.021 47.392C392.583 47.9432 393.021 48.6364 393.333 49.4716C393.646 50.3011 393.802 51.2727 393.802 52.3864V53.3835H382.748V51.1335H390.384C390.384 50.6108 390.271 50.1477 390.043 49.7443C389.816 49.3409 389.501 49.0256 389.097 48.7983C388.7 48.5653 388.237 48.4489 387.708 48.4489C387.157 48.4489 386.668 48.5767 386.242 48.8324C385.822 49.0824 385.492 49.4205 385.254 49.8466C385.015 50.267 384.893 50.7358 384.887 51.2528V53.392C384.887 54.0398 385.006 54.5994 385.245 55.071C385.489 55.5426 385.833 55.9062 386.276 56.1619C386.72 56.4176 387.245 56.5455 387.853 56.5455C388.256 56.5455 388.626 56.4886 388.961 56.375C389.296 56.2614 389.583 56.0909 389.822 55.8636C390.06 55.6364 390.242 55.358 390.367 55.0284L393.725 55.25C393.555 56.0568 393.205 56.7614 392.677 57.3636C392.154 57.9602 391.478 58.4261 390.649 58.7614C389.825 59.0909 388.873 59.2557 387.793 59.2557ZM399.802 51.4318V59H396.171V45.9091H399.631V48.2188H399.785C400.075 47.4574 400.56 46.8551 401.242 46.4119C401.924 45.9631 402.751 45.7386 403.722 45.7386C404.631 45.7386 405.424 45.9375 406.1 46.3352C406.776 46.733 407.302 47.3011 407.677 48.0398C408.052 48.7727 408.239 49.6477 408.239 50.6648V59H404.609V51.3125C404.614 50.5114 404.41 49.8864 403.995 49.4375C403.58 48.983 403.009 48.7557 402.282 48.7557C401.793 48.7557 401.362 48.8608 400.987 49.071C400.617 49.2812 400.327 49.5881 400.117 49.9915C399.913 50.3892 399.808 50.8693 399.802 51.4318ZM425.051 53.4261V45.9091H428.681V59H425.195V56.6222H425.059C424.764 57.3892 424.272 58.0057 423.585 58.4716C422.903 58.9375 422.07 59.1705 421.087 59.1705C420.212 59.1705 419.443 58.9716 418.778 58.5739C418.113 58.1761 417.593 57.6108 417.218 56.8778C416.849 56.1449 416.661 55.267 416.656 54.2443V45.9091H420.286V53.5966C420.292 54.3693 420.499 54.9801 420.908 55.429C421.318 55.8778 421.866 56.1023 422.553 56.1023C422.991 56.1023 423.4 56.0028 423.781 55.804C424.161 55.5994 424.468 55.2983 424.701 54.9006C424.94 54.5028 425.056 54.0114 425.051 53.4261ZM431.585 63.9091V45.9091H435.165V48.108H435.327C435.486 47.7557 435.716 47.3977 436.017 47.0341C436.324 46.6648 436.722 46.358 437.21 46.1136C437.705 45.8636 438.318 45.7386 439.051 45.7386C440.006 45.7386 440.886 45.9886 441.693 46.4886C442.5 46.983 443.145 47.7301 443.628 48.7301C444.111 49.7244 444.352 50.9716 444.352 52.4716C444.352 53.9318 444.117 55.1648 443.645 56.1705C443.179 57.1705 442.543 57.929 441.736 58.446C440.935 58.9574 440.037 59.2131 439.043 59.2131C438.338 59.2131 437.739 59.0966 437.244 58.8636C436.756 58.6307 436.355 58.3381 436.043 57.9858C435.73 57.6278 435.492 57.267 435.327 56.9034H435.216V63.9091H431.585ZM435.139 52.4545C435.139 53.233 435.247 53.9119 435.463 54.4915C435.679 55.071 435.992 55.5227 436.401 55.8466C436.81 56.1648 437.307 56.3239 437.892 56.3239C438.483 56.3239 438.983 56.1619 439.392 55.8381C439.801 55.5085 440.111 55.054 440.321 54.4744C440.537 53.8892 440.645 53.2159 440.645 52.4545C440.645 51.6989 440.54 51.0341 440.33 50.4602C440.119 49.8864 439.81 49.4375 439.401 49.1136C438.992 48.7898 438.489 48.6278 437.892 48.6278C437.301 48.6278 436.801 48.7841 436.392 49.0966C435.989 49.4091 435.679 49.8523 435.463 50.4261C435.247 51 435.139 51.6761 435.139 52.4545ZM450.719 56.6136L450.625 57.5511C450.551 58.3011 450.409 59.0483 450.199 59.7926C449.994 60.5426 449.778 61.2216 449.551 61.8295C449.33 62.4375 449.151 62.9148 449.014 63.2614H446.662C446.747 62.9261 446.864 62.4574 447.011 61.8551C447.159 61.2585 447.298 60.5881 447.429 59.8438C447.56 59.0994 447.642 58.3409 447.676 57.5682L447.719 56.6136H450.719ZM462.506 59.2472C461.671 59.2472 460.926 59.1023 460.273 58.8125C459.619 58.517 459.102 58.0824 458.722 57.5085C458.347 56.929 458.159 56.2074 458.159 55.3438C458.159 54.6165 458.293 54.0057 458.56 53.5114C458.827 53.017 459.19 52.6193 459.651 52.3182C460.111 52.017 460.634 51.7898 461.219 51.6364C461.81 51.483 462.429 51.375 463.077 51.3125C463.838 51.233 464.452 51.1591 464.918 51.0909C465.384 51.017 465.722 50.9091 465.932 50.767C466.142 50.625 466.247 50.4148 466.247 50.1364V50.0852C466.247 49.5455 466.077 49.1278 465.736 48.8324C465.401 48.5369 464.923 48.3892 464.304 48.3892C463.651 48.3892 463.131 48.5341 462.744 48.8239C462.358 49.108 462.102 49.4659 461.977 49.8977L458.619 49.625C458.79 48.8295 459.125 48.142 459.625 47.5625C460.125 46.9773 460.77 46.5284 461.56 46.2159C462.355 45.8977 463.276 45.7386 464.321 45.7386C465.048 45.7386 465.744 45.8239 466.409 45.9943C467.08 46.1648 467.673 46.429 468.19 46.7869C468.713 47.1449 469.125 47.6051 469.426 48.1676C469.727 48.7244 469.878 49.392 469.878 50.1705V59H466.435V57.1847H466.332C466.122 57.5938 465.841 57.9545 465.489 58.267C465.136 58.5739 464.713 58.8153 464.219 58.9915C463.725 59.1619 463.153 59.2472 462.506 59.2472ZM463.546 56.7415C464.08 56.7415 464.551 56.6364 464.96 56.4261C465.369 56.2102 465.69 55.9205 465.923 55.5568C466.156 55.1932 466.273 54.7812 466.273 54.321V52.9318C466.159 53.0057 466.003 53.0739 465.804 53.1364C465.611 53.1932 465.392 53.2472 465.148 53.2983C464.903 53.3437 464.659 53.3864 464.415 53.4261C464.171 53.4602 463.949 53.4915 463.75 53.5199C463.324 53.5824 462.952 53.6818 462.634 53.8182C462.315 53.9545 462.068 54.1392 461.892 54.3722C461.716 54.5994 461.628 54.8835 461.628 55.2244C461.628 55.7188 461.807 56.0966 462.165 56.358C462.528 56.6136 462.989 56.7415 463.546 56.7415ZM476.325 51.4318V59H472.695V45.9091H476.155V48.2188H476.308C476.598 47.4574 477.084 46.8551 477.766 46.4119C478.448 45.9631 479.274 45.7386 480.246 45.7386C481.155 45.7386 481.948 45.9375 482.624 46.3352C483.3 46.733 483.825 47.3011 484.2 48.0398C484.575 48.7727 484.763 49.6477 484.763 50.6648V59H481.132V51.3125C481.138 50.5114 480.933 49.8864 480.519 49.4375C480.104 48.983 479.533 48.7557 478.805 48.7557C478.317 48.7557 477.885 48.8608 477.51 49.071C477.141 49.2812 476.851 49.5881 476.641 49.9915C476.436 50.3892 476.331 50.8693 476.325 51.4318ZM492.448 59.2131C491.454 59.2131 490.553 58.9574 489.747 58.446C488.945 57.929 488.309 57.1705 487.837 56.1705C487.372 55.1648 487.139 53.9318 487.139 52.4716C487.139 50.9716 487.38 49.7244 487.863 48.7301C488.346 47.7301 488.988 46.983 489.789 46.4886C490.596 45.9886 491.479 45.7386 492.44 45.7386C493.173 45.7386 493.783 45.8636 494.272 46.1136C494.766 46.358 495.164 46.6648 495.465 47.0341C495.772 47.3977 496.005 47.7557 496.164 48.108H496.275V41.5455H499.897V59H496.318V56.9034H496.164C495.994 57.267 495.752 57.6278 495.44 57.9858C495.133 58.3381 494.732 58.6307 494.238 58.8636C493.749 59.0966 493.153 59.2131 492.448 59.2131ZM493.599 56.3239C494.184 56.3239 494.678 56.1648 495.082 55.8466C495.491 55.5227 495.803 55.071 496.019 54.4915C496.241 53.9119 496.352 53.233 496.352 52.4545C496.352 51.6761 496.244 51 496.028 50.4261C495.812 49.8523 495.499 49.4091 495.09 49.0966C494.681 48.7841 494.184 48.6278 493.599 48.6278C493.002 48.6278 492.499 48.7898 492.09 49.1136C491.681 49.4375 491.372 49.8864 491.161 50.4602C490.951 51.0341 490.846 51.6989 490.846 52.4545C490.846 53.2159 490.951 53.8892 491.161 54.4744C491.377 55.054 491.687 55.5085 492.09 55.8381C492.499 56.1619 493.002 56.3239 493.599 56.3239ZM512.195 41.5455V59H508.505V41.5455H512.195ZM524.349 51.4318V59H520.718V45.9091H524.178V48.2188H524.332C524.622 47.4574 525.107 46.8551 525.789 46.4119C526.471 45.9631 527.298 45.7386 528.269 45.7386C529.178 45.7386 529.971 45.9375 530.647 46.3352C531.323 46.733 531.849 47.3011 532.224 48.0398C532.599 48.7727 532.786 49.6477 532.786 50.6648V59H529.156V51.3125C529.161 50.5114 528.957 49.8864 528.542 49.4375C528.127 48.983 527.556 48.7557 526.829 48.7557C526.34 48.7557 525.908 48.8608 525.533 49.071C525.164 49.2812 524.874 49.5881 524.664 49.9915C524.46 50.3892 524.354 50.8693 524.349 51.4318ZM541.614 59.2557C540.267 59.2557 539.108 58.983 538.136 58.4375C537.171 57.8864 536.426 57.108 535.903 56.1023C535.381 55.0909 535.119 53.8949 535.119 52.5142C535.119 51.1676 535.381 49.9858 535.903 48.9688C536.426 47.9517 537.162 47.1591 538.111 46.5909C539.065 46.0227 540.185 45.7386 541.469 45.7386C542.332 45.7386 543.136 45.8778 543.881 46.1562C544.631 46.429 545.284 46.8409 545.841 47.392C546.403 47.9432 546.841 48.6364 547.153 49.4716C547.466 50.3011 547.622 51.2727 547.622 52.3864V53.3835H536.568V51.1335H544.205C544.205 50.6108 544.091 50.1477 543.864 49.7443C543.636 49.3409 543.321 49.0256 542.918 48.7983C542.52 48.5653 542.057 48.4489 541.528 48.4489C540.977 48.4489 540.489 48.5767 540.063 48.8324C539.642 49.0824 539.313 49.4205 539.074 49.8466C538.835 50.267 538.713 50.7358 538.707 51.2528V53.392C538.707 54.0398 538.827 54.5994 539.065 55.071C539.31 55.5426 539.653 55.9062 540.097 56.1619C540.54 56.4176 541.065 56.5455 541.673 56.5455C542.077 56.5455 542.446 56.4886 542.781 56.375C543.117 56.2614 543.403 56.0909 543.642 55.8636C543.881 55.6364 544.063 55.358 544.188 55.0284L547.546 55.25C547.375 56.0568 547.026 56.7614 546.497 57.3636C545.975 57.9602 545.298 58.4261 544.469 58.7614C543.645 59.0909 542.693 59.2557 541.614 59.2557ZM561.845 45.9091L557.268 59H553.177L548.6 45.9091H552.435L555.154 55.2756H555.291L558.001 45.9091H561.845ZM569.247 59.2557C567.9 59.2557 566.741 58.983 565.769 58.4375C564.803 57.8864 564.059 57.108 563.536 56.1023C563.014 55.0909 562.752 53.8949 562.752 52.5142C562.752 51.1676 563.014 49.9858 563.536 48.9688C564.059 47.9517 564.795 47.1591 565.744 46.5909C566.698 46.0227 567.818 45.7386 569.102 45.7386C569.965 45.7386 570.769 45.8778 571.514 46.1562C572.264 46.429 572.917 46.8409 573.474 47.392C574.036 47.9432 574.474 48.6364 574.786 49.4716C575.099 50.3011 575.255 51.2727 575.255 52.3864V53.3835H564.201V51.1335H571.837C571.837 50.6108 571.724 50.1477 571.497 49.7443C571.269 49.3409 570.954 49.0256 570.551 48.7983C570.153 48.5653 569.69 48.4489 569.161 48.4489C568.61 48.4489 568.122 48.5767 567.695 48.8324C567.275 49.0824 566.945 49.4205 566.707 49.8466C566.468 50.267 566.346 50.7358 566.34 51.2528V53.392C566.34 54.0398 566.46 54.5994 566.698 55.071C566.943 55.5426 567.286 55.9062 567.729 56.1619C568.173 56.4176 568.698 56.5455 569.306 56.5455C569.71 56.5455 570.079 56.4886 570.414 56.375C570.749 56.2614 571.036 56.0909 571.275 55.8636C571.514 55.6364 571.695 55.358 571.82 55.0284L575.178 55.25C575.008 56.0568 574.658 56.7614 574.13 57.3636C573.607 57.9602 572.931 58.4261 572.102 58.7614C571.278 59.0909 570.326 59.2557 569.247 59.2557ZM577.624 59V45.9091H581.144V48.1932H581.281C581.519 47.3807 581.92 46.767 582.482 46.3523C583.045 45.9318 583.693 45.7216 584.426 45.7216C584.607 45.7216 584.803 45.733 585.014 45.7557C585.224 45.7784 585.408 45.8097 585.568 45.8494V49.071C585.397 49.0199 585.161 48.9744 584.86 48.9347C584.559 48.8949 584.283 48.875 584.033 48.875C583.499 48.875 583.022 48.9915 582.602 49.2244C582.187 49.4517 581.857 49.7699 581.613 50.179C581.374 50.5881 581.255 51.0597 581.255 51.5938V59H577.624ZM595.582 59L592.019 45.9091H595.693L597.721 54.7045H597.84L599.954 45.9091H603.559L605.707 54.6534H605.818L607.812 45.9091H611.477L607.923 59H604.079L601.829 50.767H601.667L599.417 59H595.582ZM613.413 59V45.9091H617.044V59H613.413ZM615.237 44.2216C614.698 44.2216 614.234 44.0426 613.848 43.6847C613.467 43.321 613.277 42.8864 613.277 42.3807C613.277 41.8807 613.467 41.4517 613.848 41.0938C614.234 40.7301 614.698 40.5483 615.237 40.5483C615.777 40.5483 616.237 40.7301 616.618 41.0938C617.004 41.4517 617.198 41.8807 617.198 42.3807C617.198 42.8864 617.004 43.321 616.618 43.6847C616.237 44.0426 615.777 44.2216 615.237 44.2216ZM623.583 41.5455V59H619.952V41.5455H623.583ZM630.122 41.5455V59H626.492V41.5455H630.122ZM635.153 59.2216C634.59 59.2216 634.107 59.0227 633.704 58.625C633.306 58.2216 633.107 57.7386 633.107 57.1761C633.107 56.6193 633.306 56.142 633.704 55.7443C634.107 55.3466 634.59 55.1477 635.153 55.1477C635.698 55.1477 636.176 55.3466 636.585 55.7443C636.994 56.142 637.198 56.6193 637.198 57.1761C637.198 57.5511 637.102 57.8949 636.908 58.2074C636.721 58.5142 636.474 58.7614 636.167 58.9489C635.86 59.1307 635.522 59.2216 635.153 59.2216ZM648.672 41.5455V59H644.982V41.5455H648.672ZM658.603 45.9091V48.6364H650.72V45.9091H658.603ZM652.509 42.7727H656.14V54.9773C656.14 55.3125 656.191 55.5739 656.293 55.7614C656.396 55.9432 656.538 56.071 656.72 56.1449C656.907 56.2187 657.123 56.2557 657.367 56.2557C657.538 56.2557 657.708 56.2415 657.879 56.2131C658.049 56.179 658.18 56.1534 658.271 56.1364L658.842 58.8381C658.66 58.8949 658.404 58.9602 658.075 59.0341C657.745 59.1136 657.345 59.1619 656.873 59.179C655.998 59.2131 655.231 59.0966 654.572 58.8295C653.918 58.5625 653.41 58.1477 653.046 57.5852C652.683 57.0227 652.504 56.3125 652.509 55.4545V42.7727ZM664.597 41.5455V43.3864C664.597 43.9091 664.494 44.4432 664.29 44.9886C664.091 45.5284 663.824 46.0398 663.489 46.5227C663.153 47 662.787 47.4062 662.389 47.7415L660.787 46.7955C661.071 46.3466 661.321 45.8494 661.537 45.304C661.759 44.7585 661.869 44.125 661.869 43.4034V41.5455H664.597ZM676.266 49.642L672.943 49.8466C672.886 49.5625 672.764 49.3068 672.576 49.0795C672.389 48.8466 672.141 48.6619 671.835 48.5256C671.533 48.3835 671.173 48.3125 670.752 48.3125C670.19 48.3125 669.715 48.4318 669.329 48.6705C668.943 48.9034 668.749 49.2159 668.749 49.608C668.749 49.9205 668.874 50.1847 669.124 50.4006C669.374 50.6165 669.803 50.7898 670.411 50.9205L672.781 51.3977C674.053 51.6591 675.002 52.0795 675.627 52.6591C676.252 53.2386 676.565 54 676.565 54.9432C676.565 55.8011 676.312 56.554 675.806 57.2017C675.306 57.8494 674.619 58.3551 673.744 58.7188C672.874 59.0767 671.872 59.2557 670.735 59.2557C669.002 59.2557 667.622 58.8949 666.593 58.1733C665.57 57.446 664.971 56.4574 664.795 55.2074L668.366 55.0199C668.474 55.5483 668.735 55.9517 669.15 56.2301C669.565 56.5028 670.096 56.6392 670.744 56.6392C671.38 56.6392 671.891 56.517 672.278 56.2727C672.67 56.0227 672.869 55.7017 672.874 55.3097C672.869 54.9801 672.729 54.7102 672.457 54.5C672.184 54.2841 671.764 54.1193 671.195 54.0057L668.928 53.554C667.65 53.2983 666.698 52.8551 666.073 52.2244C665.454 51.5937 665.144 50.7898 665.144 49.8125C665.144 48.9716 665.372 48.2472 665.826 47.6392C666.286 47.0312 666.931 46.5625 667.761 46.233C668.596 45.9034 669.573 45.7386 670.693 45.7386C672.346 45.7386 673.647 46.0881 674.596 46.7869C675.551 47.4858 676.107 48.4375 676.266 49.642ZM684.406 59V45.9091H688.036V59H684.406ZM686.229 44.2216C685.69 44.2216 685.227 44.0426 684.84 43.6847C684.46 43.321 684.269 42.8864 684.269 42.3807C684.269 41.8807 684.46 41.4517 684.84 41.0938C685.227 40.7301 685.69 40.5483 686.229 40.5483C686.769 40.5483 687.229 40.7301 687.61 41.0938C687.997 41.4517 688.19 41.8807 688.19 42.3807C688.19 42.8864 687.997 43.321 687.61 43.6847C687.229 44.0426 686.769 44.2216 686.229 44.2216ZM694.575 51.4318V59H690.945V45.9091H694.405V48.2188H694.558C694.848 47.4574 695.334 46.8551 696.016 46.4119C696.698 45.9631 697.524 45.7386 698.496 45.7386C699.405 45.7386 700.198 45.9375 700.874 46.3352C701.55 46.733 702.075 47.3011 702.45 48.0398C702.825 48.7727 703.013 49.6477 703.013 50.6648V59H699.382V51.3125C699.388 50.5114 699.183 49.8864 698.769 49.4375C698.354 48.983 697.783 48.7557 697.055 48.7557C696.567 48.7557 696.135 48.8608 695.76 49.071C695.391 49.2812 695.101 49.5881 694.891 49.9915C694.686 50.3892 694.581 50.8693 694.575 51.4318ZM711.429 59V45.9091H714.889V48.2188H715.043C715.315 47.4517 715.77 46.8466 716.406 46.4034C717.043 45.9602 717.804 45.7386 718.69 45.7386C719.588 45.7386 720.352 45.9631 720.983 46.4119C721.614 46.8551 722.034 47.4574 722.244 48.2188H722.381C722.648 47.4688 723.131 46.8693 723.83 46.4205C724.534 45.9659 725.367 45.7386 726.327 45.7386C727.548 45.7386 728.54 46.1278 729.301 46.9062C730.068 47.679 730.452 48.7756 730.452 50.196V59H726.83V50.9119C726.83 50.1847 726.636 49.6392 726.25 49.2756C725.864 48.9119 725.381 48.7301 724.801 48.7301C724.142 48.7301 723.628 48.9403 723.259 49.3608C722.889 49.7756 722.705 50.3239 722.705 51.0057V59H719.185V50.8352C719.185 50.1932 719 49.6818 718.631 49.3011C718.267 48.9205 717.787 48.7301 717.19 48.7301C716.787 48.7301 716.423 48.8324 716.1 49.0369C715.781 49.2358 715.529 49.517 715.341 49.8807C715.154 50.2386 715.06 50.6591 715.06 51.142V59H711.429ZM735.092 63.9091C734.632 63.9091 734.2 63.8722 733.797 63.7983C733.399 63.7301 733.07 63.642 732.808 63.5341L733.627 60.8239C734.053 60.9545 734.436 61.0256 734.777 61.0369C735.124 61.0483 735.422 60.9688 735.672 60.7983C735.928 60.6278 736.135 60.3381 736.294 59.929L736.507 59.375L731.811 45.9091H735.629L738.34 55.5227H738.476L741.212 45.9091H745.056L739.967 60.4148C739.723 61.1193 739.391 61.733 738.97 62.2557C738.556 62.7841 738.03 63.1903 737.394 63.4744C736.757 63.7642 735.99 63.9091 735.092 63.9091ZM752.536 59V41.5455H756.167V48.108H756.278C756.437 47.7557 756.667 47.3977 756.968 47.0341C757.275 46.6648 757.673 46.358 758.161 46.1136C758.656 45.8636 759.269 45.7386 760.002 45.7386C760.957 45.7386 761.837 45.9886 762.644 46.4886C763.451 46.983 764.096 47.7301 764.579 48.7301C765.062 49.7244 765.303 50.9716 765.303 52.4716C765.303 53.9318 765.068 55.1648 764.596 56.1705C764.13 57.1705 763.494 57.929 762.687 58.446C761.886 58.9574 760.988 59.2131 759.994 59.2131C759.289 59.2131 758.69 59.0966 758.195 58.8636C757.707 58.6307 757.306 58.3381 756.994 57.9858C756.681 57.6278 756.443 57.267 756.278 56.9034H756.116V59H752.536ZM756.09 52.4545C756.09 53.233 756.198 53.9119 756.414 54.4915C756.63 55.071 756.943 55.5227 757.352 55.8466C757.761 56.1648 758.258 56.3239 758.843 56.3239C759.434 56.3239 759.934 56.1619 760.343 55.8381C760.752 55.5085 761.062 55.054 761.272 54.4744C761.488 53.8892 761.596 53.2159 761.596 52.4545C761.596 51.6989 761.491 51.0341 761.281 50.4602C761.07 49.8864 760.761 49.4375 760.352 49.1136C759.943 48.7898 759.44 48.6278 758.843 48.6278C758.252 48.6278 757.752 48.7841 757.343 49.0966C756.94 49.4091 756.63 49.8523 756.414 50.4261C756.198 51 756.09 51.6761 756.09 52.4545ZM771.357 41.5455V59H767.726V41.5455H771.357ZM780.18 59.2557C778.856 59.2557 777.711 58.9744 776.745 58.4119C775.785 57.8437 775.043 57.054 774.521 56.0426C773.998 55.0256 773.737 53.8466 773.737 52.5057C773.737 51.1534 773.998 49.9716 774.521 48.9602C775.043 47.9432 775.785 47.1534 776.745 46.5909C777.711 46.0227 778.856 45.7386 780.18 45.7386C781.504 45.7386 782.646 46.0227 783.606 46.5909C784.572 47.1534 785.316 47.9432 785.839 48.9602C786.362 49.9716 786.623 51.1534 786.623 52.5057C786.623 53.8466 786.362 55.0256 785.839 56.0426C785.316 57.054 784.572 57.8437 783.606 58.4119C782.646 58.9744 781.504 59.2557 780.18 59.2557ZM780.197 56.4432C780.799 56.4432 781.302 56.2727 781.705 55.9318C782.109 55.5852 782.413 55.1136 782.617 54.517C782.828 53.9205 782.933 53.2415 782.933 52.4801C782.933 51.7188 782.828 51.0398 782.617 50.4432C782.413 49.8466 782.109 49.375 781.705 49.0284C781.302 48.6818 780.799 48.5085 780.197 48.5085C779.589 48.5085 779.078 48.6818 778.663 49.0284C778.254 49.375 777.944 49.8466 777.734 50.4432C777.529 51.0398 777.427 51.7188 777.427 52.4801C777.427 53.2415 777.529 53.9205 777.734 54.517C777.944 55.1136 778.254 55.5852 778.663 55.9318C779.078 56.2727 779.589 56.4432 780.197 56.4432ZM794.899 59.2557C793.575 59.2557 792.43 58.9744 791.464 58.4119C790.504 57.8437 789.762 57.054 789.239 56.0426C788.717 55.0256 788.455 53.8466 788.455 52.5057C788.455 51.1534 788.717 49.9716 789.239 48.9602C789.762 47.9432 790.504 47.1534 791.464 46.5909C792.43 46.0227 793.575 45.7386 794.899 45.7386C796.222 45.7386 797.364 46.0227 798.325 46.5909C799.291 47.1534 800.035 47.9432 800.558 48.9602C801.08 49.9716 801.342 51.1534 801.342 52.5057C801.342 53.8466 801.08 55.0256 800.558 56.0426C800.035 57.054 799.291 57.8437 798.325 58.4119C797.364 58.9744 796.222 59.2557 794.899 59.2557ZM794.916 56.4432C795.518 56.4432 796.021 56.2727 796.424 55.9318C796.828 55.5852 797.132 55.1136 797.336 54.517C797.546 53.9205 797.651 53.2415 797.651 52.4801C797.651 51.7188 797.546 51.0398 797.336 50.4432C797.132 49.8466 796.828 49.375 796.424 49.0284C796.021 48.6818 795.518 48.5085 794.916 48.5085C794.308 48.5085 793.796 48.6818 793.382 49.0284C792.972 49.375 792.663 49.8466 792.453 50.4432C792.248 51.0398 792.146 51.7188 792.146 52.4801C792.146 53.2415 792.248 53.9205 792.453 54.517C792.663 55.1136 792.972 55.5852 793.382 55.9318C793.796 56.2727 794.308 56.4432 794.916 56.4432ZM808.526 59.2131C807.532 59.2131 806.632 58.9574 805.825 58.446C805.024 57.929 804.387 57.1705 803.916 56.1705C803.45 55.1648 803.217 53.9318 803.217 52.4716C803.217 50.9716 803.458 49.7244 803.941 48.7301C804.424 47.7301 805.066 46.983 805.867 46.4886C806.674 45.9886 807.558 45.7386 808.518 45.7386C809.251 45.7386 809.862 45.8636 810.35 46.1136C810.845 46.358 811.242 46.6648 811.543 47.0341C811.85 47.3977 812.083 47.7557 812.242 48.108H812.353V41.5455H815.975V59H812.396V56.9034H812.242C812.072 57.267 811.83 57.6278 811.518 57.9858C811.211 58.3381 810.81 58.6307 810.316 58.8636C809.828 59.0966 809.231 59.2131 808.526 59.2131ZM809.677 56.3239C810.262 56.3239 810.757 56.1648 811.16 55.8466C811.569 55.5227 811.882 55.071 812.097 54.4915C812.319 53.9119 812.43 53.233 812.43 52.4545C812.43 51.6761 812.322 51 812.106 50.4261C811.89 49.8523 811.578 49.4091 811.168 49.0966C810.759 48.7841 810.262 48.6278 809.677 48.6278C809.08 48.6278 808.578 48.7898 808.168 49.1136C807.759 49.4375 807.45 49.8864 807.239 50.4602C807.029 51.0341 806.924 51.6989 806.924 52.4545C806.924 53.2159 807.029 53.8892 807.239 54.4744C807.455 55.054 807.765 55.5085 808.168 55.8381C808.578 56.1619 809.08 56.3239 809.677 56.3239ZM821.082 59.2216C820.52 59.2216 820.037 59.0227 819.634 58.625C819.236 58.2216 819.037 57.7386 819.037 57.1761C819.037 56.6193 819.236 56.142 819.634 55.7443C820.037 55.3466 820.52 55.1477 821.082 55.1477C821.628 55.1477 822.105 55.3466 822.514 55.7443C822.923 56.142 823.128 56.6193 823.128 57.1761C823.128 57.5511 823.031 57.8949 822.838 58.2074C822.651 58.5142 822.404 58.7614 822.097 58.9489C821.79 59.1307 821.452 59.2216 821.082 59.2216ZM826.761 41.5455V43.3864C826.761 43.9091 826.658 44.4432 826.454 44.9886C826.255 45.5284 825.988 46.0398 825.653 46.5227C825.318 47 824.951 47.4062 824.553 47.7415L822.951 46.7955C823.235 46.3466 823.485 45.8494 823.701 45.304C823.923 44.7585 824.033 44.125 824.033 43.4034V41.5455H826.761ZM831.048 41.5455V43.3864C831.048 43.9091 830.945 44.4432 830.741 44.9886C830.542 45.5284 830.275 46.0398 829.94 46.5227C829.605 47 829.235 47.4062 828.832 47.7415L827.23 46.7955C827.519 46.3466 827.772 45.8494 827.988 45.304C828.21 44.7585 828.32 44.125 828.32 43.4034V41.5455H831.048ZM847.531 48.8324V51.7131H839.57V48.8324H847.531ZM856.247 59V41.5455H859.938V55.9574H867.421V59H856.247ZM875.762 59.2557C874.416 59.2557 873.257 58.983 872.285 58.4375C871.319 57.8864 870.575 57.108 870.052 56.1023C869.529 55.0909 869.268 53.8949 869.268 52.5142C869.268 51.1676 869.529 49.9858 870.052 48.9688C870.575 47.9517 871.31 47.1591 872.259 46.5909C873.214 46.0227 874.333 45.7386 875.617 45.7386C876.481 45.7386 877.285 45.8778 878.029 46.1562C878.779 46.429 879.433 46.8409 879.989 47.392C880.552 47.9432 880.989 48.6364 881.302 49.4716C881.614 50.3011 881.771 51.2727 881.771 52.3864V53.3835H870.717V51.1335H878.353C878.353 50.6108 878.239 50.1477 878.012 49.7443C877.785 49.3409 877.47 49.0256 877.066 48.7983C876.668 48.5653 876.205 48.4489 875.677 48.4489C875.126 48.4489 874.637 48.5767 874.211 48.8324C873.791 49.0824 873.461 49.4205 873.222 49.8466C872.984 50.267 872.862 50.7358 872.856 51.2528V53.392C872.856 54.0398 872.975 54.5994 873.214 55.071C873.458 55.5426 873.802 55.9062 874.245 56.1619C874.688 56.4176 875.214 56.5455 875.822 56.5455C876.225 56.5455 876.595 56.4886 876.93 56.375C877.265 56.2614 877.552 56.0909 877.791 55.8636C878.029 55.6364 878.211 55.358 878.336 55.0284L881.694 55.25C881.524 56.0568 881.174 56.7614 880.646 57.3636C880.123 57.9602 879.447 58.4261 878.617 58.7614C877.793 59.0909 876.842 59.2557 875.762 59.2557ZM886.629 59L883.066 45.9091H886.739L888.768 54.7045H888.887L891.001 45.9091H894.606L896.754 54.6534H896.864L898.859 45.9091H902.524L898.97 59H895.126L892.876 50.767H892.714L890.464 59H886.629ZM904.46 59V45.9091H908.091V59H904.46ZM906.284 44.2216C905.744 44.2216 905.281 44.0426 904.895 43.6847C904.514 43.321 904.324 42.8864 904.324 42.3807C904.324 41.8807 904.514 41.4517 904.895 41.0938C905.281 40.7301 905.744 40.5483 906.284 40.5483C906.824 40.5483 907.284 40.7301 907.665 41.0938C908.051 41.4517 908.244 41.8807 908.244 42.3807C908.244 42.8864 908.051 43.321 907.665 43.6847C907.284 44.0426 906.824 44.2216 906.284 44.2216ZM921.891 49.642L918.568 49.8466C918.511 49.5625 918.389 49.3068 918.201 49.0795C918.014 48.8466 917.766 48.6619 917.46 48.5256C917.158 48.3835 916.798 48.3125 916.377 48.3125C915.815 48.3125 915.34 48.4318 914.954 48.6705C914.568 48.9034 914.374 49.2159 914.374 49.608C914.374 49.9205 914.499 50.1847 914.749 50.4006C914.999 50.6165 915.428 50.7898 916.036 50.9205L918.406 51.3977C919.678 51.6591 920.627 52.0795 921.252 52.6591C921.877 53.2386 922.19 54 922.19 54.9432C922.19 55.8011 921.937 56.554 921.431 57.2017C920.931 57.8494 920.244 58.3551 919.369 58.7188C918.499 59.0767 917.497 59.2557 916.36 59.2557C914.627 59.2557 913.247 58.8949 912.218 58.1733C911.195 57.446 910.596 56.4574 910.42 55.2074L913.991 55.0199C914.099 55.5483 914.36 55.9517 914.775 56.2301C915.19 56.5028 915.721 56.6392 916.369 56.6392C917.005 56.6392 917.516 56.517 917.903 56.2727C918.295 56.0227 918.494 55.7017 918.499 55.3097C918.494 54.9801 918.355 54.7102 918.082 54.5C917.809 54.2841 917.389 54.1193 916.82 54.0057L914.553 53.554C913.275 53.2983 912.323 52.8551 911.698 52.2244C911.079 51.5937 910.769 50.7898 910.769 49.8125C910.769 48.9716 910.997 48.2472 911.451 47.6392C911.911 47.0312 912.556 46.5625 913.386 46.233C914.221 45.9034 915.198 45.7386 916.318 45.7386C917.971 45.7386 919.272 46.0881 920.221 46.7869C921.176 47.4858 921.732 48.4375 921.891 49.642ZM930.099 59V41.5455H933.789V48.7472H941.281V41.5455H944.962V59H941.281V51.7898H933.789V59H930.099ZM951.67 59.2472C950.835 59.2472 950.09 59.1023 949.437 58.8125C948.783 58.517 948.266 58.0824 947.886 57.5085C947.511 56.929 947.323 56.2074 947.323 55.3438C947.323 54.6165 947.457 54.0057 947.724 53.5114C947.991 53.017 948.355 52.6193 948.815 52.3182C949.275 52.017 949.798 51.7898 950.383 51.6364C950.974 51.483 951.593 51.375 952.241 51.3125C953.002 51.233 953.616 51.1591 954.082 51.0909C954.548 51.017 954.886 50.9091 955.096 50.767C955.306 50.625 955.411 50.4148 955.411 50.1364V50.0852C955.411 49.5455 955.241 49.1278 954.9 48.8324C954.565 48.5369 954.087 48.3892 953.468 48.3892C952.815 48.3892 952.295 48.5341 951.908 48.8239C951.522 49.108 951.266 49.4659 951.141 49.8977L947.783 49.625C947.954 48.8295 948.289 48.142 948.789 47.5625C949.289 46.9773 949.934 46.5284 950.724 46.2159C951.519 45.8977 952.44 45.7386 953.485 45.7386C954.212 45.7386 954.908 45.8239 955.573 45.9943C956.244 46.1648 956.837 46.429 957.355 46.7869C957.877 47.1449 958.289 47.6051 958.59 48.1676C958.891 48.7244 959.042 49.392 959.042 50.1705V59H955.599V57.1847H955.497C955.286 57.5938 955.005 57.9545 954.653 58.267C954.301 58.5739 953.877 58.8153 953.383 58.9915C952.889 59.1619 952.318 59.2472 951.67 59.2472ZM952.71 56.7415C953.244 56.7415 953.715 56.6364 954.124 56.4261C954.533 56.2102 954.855 55.9205 955.087 55.5568C955.32 55.1932 955.437 54.7812 955.437 54.321V52.9318C955.323 53.0057 955.167 53.0739 954.968 53.1364C954.775 53.1932 954.556 53.2472 954.312 53.2983C954.068 53.3437 953.823 53.3864 953.579 53.4261C953.335 53.4602 953.113 53.4915 952.914 53.5199C952.488 53.5824 952.116 53.6818 951.798 53.8182C951.48 53.9545 951.232 54.1392 951.056 54.3722C950.88 54.5994 950.792 54.8835 950.792 55.2244C950.792 55.7188 950.971 56.0966 951.329 56.358C951.693 56.6136 952.153 56.7415 952.71 56.7415ZM961.859 59V45.9091H965.319V48.2188H965.472C965.745 47.4517 966.2 46.8466 966.836 46.4034C967.472 45.9602 968.234 45.7386 969.12 45.7386C970.018 45.7386 970.782 45.9631 971.413 46.4119C972.043 46.8551 972.464 47.4574 972.674 48.2188H972.81C973.078 47.4688 973.56 46.8693 974.259 46.4205C974.964 45.9659 975.796 45.7386 976.757 45.7386C977.978 45.7386 978.97 46.1278 979.731 46.9062C980.498 47.679 980.882 48.7756 980.882 50.196V59H977.259V50.9119C977.259 50.1847 977.066 49.6392 976.68 49.2756C976.293 48.9119 975.81 48.7301 975.231 48.7301C974.572 48.7301 974.058 48.9403 973.688 49.3608C973.319 49.7756 973.134 50.3239 973.134 51.0057V59H969.614V50.8352C969.614 50.1932 969.43 49.6818 969.06 49.3011C968.697 48.9205 968.217 48.7301 967.62 48.7301C967.217 48.7301 966.853 48.8324 966.529 49.0369C966.211 49.2358 965.958 49.517 965.771 49.8807C965.583 50.2386 965.489 50.6591 965.489 51.142V59H961.859ZM983.749 59V45.9091H987.38V59H983.749ZM985.573 44.2216C985.033 44.2216 984.57 44.0426 984.184 43.6847C983.803 43.321 983.613 42.8864 983.613 42.3807C983.613 41.8807 983.803 41.4517 984.184 41.0938C984.57 40.7301 985.033 40.5483 985.573 40.5483C986.113 40.5483 986.573 40.7301 986.954 41.0938C987.34 41.4517 987.533 41.8807 987.533 42.3807C987.533 42.8864 987.34 43.321 986.954 43.6847C986.573 44.0426 986.113 44.2216 985.573 44.2216ZM993.919 41.5455V59H990.288V41.5455H993.919ZM1003.79 45.9091V48.6364H995.907V45.9091H1003.79ZM997.697 42.7727H1001.33V54.9773C1001.33 55.3125 1001.38 55.5739 1001.48 55.7614C1001.58 55.9432 1001.73 56.071 1001.91 56.1449C1002.09 56.2187 1002.31 56.2557 1002.55 56.2557C1002.73 56.2557 1002.9 56.2415 1003.07 56.2131C1003.24 56.179 1003.37 56.1534 1003.46 56.1364L1004.03 58.8381C1003.85 58.8949 1003.59 58.9602 1003.26 59.0341C1002.93 59.1136 1002.53 59.1619 1002.06 59.179C1001.19 59.2131 1000.42 59.0966 999.759 58.8295C999.106 58.5625 998.597 58.1477 998.234 57.5852C997.87 57.0227 997.691 56.3125 997.697 55.4545V42.7727ZM1011.93 59.2557C1010.61 59.2557 1009.46 58.9744 1008.5 58.4119C1007.53 57.8437 1006.79 57.054 1006.27 56.0426C1005.75 55.0256 1005.49 53.8466 1005.49 52.5057C1005.49 51.1534 1005.75 49.9716 1006.27 48.9602C1006.79 47.9432 1007.53 47.1534 1008.5 46.5909C1009.46 46.0227 1010.61 45.7386 1011.93 45.7386C1013.25 45.7386 1014.4 46.0227 1015.36 46.5909C1016.32 47.1534 1017.07 47.9432 1017.59 48.9602C1018.11 49.9716 1018.37 51.1534 1018.37 52.5057C1018.37 53.8466 1018.11 55.0256 1017.59 56.0426C1017.07 57.054 1016.32 57.8437 1015.36 58.4119C1014.4 58.9744 1013.25 59.2557 1011.93 59.2557ZM1011.95 56.4432C1012.55 56.4432 1013.05 56.2727 1013.46 55.9318C1013.86 55.5852 1014.16 55.1136 1014.37 54.517C1014.58 53.9205 1014.68 53.2415 1014.68 52.4801C1014.68 51.7188 1014.58 51.0398 1014.37 50.4432C1014.16 49.8466 1013.86 49.375 1013.46 49.0284C1013.05 48.6818 1012.55 48.5085 1011.95 48.5085C1011.34 48.5085 1010.83 48.6818 1010.41 49.0284C1010 49.375 1009.69 49.8466 1009.48 50.4432C1009.28 51.0398 1009.18 51.7188 1009.18 52.4801C1009.18 53.2415 1009.28 53.9205 1009.48 54.517C1009.69 55.1136 1010 55.5852 1010.41 55.9318C1010.83 56.2727 1011.34 56.4432 1011.95 56.4432ZM1024.36 51.4318V59H1020.73V45.9091H1024.19V48.2188H1024.35C1024.64 47.4574 1025.12 46.8551 1025.8 46.4119C1026.49 45.9631 1027.31 45.7386 1028.28 45.7386C1029.19 45.7386 1029.99 45.9375 1030.66 46.3352C1031.34 46.733 1031.86 47.3011 1032.24 48.0398C1032.61 48.7727 1032.8 49.6477 1032.8 50.6648V59H1029.17V51.3125C1029.18 50.5114 1028.97 49.8864 1028.56 49.4375C1028.14 48.983 1027.57 48.7557 1026.84 48.7557C1026.36 48.7557 1025.92 48.8608 1025.55 49.071C1025.18 49.2812 1024.89 49.5881 1024.68 49.9915C1024.48 50.3892 1024.37 50.8693 1024.36 51.4318Z" fill="#B39DDB"/>
</svg>
