<svg width="950" height="140" viewBox="0 0 950 140" fill="none" xmlns="http://www.w3.org/2000/svg">
<rect width="950" height="140" rx="25" fill="#1A1A1A"/>
<path d="M72.8313 96.5455V98.3864C72.8313 98.9091 72.729 99.4432 72.5245 99.9886C72.3256 100.528 72.0586 101.04 71.7234 101.523C71.3881 102 71.0217 102.406 70.6239 102.741L69.0217 101.795C69.3058 101.347 69.5558 100.849 69.7717 100.304C69.9933 99.7585 70.104 99.125 70.104 98.4034V96.5455H72.8313ZM77.1183 96.5455V98.3864C77.1183 98.9091 77.016 99.4432 76.8114 99.9886C76.6126 100.528 76.3455 101.04 76.0103 101.523C75.6751 102 75.3058 102.406 74.9023 102.741L73.3001 101.795C73.5898 101.347 73.8427 100.849 74.0586 100.304C74.2802 99.7585 74.391 99.125 74.391 98.4034V96.5455H77.1183ZM83.6488 96.5455V114H79.9585V96.5455H83.6488ZM89.6594 96.5455V98.3864C89.6594 98.9091 89.5572 99.4432 89.3526 99.9886C89.1538 100.528 88.8867 101.04 88.5515 101.523C88.2163 102 87.8498 102.406 87.4521 102.741L85.8498 101.795C86.1339 101.347 86.3839 100.849 86.5998 100.304C86.8214 99.7585 86.9322 99.125 86.9322 98.4034V96.5455H89.6594ZM104.845 100.909L100.268 114H96.1772L91.6005 100.909H95.4357L98.1545 110.276H98.2908L101.001 100.909H104.845ZM112.247 114.256C110.9 114.256 109.741 113.983 108.77 113.438C107.804 112.886 107.059 112.108 106.537 111.102C106.014 110.091 105.752 108.895 105.752 107.514C105.752 106.168 106.014 104.986 106.537 103.969C107.059 102.952 107.795 102.159 108.744 101.591C109.699 101.023 110.818 100.739 112.102 100.739C112.966 100.739 113.77 100.878 114.514 101.156C115.264 101.429 115.917 101.841 116.474 102.392C117.037 102.943 117.474 103.636 117.787 104.472C118.099 105.301 118.255 106.273 118.255 107.386V108.384H107.201V106.134H114.838C114.838 105.611 114.724 105.148 114.497 104.744C114.27 104.341 113.954 104.026 113.551 103.798C113.153 103.565 112.69 103.449 112.162 103.449C111.61 103.449 111.122 103.577 110.696 103.832C110.275 104.082 109.946 104.42 109.707 104.847C109.468 105.267 109.346 105.736 109.341 106.253V108.392C109.341 109.04 109.46 109.599 109.699 110.071C109.943 110.543 110.287 110.906 110.73 111.162C111.173 111.418 111.699 111.545 112.306 111.545C112.71 111.545 113.079 111.489 113.414 111.375C113.75 111.261 114.037 111.091 114.275 110.864C114.514 110.636 114.696 110.358 114.821 110.028L118.179 110.25C118.008 111.057 117.659 111.761 117.13 112.364C116.608 112.96 115.931 113.426 115.102 113.761C114.278 114.091 113.326 114.256 112.247 114.256ZM129.81 106.432V114H126.179V100.909H129.64V103.219H129.793C130.083 102.457 130.569 101.855 131.25 101.412C131.932 100.963 132.759 100.739 133.73 100.739C134.64 100.739 135.432 100.938 136.108 101.335C136.784 101.733 137.31 102.301 137.685 103.04C138.06 103.773 138.248 104.648 138.248 105.665V114H134.617V106.312C134.623 105.511 134.418 104.886 134.003 104.438C133.588 103.983 133.017 103.756 132.29 103.756C131.801 103.756 131.37 103.861 130.995 104.071C130.625 104.281 130.336 104.588 130.125 104.991C129.921 105.389 129.816 105.869 129.81 106.432ZM147.075 114.256C145.728 114.256 144.569 113.983 143.598 113.438C142.632 112.886 141.887 112.108 141.365 111.102C140.842 110.091 140.581 108.895 140.581 107.514C140.581 106.168 140.842 104.986 141.365 103.969C141.887 102.952 142.623 102.159 143.572 101.591C144.527 101.023 145.646 100.739 146.93 100.739C147.794 100.739 148.598 100.878 149.342 101.156C150.092 101.429 150.745 101.841 151.302 102.392C151.865 102.943 152.302 103.636 152.615 104.472C152.927 105.301 153.083 106.273 153.083 107.386V108.384H142.029V106.134H149.666C149.666 105.611 149.552 105.148 149.325 104.744C149.098 104.341 148.782 104.026 148.379 103.798C147.981 103.565 147.518 103.449 146.99 103.449C146.439 103.449 145.95 103.577 145.524 103.832C145.103 104.082 144.774 104.42 144.535 104.847C144.297 105.267 144.174 105.736 144.169 106.253V108.392C144.169 109.04 144.288 109.599 144.527 110.071C144.771 110.543 145.115 110.906 145.558 111.162C146.001 111.418 146.527 111.545 147.135 111.545C147.538 111.545 147.907 111.489 148.243 111.375C148.578 111.261 148.865 111.091 149.103 110.864C149.342 110.636 149.524 110.358 149.649 110.028L153.007 110.25C152.836 111.057 152.487 111.761 151.958 112.364C151.436 112.96 150.76 113.426 149.93 113.761C149.106 114.091 148.154 114.256 147.075 114.256ZM167.306 100.909L162.729 114H158.638L154.061 100.909H157.897L160.615 110.276H160.752L163.462 100.909H167.306ZM174.708 114.256C173.361 114.256 172.202 113.983 171.23 113.438C170.265 112.886 169.52 112.108 168.998 111.102C168.475 110.091 168.213 108.895 168.213 107.514C168.213 106.168 168.475 104.986 168.998 103.969C169.52 102.952 170.256 102.159 171.205 101.591C172.159 101.023 173.279 100.739 174.563 100.739C175.426 100.739 176.23 100.878 176.975 101.156C177.725 101.429 178.378 101.841 178.935 102.392C179.498 102.943 179.935 103.636 180.248 104.472C180.56 105.301 180.716 106.273 180.716 107.386V108.384H169.662V106.134H177.299C177.299 105.611 177.185 105.148 176.958 104.744C176.73 104.341 176.415 104.026 176.012 103.798C175.614 103.565 175.151 103.449 174.623 103.449C174.071 103.449 173.583 103.577 173.157 103.832C172.736 104.082 172.407 104.42 172.168 104.847C171.929 105.267 171.807 105.736 171.801 106.253V108.392C171.801 109.04 171.921 109.599 172.159 110.071C172.404 110.543 172.748 110.906 173.191 111.162C173.634 111.418 174.159 111.545 174.767 111.545C175.171 111.545 175.54 111.489 175.875 111.375C176.211 111.261 176.498 111.091 176.736 110.864C176.975 110.636 177.157 110.358 177.282 110.028L180.64 110.25C180.469 111.057 180.12 111.761 179.591 112.364C179.069 112.96 178.392 113.426 177.563 113.761C176.739 114.091 175.787 114.256 174.708 114.256ZM183.086 114V100.909H186.605V103.193H186.742C186.98 102.381 187.381 101.767 187.944 101.352C188.506 100.932 189.154 100.722 189.887 100.722C190.069 100.722 190.265 100.733 190.475 100.756C190.685 100.778 190.87 100.81 191.029 100.849V104.071C190.858 104.02 190.623 103.974 190.321 103.935C190.02 103.895 189.745 103.875 189.495 103.875C188.961 103.875 188.483 103.991 188.063 104.224C187.648 104.452 187.319 104.77 187.074 105.179C186.836 105.588 186.716 106.06 186.716 106.594V114H183.086ZM204.358 119.182C203.182 119.182 202.174 119.02 201.333 118.696C200.498 118.378 199.833 117.943 199.338 117.392C198.844 116.841 198.523 116.222 198.375 115.534L201.733 115.082C201.836 115.344 201.998 115.588 202.219 115.815C202.441 116.043 202.733 116.224 203.097 116.361C203.466 116.503 203.915 116.574 204.444 116.574C205.233 116.574 205.884 116.381 206.395 115.994C206.912 115.614 207.171 114.974 207.171 114.077V111.682H207.017C206.858 112.045 206.62 112.389 206.301 112.713C205.983 113.037 205.574 113.301 205.074 113.506C204.574 113.71 203.978 113.812 203.284 113.812C202.301 113.812 201.407 113.585 200.6 113.131C199.799 112.67 199.159 111.969 198.682 111.026C198.211 110.077 197.975 108.878 197.975 107.429C197.975 105.946 198.216 104.707 198.699 103.713C199.182 102.719 199.824 101.974 200.625 101.48C201.432 100.986 202.316 100.739 203.276 100.739C204.009 100.739 204.623 100.864 205.117 101.114C205.611 101.358 206.009 101.665 206.31 102.034C206.617 102.398 206.853 102.756 207.017 103.108H207.154V100.909H210.759V114.128C210.759 115.241 210.486 116.173 209.941 116.923C209.395 117.673 208.64 118.236 207.674 118.611C206.713 118.991 205.608 119.182 204.358 119.182ZM204.435 111.085C205.02 111.085 205.515 110.94 205.918 110.651C206.327 110.355 206.64 109.935 206.855 109.389C207.077 108.838 207.188 108.179 207.188 107.412C207.188 106.645 207.08 105.98 206.864 105.418C206.648 104.849 206.336 104.409 205.926 104.097C205.517 103.784 205.02 103.628 204.435 103.628C203.838 103.628 203.336 103.79 202.926 104.114C202.517 104.432 202.208 104.875 201.998 105.443C201.787 106.011 201.682 106.668 201.682 107.412C201.682 108.168 201.787 108.821 201.998 109.372C202.213 109.918 202.523 110.341 202.926 110.642C203.336 110.937 203.838 111.085 204.435 111.085ZM213.648 114V100.909H217.279V114H213.648ZM215.472 99.2216C214.932 99.2216 214.469 99.0426 214.083 98.6847C213.702 98.321 213.512 97.8864 213.512 97.3807C213.512 96.8807 213.702 96.4517 214.083 96.0938C214.469 95.7301 214.932 95.5483 215.472 95.5483C216.012 95.5483 216.472 95.7301 216.853 96.0938C217.239 96.4517 217.432 96.8807 217.432 97.3807C217.432 97.8864 217.239 98.321 216.853 98.6847C216.472 99.0426 216.012 99.2216 215.472 99.2216ZM232.392 100.909L227.815 114H223.724L219.147 100.909H222.983L225.701 110.276H225.838L228.548 100.909H232.392ZM239.794 114.256C238.447 114.256 237.288 113.983 236.316 113.438C235.35 112.886 234.606 112.108 234.083 111.102C233.561 110.091 233.299 108.895 233.299 107.514C233.299 106.168 233.561 104.986 234.083 103.969C234.606 102.952 235.342 102.159 236.291 101.591C237.245 101.023 238.365 100.739 239.649 100.739C240.512 100.739 241.316 100.878 242.061 101.156C242.811 101.429 243.464 101.841 244.021 102.392C244.583 102.943 245.021 103.636 245.333 104.472C245.646 105.301 245.802 106.273 245.802 107.386V108.384H234.748V106.134H242.385C242.385 105.611 242.271 105.148 242.044 104.744C241.816 104.341 241.501 104.026 241.098 103.798C240.7 103.565 240.237 103.449 239.708 103.449C239.157 103.449 238.669 103.577 238.243 103.832C237.822 104.082 237.493 104.42 237.254 104.847C237.015 105.267 236.893 105.736 236.887 106.253V108.392C236.887 109.04 237.007 109.599 237.245 110.071C237.49 110.543 237.833 110.906 238.277 111.162C238.72 111.418 239.245 111.545 239.853 111.545C240.257 111.545 240.626 111.489 240.961 111.375C241.297 111.261 241.583 111.091 241.822 110.864C242.061 110.636 242.243 110.358 242.368 110.028L245.725 110.25C245.555 111.057 245.206 111.761 244.677 112.364C244.154 112.96 243.478 113.426 242.649 113.761C241.825 114.091 240.873 114.256 239.794 114.256ZM251.802 106.432V114H248.172V100.909H251.632V103.219H251.785C252.075 102.457 252.561 101.855 253.243 101.412C253.924 100.963 254.751 100.739 255.723 100.739C256.632 100.739 257.424 100.938 258.1 101.335C258.777 101.733 259.302 102.301 259.677 103.04C260.052 103.773 260.24 104.648 260.24 105.665V114H256.609V106.312C256.615 105.511 256.41 104.886 255.995 104.438C255.581 103.983 255.01 103.756 254.282 103.756C253.794 103.756 253.362 103.861 252.987 104.071C252.618 104.281 252.328 104.588 252.118 104.991C251.913 105.389 251.808 105.869 251.802 106.432ZM277.051 108.426V100.909H280.681V114H277.196V111.622H277.059C276.764 112.389 276.272 113.006 275.585 113.472C274.903 113.937 274.071 114.17 273.088 114.17C272.213 114.17 271.443 113.972 270.778 113.574C270.113 113.176 269.593 112.611 269.218 111.878C268.849 111.145 268.662 110.267 268.656 109.244V100.909H272.287V108.597C272.292 109.369 272.5 109.98 272.909 110.429C273.318 110.878 273.866 111.102 274.554 111.102C274.991 111.102 275.4 111.003 275.781 110.804C276.162 110.599 276.468 110.298 276.701 109.901C276.94 109.503 277.056 109.011 277.051 108.426ZM283.586 118.909V100.909H287.165V103.108H287.327C287.486 102.756 287.716 102.398 288.017 102.034C288.324 101.665 288.722 101.358 289.211 101.114C289.705 100.864 290.319 100.739 291.051 100.739C292.006 100.739 292.887 100.989 293.694 101.489C294.5 101.983 295.145 102.73 295.628 103.73C296.111 104.724 296.353 105.972 296.353 107.472C296.353 108.932 296.117 110.165 295.645 111.17C295.179 112.17 294.543 112.929 293.736 113.446C292.935 113.957 292.037 114.213 291.043 114.213C290.338 114.213 289.739 114.097 289.245 113.864C288.756 113.631 288.355 113.338 288.043 112.986C287.73 112.628 287.492 112.267 287.327 111.903H287.216V118.909H283.586ZM287.14 107.455C287.14 108.233 287.248 108.912 287.463 109.491C287.679 110.071 287.992 110.523 288.401 110.847C288.81 111.165 289.307 111.324 289.892 111.324C290.483 111.324 290.983 111.162 291.392 110.838C291.801 110.509 292.111 110.054 292.321 109.474C292.537 108.889 292.645 108.216 292.645 107.455C292.645 106.699 292.54 106.034 292.33 105.46C292.12 104.886 291.81 104.437 291.401 104.114C290.992 103.79 290.489 103.628 289.892 103.628C289.301 103.628 288.801 103.784 288.392 104.097C287.989 104.409 287.679 104.852 287.463 105.426C287.248 106 287.14 106.676 287.14 107.455ZM302.719 111.614L302.625 112.551C302.551 113.301 302.409 114.048 302.199 114.793C301.995 115.543 301.779 116.222 301.551 116.83C301.33 117.438 301.151 117.915 301.015 118.261H298.662C298.748 117.926 298.864 117.457 299.012 116.855C299.159 116.259 299.299 115.588 299.429 114.844C299.56 114.099 299.642 113.341 299.676 112.568L299.719 111.614H302.719ZM314.506 114.247C313.671 114.247 312.926 114.102 312.273 113.812C311.62 113.517 311.103 113.082 310.722 112.509C310.347 111.929 310.159 111.207 310.159 110.344C310.159 109.616 310.293 109.006 310.56 108.511C310.827 108.017 311.191 107.619 311.651 107.318C312.111 107.017 312.634 106.79 313.219 106.636C313.81 106.483 314.429 106.375 315.077 106.312C315.838 106.233 316.452 106.159 316.918 106.091C317.384 106.017 317.722 105.909 317.932 105.767C318.142 105.625 318.248 105.415 318.248 105.136V105.085C318.248 104.545 318.077 104.128 317.736 103.832C317.401 103.537 316.924 103.389 316.304 103.389C315.651 103.389 315.131 103.534 314.745 103.824C314.358 104.108 314.103 104.466 313.978 104.898L310.62 104.625C310.79 103.83 311.125 103.142 311.625 102.562C312.125 101.977 312.77 101.528 313.56 101.216C314.355 100.898 315.276 100.739 316.321 100.739C317.049 100.739 317.745 100.824 318.409 100.994C319.08 101.165 319.674 101.429 320.191 101.787C320.713 102.145 321.125 102.605 321.426 103.168C321.728 103.724 321.878 104.392 321.878 105.17V114H318.435V112.185H318.333C318.123 112.594 317.841 112.955 317.489 113.267C317.137 113.574 316.713 113.815 316.219 113.991C315.725 114.162 315.154 114.247 314.506 114.247ZM315.546 111.741C316.08 111.741 316.551 111.636 316.961 111.426C317.37 111.21 317.691 110.92 317.924 110.557C318.157 110.193 318.273 109.781 318.273 109.321V107.932C318.159 108.006 318.003 108.074 317.804 108.136C317.611 108.193 317.392 108.247 317.148 108.298C316.904 108.344 316.659 108.386 316.415 108.426C316.171 108.46 315.949 108.491 315.75 108.52C315.324 108.582 314.952 108.682 314.634 108.818C314.316 108.955 314.069 109.139 313.892 109.372C313.716 109.599 313.628 109.884 313.628 110.224C313.628 110.719 313.807 111.097 314.165 111.358C314.529 111.614 314.989 111.741 315.546 111.741ZM328.326 106.432V114H324.695V100.909H328.155V103.219H328.309C328.598 102.457 329.084 101.855 329.766 101.412C330.448 100.963 331.275 100.739 332.246 100.739C333.155 100.739 333.948 100.938 334.624 101.335C335.3 101.733 335.826 102.301 336.201 103.04C336.576 103.773 336.763 104.648 336.763 105.665V114H333.132V106.312C333.138 105.511 332.934 104.886 332.519 104.438C332.104 103.983 331.533 103.756 330.806 103.756C330.317 103.756 329.885 103.861 329.51 104.071C329.141 104.281 328.851 104.588 328.641 104.991C328.436 105.389 328.331 105.869 328.326 106.432ZM344.449 114.213C343.454 114.213 342.554 113.957 341.747 113.446C340.946 112.929 340.309 112.17 339.838 111.17C339.372 110.165 339.139 108.932 339.139 107.472C339.139 105.972 339.38 104.724 339.863 103.73C340.346 102.73 340.988 101.983 341.789 101.489C342.596 100.989 343.48 100.739 344.44 100.739C345.173 100.739 345.784 100.864 346.272 101.114C346.767 101.358 347.164 101.665 347.466 102.034C347.772 102.398 348.005 102.756 348.164 103.108H348.275V96.5455H351.897V114H348.318V111.903H348.164C347.994 112.267 347.752 112.628 347.44 112.986C347.133 113.338 346.733 113.631 346.238 113.864C345.75 114.097 345.153 114.213 344.449 114.213ZM345.599 111.324C346.184 111.324 346.679 111.165 347.082 110.847C347.491 110.523 347.804 110.071 348.02 109.491C348.241 108.912 348.352 108.233 348.352 107.455C348.352 106.676 348.244 106 348.028 105.426C347.812 104.852 347.5 104.409 347.091 104.097C346.681 103.784 346.184 103.628 345.599 103.628C345.002 103.628 344.5 103.79 344.091 104.114C343.681 104.437 343.372 104.886 343.162 105.46C342.951 106.034 342.846 106.699 342.846 107.455C342.846 108.216 342.951 108.889 343.162 109.474C343.377 110.054 343.687 110.509 344.091 110.838C344.5 111.162 345.002 111.324 345.599 111.324ZM364.196 96.5455V114H360.505V96.5455H364.196ZM376.349 106.432V114H372.718V100.909H376.179V103.219H376.332C376.622 102.457 377.108 101.855 377.789 101.412C378.471 100.963 379.298 100.739 380.27 100.739C381.179 100.739 381.971 100.938 382.647 101.335C383.324 101.733 383.849 102.301 384.224 103.04C384.599 103.773 384.787 104.648 384.787 105.665V114H381.156V106.312C381.162 105.511 380.957 104.886 380.542 104.438C380.127 103.983 379.556 103.756 378.829 103.756C378.341 103.756 377.909 103.861 377.534 104.071C377.164 104.281 376.875 104.588 376.664 104.991C376.46 105.389 376.355 105.869 376.349 106.432ZM393.614 114.256C392.267 114.256 391.108 113.983 390.137 113.438C389.171 112.886 388.426 112.108 387.904 111.102C387.381 110.091 387.12 108.895 387.12 107.514C387.12 106.168 387.381 104.986 387.904 103.969C388.426 102.952 389.162 102.159 390.111 101.591C391.066 101.023 392.185 100.739 393.469 100.739C394.333 100.739 395.137 100.878 395.881 101.156C396.631 101.429 397.284 101.841 397.841 102.392C398.404 102.943 398.841 103.636 399.154 104.472C399.466 105.301 399.623 106.273 399.623 107.386V108.384H388.569V106.134H396.205C396.205 105.611 396.091 105.148 395.864 104.744C395.637 104.341 395.321 104.026 394.918 103.798C394.52 103.565 394.057 103.449 393.529 103.449C392.978 103.449 392.489 103.577 392.063 103.832C391.642 104.082 391.313 104.42 391.074 104.847C390.836 105.267 390.713 105.736 390.708 106.253V108.392C390.708 109.04 390.827 109.599 391.066 110.071C391.31 110.543 391.654 110.906 392.097 111.162C392.54 111.418 393.066 111.545 393.674 111.545C394.077 111.545 394.446 111.489 394.782 111.375C395.117 111.261 395.404 111.091 395.642 110.864C395.881 110.636 396.063 110.358 396.188 110.028L399.546 110.25C399.375 111.057 399.026 111.761 398.498 112.364C397.975 112.96 397.299 113.426 396.469 113.761C395.645 114.091 394.694 114.256 393.614 114.256ZM413.845 100.909L409.268 114H405.177L400.6 100.909H404.436L407.154 110.276H407.291L410.001 100.909H413.845ZM421.247 114.256C419.9 114.256 418.741 113.983 417.77 113.438C416.804 112.886 416.059 112.108 415.537 111.102C415.014 110.091 414.752 108.895 414.752 107.514C414.752 106.168 415.014 104.986 415.537 103.969C416.059 102.952 416.795 102.159 417.744 101.591C418.699 101.023 419.818 100.739 421.102 100.739C421.966 100.739 422.77 100.878 423.514 101.156C424.264 101.429 424.917 101.841 425.474 102.392C426.037 102.943 426.474 103.636 426.787 104.472C427.099 105.301 427.255 106.273 427.255 107.386V108.384H416.201V106.134H423.838C423.838 105.611 423.724 105.148 423.497 104.744C423.27 104.341 422.954 104.026 422.551 103.798C422.153 103.565 421.69 103.449 421.162 103.449C420.61 103.449 420.122 103.577 419.696 103.832C419.275 104.082 418.946 104.42 418.707 104.847C418.468 105.267 418.346 105.736 418.341 106.253V108.392C418.341 109.04 418.46 109.599 418.699 110.071C418.943 110.543 419.287 110.906 419.73 111.162C420.173 111.418 420.699 111.545 421.306 111.545C421.71 111.545 422.079 111.489 422.414 111.375C422.75 111.261 423.037 111.091 423.275 110.864C423.514 110.636 423.696 110.358 423.821 110.028L427.179 110.25C427.008 111.057 426.659 111.761 426.13 112.364C425.608 112.96 424.931 113.426 424.102 113.761C423.278 114.091 422.326 114.256 421.247 114.256ZM429.625 114V100.909H433.145V103.193H433.281C433.52 102.381 433.92 101.767 434.483 101.352C435.045 100.932 435.693 100.722 436.426 100.722C436.608 100.722 436.804 100.733 437.014 100.756C437.224 100.778 437.409 100.81 437.568 100.849V104.071C437.397 104.02 437.162 103.974 436.86 103.935C436.559 103.895 436.284 103.875 436.034 103.875C435.5 103.875 435.022 103.991 434.602 104.224C434.187 104.452 433.858 104.77 433.613 105.179C433.375 105.588 433.255 106.06 433.255 106.594V114H429.625ZM447.582 114L444.02 100.909H447.693L449.721 109.705H449.841L451.954 100.909H455.559L457.707 109.653H457.818L459.812 100.909H463.477L459.923 114H456.079L453.829 105.767H453.667L451.417 114H447.582ZM465.414 114V100.909H469.044V114H465.414ZM467.238 99.2216C466.698 99.2216 466.235 99.0426 465.848 98.6847C465.468 98.321 465.277 97.8864 465.277 97.3807C465.277 96.8807 465.468 96.4517 465.848 96.0938C466.235 95.7301 466.698 95.5483 467.238 95.5483C467.777 95.5483 468.238 95.7301 468.618 96.0938C469.005 96.4517 469.198 96.8807 469.198 97.3807C469.198 97.8864 469.005 98.321 468.618 98.6847C468.238 99.0426 467.777 99.2216 467.238 99.2216ZM475.583 96.5455V114H471.953V96.5455H475.583ZM482.123 96.5455V114H478.492V96.5455H482.123ZM487.153 114.222C486.591 114.222 486.108 114.023 485.704 113.625C485.306 113.222 485.108 112.739 485.108 112.176C485.108 111.619 485.306 111.142 485.704 110.744C486.108 110.347 486.591 110.148 487.153 110.148C487.699 110.148 488.176 110.347 488.585 110.744C488.994 111.142 489.199 111.619 489.199 112.176C489.199 112.551 489.102 112.895 488.909 113.207C488.721 113.514 488.474 113.761 488.167 113.949C487.86 114.131 487.522 114.222 487.153 114.222ZM500.672 96.5455V114H496.982V96.5455H500.672ZM510.603 100.909V103.636H502.72V100.909H510.603ZM504.51 97.7727H508.14V109.977C508.14 110.312 508.191 110.574 508.294 110.761C508.396 110.943 508.538 111.071 508.72 111.145C508.907 111.219 509.123 111.256 509.368 111.256C509.538 111.256 509.708 111.241 509.879 111.213C510.049 111.179 510.18 111.153 510.271 111.136L510.842 113.838C510.66 113.895 510.404 113.96 510.075 114.034C509.745 114.114 509.345 114.162 508.873 114.179C507.998 114.213 507.231 114.097 506.572 113.83C505.919 113.562 505.41 113.148 505.047 112.585C504.683 112.023 504.504 111.312 504.51 110.455V97.7727ZM516.597 96.5455V98.3864C516.597 98.9091 516.495 99.4432 516.29 99.9886C516.091 100.528 515.824 101.04 515.489 101.523C515.154 102 514.787 102.406 514.39 102.741L512.787 101.795C513.071 101.347 513.321 100.849 513.537 100.304C513.759 99.7585 513.87 99.125 513.87 98.4034V96.5455H516.597ZM528.267 104.642L524.943 104.847C524.886 104.562 524.764 104.307 524.576 104.08C524.389 103.847 524.142 103.662 523.835 103.526C523.534 103.384 523.173 103.312 522.752 103.312C522.19 103.312 521.716 103.432 521.329 103.67C520.943 103.903 520.75 104.216 520.75 104.608C520.75 104.92 520.875 105.185 521.125 105.401C521.375 105.616 521.804 105.79 522.412 105.92L524.781 106.398C526.054 106.659 527.002 107.08 527.627 107.659C528.252 108.239 528.565 109 528.565 109.943C528.565 110.801 528.312 111.554 527.806 112.202C527.306 112.849 526.619 113.355 525.744 113.719C524.875 114.077 523.872 114.256 522.735 114.256C521.002 114.256 519.622 113.895 518.593 113.173C517.571 112.446 516.971 111.457 516.795 110.207L520.366 110.02C520.474 110.548 520.735 110.952 521.15 111.23C521.565 111.503 522.096 111.639 522.744 111.639C523.38 111.639 523.892 111.517 524.278 111.273C524.67 111.023 524.869 110.702 524.875 110.31C524.869 109.98 524.73 109.71 524.457 109.5C524.184 109.284 523.764 109.119 523.196 109.006L520.929 108.554C519.65 108.298 518.699 107.855 518.074 107.224C517.454 106.594 517.145 105.79 517.145 104.812C517.145 103.972 517.372 103.247 517.826 102.639C518.287 102.031 518.931 101.562 519.761 101.233C520.596 100.903 521.574 100.739 522.693 100.739C524.346 100.739 525.647 101.088 526.596 101.787C527.551 102.486 528.108 103.437 528.267 104.642ZM536.406 114V100.909H540.037V114H536.406ZM538.23 99.2216C537.69 99.2216 537.227 99.0426 536.841 98.6847C536.46 98.321 536.27 97.8864 536.27 97.3807C536.27 96.8807 536.46 96.4517 536.841 96.0938C537.227 95.7301 537.69 95.5483 538.23 95.5483C538.77 95.5483 539.23 95.7301 539.61 96.0938C539.997 96.4517 540.19 96.8807 540.19 97.3807C540.19 97.8864 539.997 98.321 539.61 98.6847C539.23 99.0426 538.77 99.2216 538.23 99.2216ZM546.576 106.432V114H542.945V100.909H546.405V103.219H546.559C546.848 102.457 547.334 101.855 548.016 101.412C548.698 100.963 549.525 100.739 550.496 100.739C551.405 100.739 552.198 100.938 552.874 101.335C553.55 101.733 554.076 102.301 554.451 103.04C554.826 103.773 555.013 104.648 555.013 105.665V114H551.382V106.312C551.388 105.511 551.184 104.886 550.769 104.438C550.354 103.983 549.783 103.756 549.056 103.756C548.567 103.756 548.135 103.861 547.76 104.071C547.391 104.281 547.101 104.588 546.891 104.991C546.686 105.389 546.581 105.869 546.576 106.432ZM563.429 114V100.909H566.89V103.219H567.043C567.316 102.452 567.77 101.847 568.407 101.403C569.043 100.96 569.804 100.739 570.691 100.739C571.588 100.739 572.353 100.963 572.983 101.412C573.614 101.855 574.034 102.457 574.245 103.219H574.381C574.648 102.469 575.131 101.869 575.83 101.42C576.534 100.966 577.367 100.739 578.327 100.739C579.549 100.739 580.54 101.128 581.301 101.906C582.069 102.679 582.452 103.776 582.452 105.196V114H578.83V105.912C578.83 105.185 578.637 104.639 578.25 104.276C577.864 103.912 577.381 103.73 576.801 103.73C576.142 103.73 575.628 103.94 575.259 104.361C574.89 104.776 574.705 105.324 574.705 106.006V114H571.185V105.835C571.185 105.193 571 104.682 570.631 104.301C570.267 103.92 569.787 103.73 569.191 103.73C568.787 103.73 568.424 103.832 568.1 104.037C567.782 104.236 567.529 104.517 567.341 104.881C567.154 105.239 567.06 105.659 567.06 106.142V114H563.429ZM587.093 118.909C586.632 118.909 586.201 118.872 585.797 118.798C585.4 118.73 585.07 118.642 584.809 118.534L585.627 115.824C586.053 115.955 586.436 116.026 586.777 116.037C587.124 116.048 587.422 115.969 587.672 115.798C587.928 115.628 588.135 115.338 588.294 114.929L588.507 114.375L583.811 100.909H587.63L590.34 110.523H590.476L593.212 100.909H597.056L591.968 115.415C591.723 116.119 591.391 116.733 590.971 117.256C590.556 117.784 590.03 118.19 589.394 118.474C588.757 118.764 587.99 118.909 587.093 118.909ZM604.537 114V96.5455H608.167V103.108H608.278C608.437 102.756 608.667 102.398 608.968 102.034C609.275 101.665 609.673 101.358 610.162 101.114C610.656 100.864 611.27 100.739 612.002 100.739C612.957 100.739 613.838 100.989 614.645 101.489C615.451 101.983 616.096 102.73 616.579 103.73C617.062 104.724 617.304 105.972 617.304 107.472C617.304 108.932 617.068 110.165 616.596 111.17C616.13 112.17 615.494 112.929 614.687 113.446C613.886 113.957 612.988 114.213 611.994 114.213C611.289 114.213 610.69 114.097 610.196 113.864C609.707 113.631 609.306 113.338 608.994 112.986C608.681 112.628 608.443 112.267 608.278 111.903H608.116V114H604.537ZM608.091 107.455C608.091 108.233 608.199 108.912 608.414 109.491C608.63 110.071 608.943 110.523 609.352 110.847C609.761 111.165 610.258 111.324 610.843 111.324C611.434 111.324 611.934 111.162 612.343 110.838C612.752 110.509 613.062 110.054 613.272 109.474C613.488 108.889 613.596 108.216 613.596 107.455C613.596 106.699 613.491 106.034 613.281 105.46C613.071 104.886 612.761 104.437 612.352 104.114C611.943 103.79 611.44 103.628 610.843 103.628C610.252 103.628 609.752 103.784 609.343 104.097C608.94 104.409 608.63 104.852 608.414 105.426C608.199 106 608.091 106.676 608.091 107.455ZM623.357 96.5455V114H619.726V96.5455H623.357ZM632.18 114.256C630.856 114.256 629.711 113.974 628.745 113.412C627.785 112.844 627.044 112.054 626.521 111.043C625.998 110.026 625.737 108.847 625.737 107.506C625.737 106.153 625.998 104.972 626.521 103.96C627.044 102.943 627.785 102.153 628.745 101.591C629.711 101.023 630.856 100.739 632.18 100.739C633.504 100.739 634.646 101.023 635.606 101.591C636.572 102.153 637.316 102.943 637.839 103.96C638.362 104.972 638.623 106.153 638.623 107.506C638.623 108.847 638.362 110.026 637.839 111.043C637.316 112.054 636.572 112.844 635.606 113.412C634.646 113.974 633.504 114.256 632.18 114.256ZM632.197 111.443C632.799 111.443 633.302 111.273 633.706 110.932C634.109 110.585 634.413 110.114 634.618 109.517C634.828 108.92 634.933 108.241 634.933 107.48C634.933 106.719 634.828 106.04 634.618 105.443C634.413 104.847 634.109 104.375 633.706 104.028C633.302 103.682 632.799 103.509 632.197 103.509C631.589 103.509 631.078 103.682 630.663 104.028C630.254 104.375 629.944 104.847 629.734 105.443C629.529 106.04 629.427 106.719 629.427 107.48C629.427 108.241 629.529 108.92 629.734 109.517C629.944 110.114 630.254 110.585 630.663 110.932C631.078 111.273 631.589 111.443 632.197 111.443ZM646.899 114.256C645.575 114.256 644.43 113.974 643.464 113.412C642.504 112.844 641.762 112.054 641.24 111.043C640.717 110.026 640.456 108.847 640.456 107.506C640.456 106.153 640.717 104.972 641.24 103.96C641.762 102.943 642.504 102.153 643.464 101.591C644.43 101.023 645.575 100.739 646.899 100.739C648.223 100.739 649.365 101.023 650.325 101.591C651.291 102.153 652.035 102.943 652.558 103.96C653.081 104.972 653.342 106.153 653.342 107.506C653.342 108.847 653.081 110.026 652.558 111.043C652.035 112.054 651.291 112.844 650.325 113.412C649.365 113.974 648.223 114.256 646.899 114.256ZM646.916 111.443C647.518 111.443 648.021 111.273 648.424 110.932C648.828 110.585 649.132 110.114 649.336 109.517C649.547 108.92 649.652 108.241 649.652 107.48C649.652 106.719 649.547 106.04 649.336 105.443C649.132 104.847 648.828 104.375 648.424 104.028C648.021 103.682 647.518 103.509 646.916 103.509C646.308 103.509 645.797 103.682 645.382 104.028C644.973 104.375 644.663 104.847 644.453 105.443C644.248 106.04 644.146 106.719 644.146 107.48C644.146 108.241 644.248 108.92 644.453 109.517C644.663 110.114 644.973 110.585 645.382 110.932C645.797 111.273 646.308 111.443 646.916 111.443ZM660.527 114.213C659.532 114.213 658.632 113.957 657.825 113.446C657.024 112.929 656.387 112.17 655.916 111.17C655.45 110.165 655.217 108.932 655.217 107.472C655.217 105.972 655.458 104.724 655.941 103.73C656.424 102.73 657.066 101.983 657.868 101.489C658.674 100.989 659.558 100.739 660.518 100.739C661.251 100.739 661.862 100.864 662.35 101.114C662.845 101.358 663.243 101.665 663.544 102.034C663.85 102.398 664.083 102.756 664.243 103.108H664.353V96.5455H667.975V114H664.396V111.903H664.243C664.072 112.267 663.831 112.628 663.518 112.986C663.211 113.338 662.811 113.631 662.316 113.864C661.828 114.097 661.231 114.213 660.527 114.213ZM661.677 111.324C662.262 111.324 662.757 111.165 663.16 110.847C663.569 110.523 663.882 110.071 664.098 109.491C664.319 108.912 664.43 108.233 664.43 107.455C664.43 106.676 664.322 106 664.106 105.426C663.89 104.852 663.578 104.409 663.169 104.097C662.76 103.784 662.262 103.628 661.677 103.628C661.081 103.628 660.578 103.79 660.169 104.114C659.76 104.437 659.45 104.886 659.24 105.46C659.029 106.034 658.924 106.699 658.924 107.455C658.924 108.216 659.029 108.889 659.24 109.474C659.456 110.054 659.765 110.509 660.169 110.838C660.578 111.162 661.081 111.324 661.677 111.324ZM673.083 114.222C672.52 114.222 672.037 114.023 671.634 113.625C671.236 113.222 671.037 112.739 671.037 112.176C671.037 111.619 671.236 111.142 671.634 110.744C672.037 110.347 672.52 110.148 673.083 110.148C673.628 110.148 674.105 110.347 674.515 110.744C674.924 111.142 675.128 111.619 675.128 112.176C675.128 112.551 675.032 112.895 674.838 113.207C674.651 113.514 674.404 113.761 674.097 113.949C673.79 114.131 673.452 114.222 673.083 114.222ZM678.761 96.5455V98.3864C678.761 98.9091 678.659 99.4432 678.454 99.9886C678.255 100.528 677.988 101.04 677.653 101.523C677.318 102 676.951 102.406 676.554 102.741L674.951 101.795C675.235 101.347 675.485 100.849 675.701 100.304C675.923 99.7585 676.034 99.125 676.034 98.4034V96.5455H678.761ZM683.048 96.5455V98.3864C683.048 98.9091 682.946 99.4432 682.741 99.9886C682.542 100.528 682.275 101.04 681.94 101.523C681.605 102 681.235 102.406 680.832 102.741L679.23 101.795C679.52 101.347 679.772 100.849 679.988 100.304C680.21 99.7585 680.321 99.125 680.321 98.4034V96.5455H683.048ZM699.531 103.832V106.713H691.571V103.832H699.531ZM708.248 114V96.5455H711.938V110.957H719.421V114H708.248ZM727.762 114.256C726.416 114.256 725.257 113.983 724.285 113.438C723.319 112.886 722.575 112.108 722.052 111.102C721.529 110.091 721.268 108.895 721.268 107.514C721.268 106.168 721.529 104.986 722.052 103.969C722.575 102.952 723.311 102.159 724.26 101.591C725.214 101.023 726.333 100.739 727.618 100.739C728.481 100.739 729.285 100.878 730.029 101.156C730.779 101.429 731.433 101.841 731.99 102.392C732.552 102.943 732.99 103.636 733.302 104.472C733.615 105.301 733.771 106.273 733.771 107.386V108.384H722.717V106.134H730.353C730.353 105.611 730.24 105.148 730.012 104.744C729.785 104.341 729.47 104.026 729.066 103.798C728.669 103.565 728.206 103.449 727.677 103.449C727.126 103.449 726.637 103.577 726.211 103.832C725.791 104.082 725.461 104.42 725.223 104.847C724.984 105.267 724.862 105.736 724.856 106.253V108.392C724.856 109.04 724.975 109.599 725.214 110.071C725.458 110.543 725.802 110.906 726.245 111.162C726.689 111.418 727.214 111.545 727.822 111.545C728.225 111.545 728.595 111.489 728.93 111.375C729.265 111.261 729.552 111.091 729.791 110.864C730.029 110.636 730.211 110.358 730.336 110.028L733.694 110.25C733.524 111.057 733.174 111.761 732.646 112.364C732.123 112.96 731.447 113.426 730.618 113.761C729.794 114.091 728.842 114.256 727.762 114.256ZM738.629 114L735.066 100.909H738.74L740.768 109.705H740.887L743.001 100.909H746.606L748.754 109.653H748.865L750.859 100.909H754.524L750.97 114H747.126L744.876 105.767H744.714L742.464 114H738.629ZM756.461 114V100.909H760.091V114H756.461ZM758.284 99.2216C757.745 99.2216 757.282 99.0426 756.895 98.6847C756.515 98.321 756.324 97.8864 756.324 97.3807C756.324 96.8807 756.515 96.4517 756.895 96.0938C757.282 95.7301 757.745 95.5483 758.284 95.5483C758.824 95.5483 759.284 95.7301 759.665 96.0938C760.051 96.4517 760.245 96.8807 760.245 97.3807C760.245 97.8864 760.051 98.321 759.665 98.6847C759.284 99.0426 758.824 99.2216 758.284 99.2216ZM773.892 104.642L770.568 104.847C770.511 104.562 770.389 104.307 770.201 104.08C770.014 103.847 769.767 103.662 769.46 103.526C769.159 103.384 768.798 103.312 768.377 103.312C767.815 103.312 767.341 103.432 766.954 103.67C766.568 103.903 766.375 104.216 766.375 104.608C766.375 104.92 766.5 105.185 766.75 105.401C767 105.616 767.429 105.79 768.037 105.92L770.406 106.398C771.679 106.659 772.627 107.08 773.252 107.659C773.877 108.239 774.19 109 774.19 109.943C774.19 110.801 773.937 111.554 773.431 112.202C772.931 112.849 772.244 113.355 771.369 113.719C770.5 114.077 769.497 114.256 768.36 114.256C766.627 114.256 765.247 113.895 764.218 113.173C763.196 112.446 762.596 111.457 762.42 110.207L765.991 110.02C766.099 110.548 766.36 110.952 766.775 111.23C767.19 111.503 767.721 111.639 768.369 111.639C769.005 111.639 769.517 111.517 769.903 111.273C770.295 111.023 770.494 110.702 770.5 110.31C770.494 109.98 770.355 109.71 770.082 109.5C769.809 109.284 769.389 109.119 768.821 109.006L766.554 108.554C765.275 108.298 764.324 107.855 763.699 107.224C763.079 106.594 762.77 105.79 762.77 104.812C762.77 103.972 762.997 103.247 763.451 102.639C763.912 102.031 764.556 101.562 765.386 101.233C766.221 100.903 767.199 100.739 768.318 100.739C769.971 100.739 771.272 101.088 772.221 101.787C773.176 102.486 773.733 103.437 773.892 104.642ZM782.099 114V96.5455H785.789V103.747H793.281V96.5455H796.963V114H793.281V106.79H785.789V114H782.099ZM803.67 114.247C802.835 114.247 802.091 114.102 801.437 113.812C800.784 113.517 800.267 113.082 799.886 112.509C799.511 111.929 799.324 111.207 799.324 110.344C799.324 109.616 799.457 109.006 799.724 108.511C799.991 108.017 800.355 107.619 800.815 107.318C801.275 107.017 801.798 106.79 802.383 106.636C802.974 106.483 803.593 106.375 804.241 106.312C805.002 106.233 805.616 106.159 806.082 106.091C806.548 106.017 806.886 105.909 807.096 105.767C807.306 105.625 807.412 105.415 807.412 105.136V105.085C807.412 104.545 807.241 104.128 806.9 103.832C806.565 103.537 806.088 103.389 805.468 103.389C804.815 103.389 804.295 103.534 803.909 103.824C803.522 104.108 803.267 104.466 803.142 104.898L799.784 104.625C799.954 103.83 800.289 103.142 800.789 102.562C801.289 101.977 801.934 101.528 802.724 101.216C803.52 100.898 804.44 100.739 805.485 100.739C806.213 100.739 806.909 100.824 807.574 100.994C808.244 101.165 808.838 101.429 809.355 101.787C809.877 102.145 810.289 102.605 810.591 103.168C810.892 103.724 811.042 104.392 811.042 105.17V114H807.599V112.185H807.497C807.287 112.594 807.005 112.955 806.653 113.267C806.301 113.574 805.877 113.815 805.383 113.991C804.889 114.162 804.318 114.247 803.67 114.247ZM804.71 111.741C805.244 111.741 805.716 111.636 806.125 111.426C806.534 111.21 806.855 110.92 807.088 110.557C807.321 110.193 807.437 109.781 807.437 109.321V107.932C807.324 108.006 807.167 108.074 806.968 108.136C806.775 108.193 806.556 108.247 806.312 108.298C806.068 108.344 805.824 108.386 805.579 108.426C805.335 108.46 805.113 108.491 804.914 108.52C804.488 108.582 804.116 108.682 803.798 108.818C803.48 108.955 803.233 109.139 803.056 109.372C802.88 109.599 802.792 109.884 802.792 110.224C802.792 110.719 802.971 111.097 803.329 111.358C803.693 111.614 804.153 111.741 804.71 111.741ZM813.859 114V100.909H817.319V103.219H817.473C817.745 102.452 818.2 101.847 818.836 101.403C819.473 100.96 820.234 100.739 821.12 100.739C822.018 100.739 822.782 100.963 823.413 101.412C824.044 101.855 824.464 102.457 824.674 103.219H824.811C825.078 102.469 825.561 101.869 826.26 101.42C826.964 100.966 827.797 100.739 828.757 100.739C829.978 100.739 830.97 101.128 831.731 101.906C832.498 102.679 832.882 103.776 832.882 105.196V114H829.26V105.912C829.26 105.185 829.066 104.639 828.68 104.276C828.294 103.912 827.811 103.73 827.231 103.73C826.572 103.73 826.058 103.94 825.689 104.361C825.319 104.776 825.135 105.324 825.135 106.006V114H821.615V105.835C821.615 105.193 821.43 104.682 821.061 104.301C820.697 103.92 820.217 103.73 819.62 103.73C819.217 103.73 818.853 103.832 818.529 104.037C818.211 104.236 817.958 104.517 817.771 104.881C817.583 105.239 817.49 105.659 817.49 106.142V114H813.859ZM835.75 114V100.909H839.38V114H835.75ZM837.574 99.2216C837.034 99.2216 836.571 99.0426 836.184 98.6847C835.804 98.321 835.613 97.8864 835.613 97.3807C835.613 96.8807 835.804 96.4517 836.184 96.0938C836.571 95.7301 837.034 95.5483 837.574 95.5483C838.113 95.5483 838.574 95.7301 838.954 96.0938C839.341 96.4517 839.534 96.8807 839.534 97.3807C839.534 97.8864 839.341 98.321 838.954 98.6847C838.574 99.0426 838.113 99.2216 837.574 99.2216ZM845.919 96.5455V114H842.289V96.5455H845.919ZM855.791 100.909V103.636H847.907V100.909H855.791ZM849.697 97.7727H853.328V109.977C853.328 110.312 853.379 110.574 853.481 110.761C853.583 110.943 853.725 111.071 853.907 111.145C854.095 111.219 854.311 111.256 854.555 111.256C854.725 111.256 854.896 111.241 855.066 111.213C855.237 111.179 855.368 111.153 855.458 111.136L856.029 113.838C855.848 113.895 855.592 113.96 855.262 114.034C854.933 114.114 854.532 114.162 854.061 114.179C853.186 114.213 852.419 114.097 851.76 113.83C851.106 113.562 850.598 113.148 850.234 112.585C849.87 112.023 849.691 111.312 849.697 110.455V97.7727ZM863.93 114.256C862.606 114.256 861.461 113.974 860.495 113.412C859.535 112.844 858.794 112.054 858.271 111.043C857.748 110.026 857.487 108.847 857.487 107.506C857.487 106.153 857.748 104.972 858.271 103.96C858.794 102.943 859.535 102.153 860.495 101.591C861.461 101.023 862.606 100.739 863.93 100.739C865.254 100.739 866.396 101.023 867.356 101.591C868.322 102.153 869.066 102.943 869.589 103.96C870.112 104.972 870.373 106.153 870.373 107.506C870.373 108.847 870.112 110.026 869.589 111.043C869.066 112.054 868.322 112.844 867.356 113.412C866.396 113.974 865.254 114.256 863.93 114.256ZM863.947 111.443C864.549 111.443 865.052 111.273 865.456 110.932C865.859 110.585 866.163 110.114 866.368 109.517C866.578 108.92 866.683 108.241 866.683 107.48C866.683 106.719 866.578 106.04 866.368 105.443C866.163 104.847 865.859 104.375 865.456 104.028C865.052 103.682 864.549 103.509 863.947 103.509C863.339 103.509 862.828 103.682 862.413 104.028C862.004 104.375 861.694 104.847 861.484 105.443C861.279 106.04 861.177 106.719 861.177 107.48C861.177 108.241 861.279 108.92 861.484 109.517C861.694 110.114 862.004 110.585 862.413 110.932C862.828 111.273 863.339 111.443 863.947 111.443ZM876.365 106.432V114H872.734V100.909H876.194V103.219H876.348C876.637 102.457 877.123 101.855 877.805 101.412C878.487 100.963 879.314 100.739 880.285 100.739C881.194 100.739 881.987 100.938 882.663 101.335C883.339 101.733 883.865 102.301 884.24 103.04C884.615 103.773 884.802 104.648 884.802 105.665V114H881.172V106.312C881.177 105.511 880.973 104.886 880.558 104.438C880.143 103.983 879.572 103.756 878.845 103.756C878.356 103.756 877.924 103.861 877.549 104.071C877.18 104.281 876.89 104.588 876.68 104.991C876.475 105.389 876.37 105.869 876.365 106.432Z" fill="#B39DDB"/>
<path d="M378.632 57V33.7273H394.041V37.7841H383.553V43.3295H393.018V47.3864H383.553V57H378.632ZM402.018 57.3295C400.905 57.3295 399.912 57.1364 399.041 56.75C398.17 56.3561 397.481 55.7765 396.973 55.0114C396.473 54.2386 396.223 53.2765 396.223 52.125C396.223 51.1553 396.401 50.3409 396.757 49.6818C397.113 49.0227 397.598 48.4924 398.212 48.0909C398.825 47.6894 399.522 47.3864 400.303 47.1818C401.09 46.9773 401.916 46.8333 402.78 46.75C403.795 46.6439 404.613 46.5455 405.234 46.4545C405.856 46.3561 406.306 46.2121 406.587 46.0227C406.867 45.8333 407.007 45.553 407.007 45.1818V45.1136C407.007 44.3939 406.78 43.8371 406.325 43.4432C405.878 43.0492 405.242 42.8523 404.416 42.8523C403.545 42.8523 402.852 43.0455 402.337 43.4318C401.821 43.8106 401.481 44.2879 401.314 44.8636L396.837 44.5C397.064 43.4394 397.511 42.5227 398.178 41.75C398.844 40.9697 399.704 40.3712 400.757 39.9545C401.818 39.5303 403.045 39.3182 404.439 39.3182C405.409 39.3182 406.337 39.4318 407.223 39.6591C408.117 39.8864 408.909 40.2386 409.598 40.7159C410.295 41.1932 410.844 41.8068 411.246 42.5568C411.647 43.2992 411.848 44.1894 411.848 45.2273V57H407.257V54.5795H407.121C406.84 55.125 406.465 55.6061 405.996 56.0227C405.526 56.4318 404.962 56.7538 404.303 56.9886C403.643 57.2159 402.882 57.3295 402.018 57.3295ZM403.405 53.9886C404.117 53.9886 404.746 53.8485 405.291 53.5682C405.837 53.2803 406.265 52.8939 406.575 52.4091C406.886 51.9242 407.041 51.375 407.041 50.7614V48.9091C406.89 49.0076 406.681 49.0985 406.416 49.1818C406.159 49.2576 405.867 49.3295 405.541 49.3977C405.215 49.4583 404.89 49.5152 404.564 49.5682C404.238 49.6136 403.943 49.6553 403.678 49.6932C403.109 49.7765 402.613 49.9091 402.189 50.0909C401.765 50.2727 401.435 50.5189 401.2 50.8295C400.965 51.1326 400.848 51.5114 400.848 51.9659C400.848 52.625 401.087 53.1288 401.564 53.4773C402.049 53.8182 402.662 53.9886 403.405 53.9886ZM431.251 39.5455L425.149 57H419.695L413.592 39.5455H418.706L422.331 52.0341H422.513L426.126 39.5455H431.251ZM441.053 57.3409C439.287 57.3409 437.761 56.9659 436.473 56.2159C435.193 55.4583 434.204 54.4053 433.507 53.0568C432.81 51.7008 432.462 50.1288 432.462 48.3409C432.462 46.5379 432.81 44.9621 433.507 43.6136C434.204 42.2576 435.193 41.2045 436.473 40.4545C437.761 39.697 439.287 39.3182 441.053 39.3182C442.818 39.3182 444.34 39.697 445.621 40.4545C446.909 41.2045 447.901 42.2576 448.598 43.6136C449.295 44.9621 449.643 46.5379 449.643 48.3409C449.643 50.1288 449.295 51.7008 448.598 53.0568C447.901 54.4053 446.909 55.4583 445.621 56.2159C444.34 56.9659 442.818 57.3409 441.053 57.3409ZM441.075 53.5909C441.878 53.5909 442.549 53.3636 443.087 52.9091C443.625 52.447 444.03 51.8182 444.303 51.0227C444.583 50.2273 444.723 49.322 444.723 48.3068C444.723 47.2917 444.583 46.3864 444.303 45.5909C444.03 44.7955 443.625 44.1667 443.087 43.7045C442.549 43.2424 441.878 43.0114 441.075 43.0114C440.265 43.0114 439.583 43.2424 439.03 43.7045C438.484 44.1667 438.071 44.7955 437.791 45.5909C437.518 46.3864 437.382 47.2917 437.382 48.3068C437.382 49.322 437.518 50.2273 437.791 51.0227C438.071 51.8182 438.484 52.447 439.03 52.9091C439.583 53.3636 440.265 53.5909 441.075 53.5909ZM452.791 57V39.5455H457.484V42.5909H457.666C457.984 41.5076 458.518 40.6894 459.268 40.1364C460.018 39.5758 460.882 39.2955 461.859 39.2955C462.102 39.2955 462.363 39.3106 462.643 39.3409C462.924 39.3712 463.17 39.4129 463.382 39.4659V43.7614C463.155 43.6932 462.84 43.6326 462.439 43.5795C462.037 43.5265 461.67 43.5 461.337 43.5C460.625 43.5 459.988 43.6553 459.428 43.9659C458.875 44.2689 458.435 44.6932 458.109 45.2386C457.791 45.7841 457.632 46.4129 457.632 47.125V57H452.791ZM465.885 57V39.5455H470.726V57H465.885ZM468.317 37.2955C467.597 37.2955 466.98 37.0568 466.464 36.5795C465.957 36.0947 465.703 35.5152 465.703 34.8409C465.703 34.1742 465.957 33.6023 466.464 33.125C466.98 32.6402 467.597 32.3977 468.317 32.3977C469.036 32.3977 469.65 32.6402 470.158 33.125C470.673 33.6023 470.93 34.1742 470.93 34.8409C470.93 35.5152 470.673 36.0947 470.158 36.5795C469.65 37.0568 469.036 37.2955 468.317 37.2955ZM483.888 39.5455V43.1818H473.376V39.5455H483.888ZM475.763 35.3636H480.604V51.6364C480.604 52.0833 480.672 52.4318 480.808 52.6818C480.945 52.9242 481.134 53.0947 481.376 53.1932C481.626 53.2917 481.914 53.3409 482.24 53.3409C482.467 53.3409 482.695 53.322 482.922 53.2841C483.149 53.2386 483.323 53.2045 483.445 53.1818L484.206 56.7841C483.964 56.8598 483.623 56.947 483.183 57.0455C482.744 57.1515 482.21 57.2159 481.581 57.2386C480.414 57.2841 479.392 57.1288 478.513 56.7727C477.642 56.4167 476.964 55.8636 476.479 55.1136C475.994 54.3636 475.755 53.4167 475.763 52.2727V35.3636ZM494.808 57.3409C493.013 57.3409 491.467 56.9773 490.172 56.25C488.884 55.5152 487.892 54.4773 487.195 53.1364C486.498 51.7879 486.149 50.1932 486.149 48.3523C486.149 46.5568 486.498 44.9811 487.195 43.625C487.892 42.2689 488.873 41.2121 490.138 40.4545C491.411 39.697 492.903 39.3182 494.615 39.3182C495.767 39.3182 496.839 39.5038 497.831 39.875C498.831 40.2386 499.702 40.7879 500.445 41.5227C501.195 42.2576 501.778 43.1818 502.195 44.2955C502.611 45.4015 502.82 46.697 502.82 48.1818V49.5114H488.081V46.5114H498.263C498.263 45.8144 498.111 45.197 497.808 44.6591C497.505 44.1212 497.085 43.7008 496.547 43.3977C496.017 43.0871 495.399 42.9318 494.695 42.9318C493.96 42.9318 493.308 43.1023 492.74 43.4432C492.179 43.7765 491.74 44.2273 491.422 44.7955C491.104 45.3561 490.941 45.9811 490.933 46.6705V49.5227C490.933 50.3864 491.092 51.1326 491.411 51.7614C491.736 52.3902 492.195 52.875 492.786 53.2159C493.376 53.5568 494.077 53.7273 494.888 53.7273C495.426 53.7273 495.918 53.6515 496.365 53.5C496.812 53.3485 497.195 53.1212 497.513 52.8182C497.831 52.5152 498.073 52.1439 498.24 51.7045L502.717 52C502.49 53.0758 502.024 54.0152 501.32 54.8182C500.623 55.6136 499.721 56.2348 498.615 56.6818C497.517 57.1212 496.248 57.3409 494.808 57.3409ZM522.26 48.9091H526.442L528.544 51.6136L530.612 54.0227L534.51 58.9091H529.919L527.237 55.6136L525.862 53.6591L522.26 48.9091ZM534.862 45.3636C534.862 47.9015 534.381 50.0606 533.419 51.8409C532.464 53.6212 531.161 54.9811 529.51 55.9205C527.866 56.8523 526.018 57.3182 523.964 57.3182C521.896 57.3182 520.04 56.8485 518.396 55.9091C516.752 54.9697 515.453 53.6098 514.499 51.8295C513.544 50.0492 513.067 47.8939 513.067 45.3636C513.067 42.8258 513.544 40.6667 514.499 38.8864C515.453 37.1061 516.752 35.75 518.396 34.8182C520.04 33.8788 521.896 33.4091 523.964 33.4091C526.018 33.4091 527.866 33.8788 529.51 34.8182C531.161 35.75 532.464 37.1061 533.419 38.8864C534.381 40.6667 534.862 42.8258 534.862 45.3636ZM529.874 45.3636C529.874 43.7197 529.627 42.3333 529.135 41.2045C528.65 40.0758 527.964 39.2197 527.078 38.6364C526.192 38.053 525.154 37.7614 523.964 37.7614C522.775 37.7614 521.737 38.053 520.851 38.6364C519.964 39.2197 519.275 40.0758 518.783 41.2045C518.298 42.3333 518.055 43.7197 518.055 45.3636C518.055 47.0076 518.298 48.3939 518.783 49.5227C519.275 50.6515 519.964 51.5076 520.851 52.0909C521.737 52.6742 522.775 52.9659 523.964 52.9659C525.154 52.9659 526.192 52.6742 527.078 52.0909C527.964 51.5076 528.65 50.6515 529.135 49.5227C529.627 48.3939 529.874 47.0076 529.874 45.3636ZM549.609 49.5682V39.5455H554.45V57H549.803V53.8295H549.621C549.227 54.8523 548.571 55.6742 547.655 56.2955C546.746 56.9167 545.636 57.2273 544.325 57.2273C543.159 57.2273 542.132 56.9621 541.246 56.4318C540.359 55.9015 539.666 55.1477 539.166 54.1705C538.674 53.1932 538.424 52.0227 538.416 50.6591V39.5455H543.257V49.7955C543.265 50.8258 543.541 51.6402 544.087 52.2386C544.632 52.8371 545.363 53.1364 546.28 53.1364C546.863 53.1364 547.409 53.0038 547.916 52.7386C548.424 52.4659 548.833 52.0644 549.143 51.5341C549.462 51.0038 549.617 50.3485 549.609 49.5682ZM566.209 57.3409C564.444 57.3409 562.917 56.9659 561.629 56.2159C560.349 55.4583 559.36 54.4053 558.663 53.0568C557.966 51.7008 557.618 50.1288 557.618 48.3409C557.618 46.5379 557.966 44.9621 558.663 43.6136C559.36 42.2576 560.349 41.2045 561.629 40.4545C562.917 39.697 564.444 39.3182 566.209 39.3182C567.974 39.3182 569.497 39.697 570.777 40.4545C572.065 41.2045 573.057 42.2576 573.754 43.6136C574.451 44.9621 574.8 46.5379 574.8 48.3409C574.8 50.1288 574.451 51.7008 573.754 53.0568C573.057 54.4053 572.065 55.4583 570.777 56.2159C569.497 56.9659 567.974 57.3409 566.209 57.3409ZM566.232 53.5909C567.035 53.5909 567.705 53.3636 568.243 52.9091C568.781 52.447 569.186 51.8182 569.459 51.0227C569.739 50.2273 569.879 49.322 569.879 48.3068C569.879 47.2917 569.739 46.3864 569.459 45.5909C569.186 44.7955 568.781 44.1667 568.243 43.7045C567.705 43.2424 567.035 43.0114 566.232 43.0114C565.421 43.0114 564.739 43.2424 564.186 43.7045C563.641 44.1667 563.228 44.7955 562.947 45.5909C562.675 46.3864 562.538 47.2917 562.538 48.3068C562.538 49.322 562.675 50.2273 562.947 51.0227C563.228 51.8182 563.641 52.447 564.186 52.9091C564.739 53.3636 565.421 53.5909 566.232 53.5909ZM587.232 39.5455V43.1818H576.72V39.5455H587.232ZM579.107 35.3636H583.947V51.6364C583.947 52.0833 584.016 52.4318 584.152 52.6818C584.288 52.9242 584.478 53.0947 584.72 53.1932C584.97 53.2917 585.258 53.3409 585.584 53.3409C585.811 53.3409 586.038 53.322 586.266 53.2841C586.493 53.2386 586.667 53.2045 586.788 53.1818L587.55 56.7841C587.307 56.8598 586.966 56.947 586.527 57.0455C586.088 57.1515 585.554 57.2159 584.925 57.2386C583.758 57.2841 582.735 57.1288 581.857 56.7727C580.985 56.4167 580.307 55.8636 579.822 55.1136C579.338 54.3636 579.099 53.4167 579.107 52.2727V35.3636ZM598.152 57.3409C596.357 57.3409 594.811 56.9773 593.516 56.25C592.228 55.5152 591.235 54.4773 590.538 53.1364C589.841 51.7879 589.493 50.1932 589.493 48.3523C589.493 46.5568 589.841 44.9811 590.538 43.625C591.235 42.2689 592.216 41.2121 593.482 40.4545C594.754 39.697 596.247 39.3182 597.959 39.3182C599.11 39.3182 600.182 39.5038 601.175 39.875C602.175 40.2386 603.046 40.7879 603.788 41.5227C604.538 42.2576 605.122 43.1818 605.538 44.2955C605.955 45.4015 606.163 46.697 606.163 48.1818V49.5114H591.425V46.5114H601.607C601.607 45.8144 601.455 45.197 601.152 44.6591C600.849 44.1212 600.429 43.7008 599.891 43.3977C599.36 43.0871 598.743 42.9318 598.038 42.9318C597.304 42.9318 596.652 43.1023 596.084 43.4432C595.523 43.7765 595.084 44.2273 594.766 44.7955C594.447 45.3561 594.285 45.9811 594.277 46.6705V49.5227C594.277 50.3864 594.436 51.1326 594.754 51.7614C595.08 52.3902 595.538 52.875 596.129 53.2159C596.72 53.5568 597.421 53.7273 598.232 53.7273C598.769 53.7273 599.262 53.6515 599.709 53.5C600.156 53.3485 600.538 53.1212 600.857 52.8182C601.175 52.5152 601.417 52.1439 601.584 51.7045L606.061 52C605.834 53.0758 605.368 54.0152 604.663 54.8182C603.966 55.6136 603.065 56.2348 601.959 56.6818C600.86 57.1212 599.591 57.3409 598.152 57.3409Z" fill="white"/>
<path d="M332 41.9688C332 37.566 335.596 34 340.036 34H340.571C341.757 34 342.714 34.9496 342.714 36.125C342.714 37.3004 341.757 38.25 340.571 38.25H340.036C337.967 38.25 336.286 39.9168 336.286 41.9688V42.5H340.571C342.935 42.5 344.857 44.4059 344.857 46.75V51C344.857 53.3441 342.935 55.25 340.571 55.25H336.286C333.922 55.25 332 53.3441 332 51V48.875V46.75V41.9688ZM349.143 41.9688C349.143 37.566 352.739 34 357.179 34H357.714C358.9 34 359.857 34.9496 359.857 36.125C359.857 37.3004 358.9 38.25 357.714 38.25H357.179C355.109 38.25 353.429 39.9168 353.429 41.9688V42.5H357.714C360.078 42.5 362 44.4059 362 46.75V51C362 53.3441 360.078 55.25 357.714 55.25H353.429C351.065 55.25 349.143 53.3441 349.143 51V48.875V46.75V41.9688Z" fill="white"/>
</svg>
