<svg width="1350" height="200" viewBox="0 0 1350 200" fill="none" xmlns="http://www.w3.org/2000/svg">
<rect width="800" height="200" rx="20" fill="#303258"/>
<path d="M331.085 49V25.7273H346.494V29.7841H336.006V35.3295H345.472V39.3864H336.006V49H331.085ZM349.432 49V31.5455H354.125V34.5909H354.307C354.625 33.5076 355.159 32.6894 355.909 32.1364C356.659 31.5758 357.523 31.2955 358.5 31.2955C358.742 31.2955 359.004 31.3106 359.284 31.3409C359.564 31.3712 359.811 31.4129 360.023 31.4659V35.7614C359.795 35.6932 359.481 35.6326 359.08 35.5795C358.678 35.5265 358.311 35.5 357.977 35.5C357.265 35.5 356.629 35.6553 356.068 35.9659C355.515 36.2689 355.076 36.6932 354.75 37.2386C354.432 37.7841 354.273 38.4129 354.273 39.125V49H349.432ZM369.599 49.3409C367.834 49.3409 366.308 48.9659 365.02 48.2159C363.74 47.4583 362.751 46.4053 362.054 45.0568C361.357 43.7008 361.009 42.1288 361.009 40.3409C361.009 38.5379 361.357 36.9621 362.054 35.6136C362.751 34.2576 363.74 33.2045 365.02 32.4545C366.308 31.697 367.834 31.3182 369.599 31.3182C371.365 31.3182 372.887 31.697 374.168 32.4545C375.455 33.2045 376.448 34.2576 377.145 35.6136C377.842 36.9621 378.19 38.5379 378.19 40.3409C378.19 42.1288 377.842 43.7008 377.145 45.0568C376.448 46.4053 375.455 47.4583 374.168 48.2159C372.887 48.9659 371.365 49.3409 369.599 49.3409ZM369.622 45.5909C370.425 45.5909 371.096 45.3636 371.634 44.9091C372.171 44.447 372.577 43.8182 372.849 43.0227C373.13 42.2273 373.27 41.322 373.27 40.3068C373.27 39.2917 373.13 38.3864 372.849 37.5909C372.577 36.7955 372.171 36.1667 371.634 35.7045C371.096 35.2424 370.425 35.0114 369.622 35.0114C368.812 35.0114 368.13 35.2424 367.577 35.7045C367.031 36.1667 366.618 36.7955 366.338 37.5909C366.065 38.3864 365.929 39.2917 365.929 40.3068C365.929 41.322 366.065 42.2273 366.338 43.0227C366.618 43.8182 367.031 44.447 367.577 44.9091C368.13 45.3636 368.812 45.5909 369.622 45.5909ZM386.179 38.9091V49H381.338V31.5455H385.952V34.625H386.156C386.543 33.6098 387.19 32.8068 388.099 32.2159C389.009 31.6174 390.111 31.3182 391.406 31.3182C392.618 31.3182 393.675 31.5833 394.577 32.1136C395.478 32.6439 396.179 33.4015 396.679 34.3864C397.179 35.3636 397.429 36.5303 397.429 37.8864V49H392.588V38.75C392.596 37.6818 392.323 36.8485 391.77 36.25C391.217 35.6439 390.455 35.3409 389.486 35.3409C388.834 35.3409 388.259 35.4811 387.759 35.7614C387.266 36.0417 386.88 36.4508 386.599 36.9886C386.327 37.5189 386.187 38.1591 386.179 38.9091ZM410.528 31.5455V35.1818H400.017V31.5455H410.528ZM402.403 27.3636H407.244V43.6364C407.244 44.0833 407.313 44.4318 407.449 44.6818C407.585 44.9242 407.775 45.0947 408.017 45.1932C408.267 45.2917 408.555 45.3409 408.881 45.3409C409.108 45.3409 409.335 45.322 409.562 45.2841C409.79 45.2386 409.964 45.2045 410.085 45.1818L410.847 48.7841C410.604 48.8598 410.263 48.947 409.824 49.0455C409.384 49.1515 408.85 49.2159 408.222 49.2386C407.055 49.2841 406.032 49.1288 405.153 48.7727C404.282 48.4167 403.604 47.8636 403.119 47.1136C402.634 46.3636 402.396 45.4167 402.403 44.2727V27.3636ZM421.449 49.3409C419.653 49.3409 418.108 48.9773 416.812 48.25C415.525 47.5152 414.532 46.4773 413.835 45.1364C413.138 43.7879 412.79 42.1932 412.79 40.3523C412.79 38.5568 413.138 36.9811 413.835 35.625C414.532 34.2689 415.513 33.2121 416.778 32.4545C418.051 31.697 419.544 31.3182 421.256 31.3182C422.407 31.3182 423.479 31.5038 424.472 31.875C425.472 32.2386 426.343 32.7879 427.085 33.5227C427.835 34.2576 428.419 35.1818 428.835 36.2955C429.252 37.4015 429.46 38.697 429.46 40.1818V41.5114H414.722V38.5114H424.903C424.903 37.8144 424.752 37.197 424.449 36.6591C424.146 36.1212 423.725 35.7008 423.188 35.3977C422.657 35.0871 422.04 34.9318 421.335 34.9318C420.6 34.9318 419.949 35.1023 419.381 35.4432C418.82 35.7765 418.381 36.2273 418.062 36.7955C417.744 37.3561 417.581 37.9811 417.574 38.6705V41.5227C417.574 42.3864 417.733 43.1326 418.051 43.7614C418.377 44.3902 418.835 44.875 419.426 45.2159C420.017 45.5568 420.718 45.7273 421.528 45.7273C422.066 45.7273 422.559 45.6515 423.006 45.5C423.453 45.3485 423.835 45.1212 424.153 44.8182C424.472 44.5152 424.714 44.1439 424.881 43.7045L429.358 44C429.131 45.0758 428.665 46.0152 427.96 46.8182C427.263 47.6136 426.362 48.2348 425.256 48.6818C424.157 49.1212 422.888 49.3409 421.449 49.3409ZM437.46 38.9091V49H432.619V31.5455H437.233V34.625H437.438C437.824 33.6098 438.472 32.8068 439.381 32.2159C440.29 31.6174 441.392 31.3182 442.688 31.3182C443.9 31.3182 444.956 31.5833 445.858 32.1136C446.759 32.6439 447.46 33.4015 447.96 34.3864C448.46 35.3636 448.71 36.5303 448.71 37.8864V49H443.869V38.75C443.877 37.6818 443.604 36.8485 443.051 36.25C442.498 35.6439 441.737 35.3409 440.767 35.3409C440.116 35.3409 439.54 35.4811 439.04 35.7614C438.547 36.0417 438.161 36.4508 437.881 36.9886C437.608 37.5189 437.468 38.1591 437.46 38.9091ZM458.957 49.2841C457.632 49.2841 456.431 48.9432 455.355 48.2614C454.287 47.572 453.438 46.5606 452.81 45.2273C452.188 43.8864 451.878 42.2424 451.878 40.2955C451.878 38.2955 452.2 36.6326 452.844 35.3068C453.488 33.9735 454.344 32.9773 455.412 32.3182C456.488 31.6515 457.666 31.3182 458.946 31.3182C459.923 31.3182 460.738 31.4848 461.389 31.8182C462.048 32.1439 462.579 32.553 462.98 33.0455C463.389 33.5303 463.7 34.0076 463.912 34.4773H464.06V25.7273H468.889V49H464.116V46.2045H463.912C463.685 46.6894 463.363 47.1705 462.946 47.6477C462.537 48.1174 462.003 48.5076 461.344 48.8182C460.692 49.1288 459.897 49.2841 458.957 49.2841ZM460.491 45.4318C461.272 45.4318 461.931 45.2197 462.469 44.7955C463.014 44.3636 463.431 43.7614 463.719 42.9886C464.014 42.2159 464.162 41.3106 464.162 40.2727C464.162 39.2348 464.018 38.3333 463.73 37.5682C463.442 36.803 463.026 36.2121 462.48 35.7955C461.935 35.3788 461.272 35.1705 460.491 35.1705C459.696 35.1705 459.026 35.3864 458.48 35.8182C457.935 36.25 457.522 36.8485 457.241 37.6136C456.961 38.3788 456.821 39.2652 456.821 40.2727C456.821 41.2879 456.961 42.1856 457.241 42.9659C457.529 43.7386 457.942 44.3447 458.48 44.7841C459.026 45.2159 459.696 45.4318 460.491 45.4318Z" fill="white"/>
<g filter="url(#filter0_d_920_4506)">
<rect x="34.5" y="88" width="134" height="35" fill="black"/>
<path d="M92.9865 99.3636V111H90.8615L85.799 103.676H85.7138V111H83.2536V99.3636H85.4126L90.4354 106.682H90.5376V99.3636H92.9865ZM95.0192 111V99.3636H102.86V101.392H97.4794V104.165H102.457V106.193H97.4794V108.972H102.883V111H95.0192ZM107.123 99.3636L109.469 103.33H109.56L111.918 99.3636H114.697L111.146 105.182L114.776 111H111.947L109.56 107.028H109.469L107.083 111H104.265L107.907 105.182L104.333 99.3636H107.123ZM115.81 101.392V99.3636H125.367V101.392H121.805V111H119.373V101.392H115.81ZM127.763 111.148C127.388 111.148 127.067 111.015 126.798 110.75C126.532 110.481 126.4 110.159 126.4 109.784C126.4 109.413 126.532 109.095 126.798 108.83C127.067 108.564 127.388 108.432 127.763 108.432C128.127 108.432 128.445 108.564 128.718 108.83C128.991 109.095 129.127 109.413 129.127 109.784C129.127 110.034 129.063 110.263 128.934 110.472C128.809 110.676 128.644 110.841 128.44 110.966C128.235 111.087 128.01 111.148 127.763 111.148ZM135.819 99.3636H138.251V107.477C138.251 108.227 138.082 108.879 137.745 109.432C137.412 109.985 136.948 110.411 136.353 110.71C135.758 111.009 135.067 111.159 134.279 111.159C133.578 111.159 132.942 111.036 132.37 110.79C131.802 110.54 131.351 110.161 131.018 109.653C130.684 109.142 130.52 108.5 130.523 107.727H132.972C132.98 108.034 133.042 108.297 133.16 108.517C133.281 108.733 133.446 108.9 133.654 109.017C133.866 109.131 134.116 109.188 134.404 109.188C134.707 109.188 134.963 109.123 135.171 108.994C135.383 108.862 135.544 108.669 135.654 108.415C135.764 108.161 135.819 107.848 135.819 107.477V99.3636ZM146.597 102.71C146.552 102.252 146.357 101.896 146.012 101.642C145.667 101.388 145.2 101.261 144.609 101.261C144.207 101.261 143.868 101.318 143.592 101.432C143.315 101.542 143.103 101.695 142.955 101.892C142.811 102.089 142.739 102.312 142.739 102.562C142.732 102.771 142.775 102.953 142.87 103.108C142.969 103.263 143.103 103.398 143.273 103.511C143.444 103.621 143.641 103.718 143.864 103.801C144.088 103.881 144.326 103.949 144.58 104.006L145.626 104.256C146.133 104.369 146.599 104.521 147.023 104.71C147.448 104.9 147.815 105.133 148.126 105.409C148.436 105.686 148.677 106.011 148.847 106.386C149.022 106.761 149.111 107.191 149.114 107.676C149.111 108.388 148.929 109.006 148.569 109.528C148.213 110.047 147.698 110.451 147.023 110.739C146.353 111.023 145.544 111.165 144.597 111.165C143.658 111.165 142.84 111.021 142.143 110.733C141.45 110.445 140.908 110.019 140.518 109.455C140.131 108.886 139.929 108.184 139.91 107.347H142.29C142.317 107.737 142.429 108.062 142.626 108.324C142.826 108.581 143.094 108.777 143.427 108.909C143.764 109.038 144.145 109.102 144.569 109.102C144.986 109.102 145.347 109.042 145.654 108.92C145.965 108.799 146.205 108.631 146.376 108.415C146.546 108.199 146.631 107.951 146.631 107.67C146.631 107.409 146.554 107.189 146.398 107.011C146.247 106.833 146.023 106.682 145.728 106.557C145.436 106.432 145.078 106.318 144.654 106.216L143.387 105.898C142.406 105.659 141.631 105.286 141.063 104.778C140.495 104.271 140.213 103.587 140.217 102.727C140.213 102.023 140.4 101.407 140.779 100.881C141.162 100.354 141.686 99.9432 142.353 99.6477C143.02 99.3523 143.777 99.2045 144.626 99.2045C145.489 99.2045 146.243 99.3523 146.887 99.6477C147.535 99.9432 148.039 100.354 148.398 100.881C148.758 101.407 148.944 102.017 148.955 102.71H146.597Z" fill="white"/>
<g clip-path="url(#clip0_920_4506)">
<path d="M64.2765 113.399C62.7668 114.41 60.9515 115 59 115C53.7568 115 49.5 110.743 49.5 105.5C49.5 100.257 53.7568 96 59 96C64.2432 96 68.5 100.257 68.5 105.5C68.5 108.337 67.2539 110.884 65.2803 112.626L56.7984 101.7H55.2V109.297H56.4785V103.324L64.2765 113.399ZM61.6386 106.644L62.9053 108.276V101.7H61.6386V106.644Z" fill="#FFFDFD"/>
</g>
<rect x="182.5" y="88" width="144" height="35" fill="#C3002F"/>
<path d="M232.306 111H229.67L233.687 99.3636H236.857L240.869 111H238.232L235.317 102.023H235.227L232.306 111ZM232.141 106.426H238.369V108.347H232.141V106.426ZM252.002 99.3636V111H249.877L244.815 103.676H244.729V111H242.269V99.3636H244.428L249.451 106.682H249.553V99.3636H252.002ZM261.751 103.125C261.671 102.848 261.559 102.604 261.415 102.392C261.272 102.176 261.095 101.994 260.887 101.847C260.683 101.695 260.448 101.58 260.183 101.5C259.921 101.42 259.631 101.381 259.313 101.381C258.719 101.381 258.196 101.528 257.745 101.824C257.298 102.119 256.95 102.549 256.7 103.114C256.45 103.674 256.325 104.36 256.325 105.17C256.325 105.981 256.448 106.67 256.694 107.239C256.94 107.807 257.289 108.241 257.739 108.54C258.19 108.835 258.722 108.983 259.336 108.983C259.893 108.983 260.368 108.884 260.762 108.688C261.16 108.487 261.463 108.205 261.671 107.841C261.883 107.477 261.989 107.047 261.989 106.551L262.489 106.625H259.489V104.773H264.359V106.239C264.359 107.261 264.143 108.14 263.711 108.875C263.279 109.606 262.684 110.17 261.927 110.568C261.169 110.962 260.302 111.159 259.325 111.159C258.234 111.159 257.275 110.919 256.45 110.438C255.624 109.953 254.98 109.265 254.518 108.375C254.059 107.481 253.83 106.42 253.83 105.193C253.83 104.25 253.967 103.409 254.239 102.67C254.516 101.928 254.902 101.299 255.398 100.784C255.895 100.269 256.472 99.8769 257.131 99.608C257.79 99.339 258.504 99.2045 259.273 99.2045C259.933 99.2045 260.546 99.3011 261.114 99.4943C261.683 99.6837 262.186 99.9527 262.626 100.301C263.069 100.65 263.431 101.064 263.711 101.545C263.991 102.023 264.171 102.549 264.251 103.125H261.751ZM273.394 99.3636H275.854V106.92C275.854 107.769 275.652 108.511 275.246 109.148C274.845 109.784 274.282 110.28 273.559 110.636C272.835 110.989 271.993 111.165 271.031 111.165C270.065 111.165 269.22 110.989 268.496 110.636C267.773 110.28 267.21 109.784 266.809 109.148C266.407 108.511 266.207 107.769 266.207 106.92V99.3636H268.667V106.71C268.667 107.153 268.763 107.547 268.957 107.892C269.154 108.237 269.43 108.508 269.786 108.705C270.142 108.902 270.557 109 271.031 109C271.508 109 271.923 108.902 272.275 108.705C272.631 108.508 272.906 108.237 273.099 107.892C273.296 107.547 273.394 107.153 273.394 106.71V99.3636ZM277.879 111V99.3636H280.339V108.972H285.327V111H277.879ZM289.259 111H286.623L290.64 99.3636H293.81L297.822 111H295.185L292.271 102.023H292.18L289.259 111ZM289.094 106.426H295.322V108.347H289.094V106.426ZM299.222 111V99.3636H303.813C304.692 99.3636 305.442 99.5208 306.063 99.8352C306.688 100.146 307.164 100.587 307.489 101.159C307.819 101.727 307.984 102.396 307.984 103.165C307.984 103.937 307.817 104.602 307.484 105.159C307.15 105.712 306.667 106.136 306.035 106.432C305.406 106.727 304.645 106.875 303.751 106.875H300.677V104.898H303.353C303.823 104.898 304.213 104.833 304.523 104.705C304.834 104.576 305.065 104.383 305.217 104.125C305.372 103.867 305.45 103.547 305.45 103.165C305.45 102.778 305.372 102.453 305.217 102.188C305.065 101.922 304.832 101.722 304.518 101.585C304.207 101.445 303.815 101.375 303.342 101.375H301.683V111H299.222ZM305.506 105.705L308.398 111H305.683L302.853 105.705H305.506Z" fill="white"/>
<path d="M210.73 110.021H203.269L202.316 112.33L206.999 115L211.683 112.33L210.73 110.021ZM209.131 96L215.331 109.344L215.975 99.1659L209.131 96ZM204.868 96L198.023 99.1659L198.668 109.344L204.868 96ZM204.548 107.028H209.454L206.999 101.063L204.548 107.028Z" fill="#FFFDFD"/>
<rect x="340.5" y="88" width="164" height="35" fill="#3178C6"/>
<path d="M387.076 101.392V99.3636H396.633V101.392H393.07V111H390.638V101.392H387.076ZM397.525 99.3636H400.281L402.934 104.375H403.048L405.701 99.3636H408.457L404.212 106.886V111H401.769V106.886L397.525 99.3636ZM409.8 111V99.3636H414.391C415.274 99.3636 416.026 99.5322 416.647 99.8693C417.268 100.203 417.742 100.667 418.067 101.261C418.397 101.852 418.562 102.534 418.562 103.307C418.562 104.08 418.395 104.761 418.062 105.352C417.728 105.943 417.246 106.403 416.613 106.733C415.984 107.062 415.223 107.227 414.329 107.227H411.403V105.256H413.931C414.405 105.256 414.795 105.174 415.102 105.011C415.412 104.845 415.643 104.616 415.795 104.324C415.95 104.028 416.028 103.689 416.028 103.307C416.028 102.92 415.95 102.583 415.795 102.295C415.643 102.004 415.412 101.778 415.102 101.619C414.791 101.456 414.397 101.375 413.92 101.375H412.261V111H409.8ZM420.16 111V99.3636H428.001V101.392H422.62V104.165H427.597V106.193H422.62V108.972H428.023V111H420.16ZM436.269 102.71C436.224 102.252 436.029 101.896 435.684 101.642C435.339 101.388 434.871 101.261 434.281 101.261C433.879 101.261 433.54 101.318 433.263 101.432C432.987 101.542 432.775 101.695 432.627 101.892C432.483 102.089 432.411 102.312 432.411 102.562C432.404 102.771 432.447 102.953 432.542 103.108C432.64 103.263 432.775 103.398 432.945 103.511C433.116 103.621 433.313 103.718 433.536 103.801C433.76 103.881 433.998 103.949 434.252 104.006L435.298 104.256C435.805 104.369 436.271 104.521 436.695 104.71C437.12 104.9 437.487 105.133 437.798 105.409C438.108 105.686 438.349 106.011 438.519 106.386C438.693 106.761 438.782 107.191 438.786 107.676C438.782 108.388 438.601 109.006 438.241 109.528C437.885 110.047 437.37 110.451 436.695 110.739C436.025 111.023 435.216 111.165 434.269 111.165C433.33 111.165 432.512 111.021 431.815 110.733C431.121 110.445 430.58 110.019 430.19 109.455C429.803 108.886 429.601 108.184 429.582 107.347H431.962C431.989 107.737 432.101 108.062 432.298 108.324C432.498 108.581 432.765 108.777 433.099 108.909C433.436 109.038 433.817 109.102 434.241 109.102C434.657 109.102 435.019 109.042 435.326 108.92C435.637 108.799 435.877 108.631 436.048 108.415C436.218 108.199 436.303 107.951 436.303 107.67C436.303 107.409 436.226 107.189 436.07 107.011C435.919 106.833 435.695 106.682 435.4 106.557C435.108 106.432 434.75 106.318 434.326 106.216L433.059 105.898C432.078 105.659 431.303 105.286 430.735 104.778C430.167 104.271 429.885 103.587 429.888 102.727C429.885 102.023 430.072 101.407 430.451 100.881C430.834 100.354 431.358 99.9432 432.025 99.6477C432.692 99.3523 433.449 99.2045 434.298 99.2045C435.161 99.2045 435.915 99.3523 436.559 99.6477C437.207 99.9432 437.71 100.354 438.07 100.881C438.43 101.407 438.616 102.017 438.627 102.71H436.269ZM450.708 103.438H448.219C448.174 103.116 448.081 102.83 447.941 102.58C447.801 102.326 447.621 102.11 447.401 101.932C447.182 101.754 446.928 101.617 446.64 101.523C446.356 101.428 446.047 101.381 445.714 101.381C445.112 101.381 444.587 101.53 444.14 101.83C443.693 102.125 443.346 102.557 443.1 103.125C442.854 103.689 442.731 104.375 442.731 105.182C442.731 106.011 442.854 106.708 443.1 107.273C443.35 107.837 443.699 108.263 444.146 108.551C444.593 108.839 445.11 108.983 445.697 108.983C446.026 108.983 446.331 108.939 446.612 108.852C446.896 108.765 447.147 108.638 447.367 108.472C447.587 108.301 447.769 108.095 447.913 107.852C448.06 107.61 448.163 107.333 448.219 107.023L450.708 107.034C450.644 107.568 450.483 108.083 450.225 108.58C449.971 109.072 449.629 109.513 449.197 109.903C448.769 110.29 448.257 110.597 447.663 110.824C447.072 111.047 446.403 111.159 445.657 111.159C444.619 111.159 443.691 110.924 442.873 110.455C442.058 109.985 441.415 109.305 440.941 108.415C440.471 107.525 440.237 106.447 440.237 105.182C440.237 103.913 440.475 102.833 440.952 101.943C441.43 101.053 442.077 100.375 442.896 99.9091C443.714 99.4394 444.634 99.2045 445.657 99.2045C446.331 99.2045 446.956 99.2992 447.532 99.4886C448.112 99.678 448.625 99.9545 449.072 100.318C449.519 100.678 449.882 101.119 450.163 101.642C450.447 102.165 450.629 102.763 450.708 103.438ZM452.472 111V99.3636H457.063C457.942 99.3636 458.692 99.5208 459.313 99.8352C459.938 100.146 460.414 100.587 460.739 101.159C461.069 101.727 461.234 102.396 461.234 103.165C461.234 103.937 461.067 104.602 460.734 105.159C460.4 105.712 459.917 106.136 459.285 106.432C458.656 106.727 457.895 106.875 457.001 106.875H453.927V104.898H456.603C457.073 104.898 457.463 104.833 457.773 104.705C458.084 104.576 458.315 104.383 458.467 104.125C458.622 103.867 458.7 103.547 458.7 103.165C458.7 102.778 458.622 102.453 458.467 102.188C458.315 101.922 458.082 101.722 457.768 101.585C457.457 101.445 457.065 101.375 456.592 101.375H454.933V111H452.472ZM458.756 105.705L461.648 111H458.933L456.103 105.705H458.756ZM465.433 99.3636V111H462.972V99.3636H465.433ZM467.457 111V99.3636H472.048C472.93 99.3636 473.682 99.5322 474.303 99.8693C474.924 100.203 475.398 100.667 475.724 101.261C476.053 101.852 476.218 102.534 476.218 103.307C476.218 104.08 476.051 104.761 475.718 105.352C475.385 105.943 474.902 106.403 474.269 106.733C473.64 107.062 472.879 107.227 471.985 107.227H469.059V105.256H471.587C472.061 105.256 472.451 105.174 472.758 105.011C473.068 104.845 473.299 104.616 473.451 104.324C473.606 104.028 473.684 103.689 473.684 103.307C473.684 102.92 473.606 102.583 473.451 102.295C473.299 102.004 473.068 101.778 472.758 101.619C472.447 101.456 472.053 101.375 471.576 101.375H469.917V111H467.457ZM477.373 101.392V99.3636H486.93V101.392H483.367V111H480.935V101.392H477.373Z" fill="white"/>
<g clip-path="url(#clip1_920_4506)">
<path d="M356.391 96C355.897 96 355.5 96.3974 355.5 96.8906V114.109C355.5 114.603 355.897 115 356.391 115H373.609C374.103 115 374.5 114.603 374.5 114.109V96.8906C374.5 96.3974 374.103 96 373.609 96H356.391ZM370.136 103.719C370.621 103.719 371.05 103.748 371.424 103.807C371.778 103.86 372.124 103.95 372.458 104.076V106.022C372.298 105.911 372.127 105.815 371.949 105.736C371.765 105.653 371.576 105.584 371.382 105.53C371.014 105.428 370.634 105.374 370.253 105.372C370.015 105.372 369.799 105.394 369.604 105.44C369.431 105.477 369.264 105.542 369.111 105.631C368.977 105.714 368.874 105.813 368.8 105.927C368.726 106.043 368.687 106.178 368.689 106.315C368.689 106.471 368.731 106.611 368.813 106.734C368.895 106.858 369.012 106.975 369.163 107.086C369.315 107.197 369.498 107.304 369.714 107.41C369.931 107.517 370.175 107.627 370.447 107.74C370.82 107.896 371.154 108.062 371.45 108.237C371.746 108.413 372 108.611 372.212 108.833C372.424 109.054 372.586 109.306 372.698 109.591C372.811 109.875 372.868 110.205 372.868 110.583C372.868 111.103 372.769 111.54 372.572 111.894C372.38 112.242 372.105 112.537 371.771 112.752C371.411 112.981 371.012 113.141 370.594 113.224C370.146 113.319 369.673 113.367 369.177 113.367C368.688 113.369 368.201 113.325 367.72 113.237C367.304 113.165 366.901 113.034 366.523 112.847V110.765C367.239 111.373 368.146 111.71 369.086 111.715C369.349 111.715 369.58 111.691 369.776 111.643C369.973 111.596 370.137 111.529 370.269 111.445C370.401 111.36 370.499 111.26 370.565 111.145C370.637 111.01 370.67 110.858 370.66 110.705C370.65 110.552 370.596 110.406 370.506 110.282C370.388 110.127 370.245 109.993 370.081 109.887C369.878 109.752 369.664 109.635 369.442 109.535C369.179 109.415 368.913 109.3 368.645 109.19C367.918 108.887 367.377 108.515 367.02 108.078C366.663 107.64 366.484 107.11 366.484 106.49C366.484 106.004 366.582 105.587 366.777 105.238C366.971 104.889 367.236 104.601 367.571 104.376C367.926 104.142 368.321 103.973 368.735 103.878C369.194 103.77 369.665 103.716 370.136 103.719ZM358.172 103.868H365.743V105.582H363.026V113.219H360.875V105.582H358.172V103.868Z" fill="#FFFDFD"/>
</g>
<rect x="518.5" y="88" width="124" height="35" fill="#5DC6DD"/>
<path d="M568.793 111V99.3636H573.384C574.262 99.3636 575.012 99.5208 575.634 99.8352C576.259 100.146 576.734 100.587 577.06 101.159C577.389 101.727 577.554 102.396 577.554 103.165C577.554 103.937 577.387 104.602 577.054 105.159C576.721 105.712 576.238 106.136 575.605 106.432C574.976 106.727 574.215 106.875 573.321 106.875H570.247V104.898H572.923C573.393 104.898 573.783 104.833 574.094 104.705C574.404 104.576 574.635 104.383 574.787 104.125C574.942 103.867 575.02 103.547 575.02 103.165C575.02 102.778 574.942 102.453 574.787 102.188C574.635 101.922 574.402 101.722 574.088 101.585C573.777 101.445 573.385 101.375 572.912 101.375H571.253V111H568.793ZM575.077 105.705L577.969 111H575.253L572.423 105.705H575.077ZM579.293 111V99.3636H587.134V101.392H581.753V104.165H586.73V106.193H581.753V108.972H587.156V111H579.293ZM591.095 111H588.459L592.476 99.3636H595.646L599.658 111H597.021L594.107 102.023H594.016L591.095 111ZM590.93 106.426H597.158V108.347H590.93V106.426ZM610.778 103.438H608.29C608.244 103.116 608.152 102.83 608.011 102.58C607.871 102.326 607.691 102.11 607.472 101.932C607.252 101.754 606.998 101.617 606.71 101.523C606.426 101.428 606.117 101.381 605.784 101.381C605.182 101.381 604.657 101.53 604.21 101.83C603.763 102.125 603.417 102.557 603.17 103.125C602.924 103.689 602.801 104.375 602.801 105.182C602.801 106.011 602.924 106.708 603.17 107.273C603.42 107.837 603.769 108.263 604.216 108.551C604.663 108.839 605.18 108.983 605.767 108.983C606.097 108.983 606.402 108.939 606.682 108.852C606.966 108.765 607.218 108.638 607.438 108.472C607.657 108.301 607.839 108.095 607.983 107.852C608.131 107.61 608.233 107.333 608.29 107.023L610.778 107.034C610.714 107.568 610.553 108.083 610.295 108.58C610.042 109.072 609.699 109.513 609.267 109.903C608.839 110.29 608.328 110.597 607.733 110.824C607.142 111.047 606.473 111.159 605.727 111.159C604.689 111.159 603.761 110.924 602.943 110.455C602.129 109.985 601.485 109.305 601.011 108.415C600.542 107.525 600.307 106.447 600.307 105.182C600.307 103.913 600.545 102.833 601.023 101.943C601.5 101.053 602.148 100.375 602.966 99.9091C603.784 99.4394 604.705 99.2045 605.727 99.2045C606.402 99.2045 607.027 99.2992 607.602 99.4886C608.182 99.678 608.695 99.9545 609.142 100.318C609.589 100.678 609.953 101.119 610.233 101.642C610.517 102.165 610.699 102.763 610.778 103.438ZM612.099 101.392V99.3636H621.656V101.392H618.094V111H615.662V101.392H612.099Z" fill="white"/>
<g clip-path="url(#clip2_920_4506)">
<path d="M544.765 105.503C544.765 105.972 544.579 106.422 544.247 106.754C543.915 107.086 543.465 107.273 542.996 107.273C542.527 107.273 542.076 107.087 541.744 106.755C541.412 106.423 541.226 105.972 541.226 105.503C541.226 105.034 541.412 104.583 541.744 104.252C542.076 103.92 542.526 103.733 542.995 103.733C543.465 103.733 543.915 103.919 544.247 104.251C544.579 104.583 544.765 105.033 544.765 105.503ZM546.862 97.04C545.796 97.04 544.402 97.8 542.992 99.1158C541.583 97.8072 540.188 97.0559 539.123 97.0559C538.799 97.0559 538.503 97.1295 538.248 97.276C537.159 97.9037 536.915 99.86 537.477 102.315C535.068 103.059 533.5 104.249 533.5 105.503C533.5 106.762 535.075 107.955 537.492 108.693C536.935 111.158 537.184 113.117 538.275 113.744C538.528 113.892 538.821 113.962 539.147 113.962C540.212 113.962 541.607 113.202 543.017 111.885C544.426 113.194 545.821 113.945 546.886 113.945C547.21 113.945 547.505 113.874 547.761 113.728C548.849 113.101 549.093 111.144 548.531 108.689C550.933 107.951 552.5 106.759 552.5 105.503C552.5 104.244 550.925 103.051 548.508 102.311C549.065 99.8489 548.816 97.8879 547.725 97.2601C547.474 97.1145 547.182 97.0408 546.862 97.04ZM546.858 97.903V97.9077C547.036 97.9077 547.179 97.9425 547.3 98.0082C547.827 98.3107 548.056 99.461 547.877 100.941C547.835 101.305 547.765 101.689 547.68 102.081C546.92 101.894 546.091 101.75 545.22 101.658C544.697 100.941 544.155 100.291 543.609 99.7206C544.869 98.549 546.053 97.9061 546.859 97.9037L546.858 97.903ZM539.123 97.9188C539.924 97.9188 541.113 98.5585 542.377 99.7238C541.834 100.294 541.292 100.941 540.778 101.657C539.901 101.75 539.073 101.893 538.313 102.083C538.225 101.695 538.159 101.32 538.112 100.959C537.93 99.48 538.155 98.3305 538.678 98.0241C538.828 97.9528 538.994 97.9227 539.123 97.9188ZM542.988 100.333C543.348 100.704 543.709 101.119 544.065 101.572C543.716 101.556 543.36 101.545 543 101.545C542.636 101.545 542.276 101.553 541.923 101.572C542.272 101.119 542.632 100.705 542.988 100.333ZM543 102.412C543.586 102.412 544.169 102.439 544.743 102.486C545.065 102.947 545.378 103.438 545.68 103.958C545.974 104.465 546.242 104.98 546.486 105.499C546.242 106.018 545.974 106.536 545.684 107.043C545.383 107.565 545.072 108.062 544.75 108.523C544.173 108.573 543.589 108.601 543 108.601C542.414 108.601 541.831 108.573 541.257 108.527C540.935 108.066 540.622 107.574 540.32 107.055C540.026 106.548 539.758 106.033 539.514 105.514C539.754 104.994 540.026 104.475 540.316 103.967C540.617 103.445 540.928 102.949 541.25 102.488C541.827 102.438 542.411 102.411 543 102.411V102.412ZM540.122 102.613C539.932 102.912 539.742 103.217 539.565 103.532C539.387 103.84 539.221 104.151 539.062 104.461C538.852 103.942 538.674 103.424 538.527 102.92C539.034 102.801 539.568 102.695 540.122 102.613ZM545.87 102.613C546.42 102.695 546.95 102.795 547.458 102.92C547.315 103.42 547.137 103.935 546.935 104.45C546.777 104.141 546.611 103.83 546.429 103.521C546.251 103.21 546.061 102.908 545.871 102.613H545.87ZM548.295 103.148C548.678 103.266 549.042 103.399 549.383 103.542C550.754 104.128 551.641 104.894 551.641 105.502C551.637 106.11 550.75 106.88 549.379 107.462C549.047 107.604 548.683 107.732 548.307 107.852C548.085 107.093 547.795 106.303 547.436 105.493C547.792 104.688 548.077 103.901 548.295 103.146V103.148ZM537.69 103.151C537.91 103.911 538.201 104.7 538.561 105.51C538.205 106.315 537.918 107.101 537.701 107.857C537.318 107.738 536.954 107.605 536.617 107.461C535.246 106.877 534.359 106.11 534.359 105.502C534.359 104.894 535.246 104.123 536.617 103.542C536.949 103.399 537.313 103.271 537.69 103.151ZM546.935 106.539C547.145 107.059 547.323 107.578 547.471 108.081C546.964 108.206 546.429 108.311 545.875 108.39C546.065 108.093 546.255 107.787 546.433 107.473C546.611 107.165 546.776 106.85 546.935 106.539ZM539.062 106.555C539.221 106.865 539.387 107.175 539.569 107.485C539.751 107.794 539.937 108.096 540.127 108.39C539.577 108.309 539.046 108.208 538.539 108.085C538.681 107.586 538.86 107.07 539.061 106.554L539.062 106.555ZM547.687 108.92C547.775 109.31 547.845 109.686 547.888 110.046C548.07 111.525 547.845 112.675 547.322 112.982C547.206 113.053 547.055 113.083 546.877 113.083C546.076 113.083 544.887 112.444 543.623 111.278C544.166 110.708 544.708 110.062 545.222 109.346C546.099 109.253 546.927 109.11 547.687 108.92ZM538.321 108.928C539.081 109.113 539.909 109.256 540.781 109.349C541.303 110.065 541.846 110.716 542.392 111.285C541.129 112.459 539.944 113.102 539.138 113.102C538.964 113.098 538.817 113.063 538.7 112.998C538.173 112.697 537.944 111.546 538.123 110.066C538.165 109.702 538.236 109.319 538.321 108.928ZM541.931 109.434C542.28 109.45 542.636 109.461 542.996 109.461C543.36 109.461 543.72 109.453 544.073 109.434C543.724 109.887 543.364 110.301 543.008 110.673C542.648 110.301 542.288 109.887 541.931 109.434Z" fill="#FFFDFD"/>
</g>
<rect x="656.5" y="88" width="109" height="35" fill="#E34F26"/>
<path d="M703.339 111V99.3636H705.8V104.165H710.794V99.3636H713.249V111H710.794V106.193H705.8V111H703.339ZM714.834 101.392V99.3636H724.391V101.392H720.828V111H718.396V101.392H714.834ZM725.964 99.3636H728.999L732.203 107.182H732.339L735.544 99.3636H738.578V111H736.192V103.426H736.095L733.084 110.943H731.459L728.447 103.398H728.351V111H725.964V99.3636ZM740.605 111V99.3636H743.065V108.972H748.054V111H740.605Z" fill="white"/>
<path d="M672.688 96H689.312L687.8 113.071L680.982 115L674.202 113.07L672.688 96ZM678.254 103.719L678.07 101.567L686.033 101.569L686.215 99.4936L675.785 99.4913L676.337 105.833H683.562L683.304 108.545L681 109.181L678.661 108.54L678.512 106.87H676.446L676.708 110.172L681 111.32L685.258 110.177L685.847 103.72H678.254V103.719Z" fill="#FFFDFD"/>
<rect x="73.5" y="137" width="99" height="35" fill="#1572B6"/>
<path d="M132.278 152.438H129.79C129.744 152.116 129.652 151.83 129.511 151.58C129.371 151.326 129.191 151.11 128.972 150.932C128.752 150.754 128.498 150.617 128.21 150.523C127.926 150.428 127.617 150.381 127.284 150.381C126.682 150.381 126.157 150.53 125.71 150.83C125.263 151.125 124.917 151.557 124.67 152.125C124.424 152.689 124.301 153.375 124.301 154.182C124.301 155.011 124.424 155.708 124.67 156.273C124.92 156.837 125.269 157.263 125.716 157.551C126.163 157.839 126.68 157.983 127.267 157.983C127.597 157.983 127.902 157.939 128.182 157.852C128.466 157.765 128.718 157.638 128.938 157.472C129.157 157.301 129.339 157.095 129.483 156.852C129.631 156.61 129.733 156.333 129.79 156.023L132.278 156.034C132.214 156.568 132.053 157.083 131.795 157.58C131.542 158.072 131.199 158.513 130.767 158.903C130.339 159.29 129.828 159.597 129.233 159.824C128.642 160.047 127.973 160.159 127.227 160.159C126.189 160.159 125.261 159.924 124.443 159.455C123.629 158.985 122.985 158.305 122.511 157.415C122.042 156.525 121.807 155.447 121.807 154.182C121.807 152.913 122.045 151.833 122.523 150.943C123 150.053 123.648 149.375 124.466 148.909C125.284 148.439 126.205 148.205 127.227 148.205C127.902 148.205 128.527 148.299 129.102 148.489C129.682 148.678 130.195 148.955 130.642 149.318C131.089 149.678 131.453 150.119 131.733 150.642C132.017 151.165 132.199 151.763 132.278 152.438ZM140.355 151.71C140.31 151.252 140.115 150.896 139.77 150.642C139.425 150.388 138.957 150.261 138.366 150.261C137.965 150.261 137.626 150.318 137.349 150.432C137.073 150.542 136.861 150.695 136.713 150.892C136.569 151.089 136.497 151.312 136.497 151.562C136.49 151.771 136.533 151.953 136.628 152.108C136.726 152.263 136.861 152.398 137.031 152.511C137.202 152.621 137.399 152.718 137.622 152.801C137.846 152.881 138.084 152.949 138.338 153.006L139.384 153.256C139.891 153.369 140.357 153.521 140.781 153.71C141.205 153.9 141.573 154.133 141.884 154.409C142.194 154.686 142.435 155.011 142.605 155.386C142.779 155.761 142.868 156.191 142.872 156.676C142.868 157.388 142.687 158.006 142.327 158.528C141.971 159.047 141.455 159.451 140.781 159.739C140.111 160.023 139.302 160.165 138.355 160.165C137.416 160.165 136.598 160.021 135.901 159.733C135.207 159.445 134.666 159.019 134.276 158.455C133.889 157.886 133.687 157.184 133.668 156.347H136.048C136.075 156.737 136.187 157.062 136.384 157.324C136.584 157.581 136.851 157.777 137.185 157.909C137.522 158.038 137.902 158.102 138.327 158.102C138.743 158.102 139.105 158.042 139.412 157.92C139.723 157.799 139.963 157.631 140.134 157.415C140.304 157.199 140.389 156.951 140.389 156.67C140.389 156.409 140.312 156.189 140.156 156.011C140.005 155.833 139.781 155.682 139.486 155.557C139.194 155.432 138.836 155.318 138.412 155.216L137.145 154.898C136.164 154.659 135.389 154.286 134.821 153.778C134.253 153.271 133.971 152.587 133.974 151.727C133.971 151.023 134.158 150.407 134.537 149.881C134.92 149.354 135.444 148.943 136.111 148.648C136.777 148.352 137.535 148.205 138.384 148.205C139.247 148.205 140.001 148.352 140.645 148.648C141.293 148.943 141.796 149.354 142.156 149.881C142.516 150.407 142.702 151.017 142.713 151.71H140.355ZM150.839 151.71C150.794 151.252 150.599 150.896 150.254 150.642C149.91 150.388 149.442 150.261 148.851 150.261C148.449 150.261 148.11 150.318 147.834 150.432C147.557 150.542 147.345 150.695 147.197 150.892C147.054 151.089 146.982 151.312 146.982 151.562C146.974 151.771 147.018 151.953 147.112 152.108C147.211 152.263 147.345 152.398 147.516 152.511C147.686 152.621 147.883 152.718 148.107 152.801C148.33 152.881 148.569 152.949 148.822 153.006L149.868 153.256C150.375 153.369 150.841 153.521 151.266 153.71C151.69 153.9 152.057 154.133 152.368 154.409C152.679 154.686 152.919 155.011 153.089 155.386C153.264 155.761 153.353 156.191 153.357 156.676C153.353 157.388 153.171 158.006 152.811 158.528C152.455 159.047 151.94 159.451 151.266 159.739C150.595 160.023 149.786 160.165 148.839 160.165C147.9 160.165 147.082 160.021 146.385 159.733C145.692 159.445 145.15 159.019 144.76 158.455C144.374 157.886 144.171 157.184 144.152 156.347H146.533C146.559 156.737 146.671 157.062 146.868 157.324C147.069 157.581 147.336 157.777 147.669 157.909C148.006 158.038 148.387 158.102 148.811 158.102C149.228 158.102 149.589 158.042 149.896 157.92C150.207 157.799 150.447 157.631 150.618 157.415C150.788 157.199 150.874 156.951 150.874 156.67C150.874 156.409 150.796 156.189 150.641 156.011C150.489 155.833 150.266 155.682 149.97 155.557C149.679 155.432 149.321 155.318 148.896 155.216L147.629 154.898C146.648 154.659 145.874 154.286 145.305 153.778C144.737 153.271 144.455 152.587 144.459 151.727C144.455 151.023 144.643 150.407 145.021 149.881C145.404 149.354 145.929 148.943 146.595 148.648C147.262 148.352 148.019 148.205 148.868 148.205C149.732 148.205 150.485 148.352 151.129 148.648C151.777 148.943 152.281 149.354 152.641 149.881C153 150.407 153.186 151.017 153.197 151.71H150.839Z" fill="white"/>
<path d="M89.6875 145H106.312L104.8 162.071L97.9818 164L91.2012 162.07L89.6875 145ZM103.217 148.494L92.7829 148.491L92.9515 150.567L100.967 150.569L100.765 152.719H95.5086L95.6986 154.756H100.593L100.303 157.545L97.9992 158.181L95.659 157.54L95.5102 155.87H93.444L93.6735 158.921L98 160.27L102.254 159.058L103.217 148.494Z" fill="#FFFDFD"/>
<rect x="186.5" y="137" width="179" height="35" fill="#06B6D4"/>
<path d="M233.412 150.392V148.364H242.969V150.392H239.406V160H236.974V150.392H233.412ZM245.126 160H242.49L246.507 148.364H249.678L253.689 160H251.053L248.138 151.023H248.047L245.126 160ZM244.962 155.426H251.189V157.347H244.962V155.426ZM257.55 148.364V160H255.089V148.364H257.55ZM259.574 160V148.364H262.034V157.972H267.023V160H259.574ZM270.615 160L267.286 148.364H269.973L271.899 156.449H271.996L274.121 148.364H276.422L278.541 156.466H278.643L280.57 148.364H283.257L279.928 160H277.53L275.314 152.392H275.223L273.013 160H270.615ZM287.034 148.364V160H284.574V148.364H287.034ZM298.791 148.364V160H296.666L291.604 152.676H291.518V160H289.058V148.364H291.217L296.24 155.682H296.342V148.364H298.791ZM304.949 160H300.824V148.364H304.983C306.153 148.364 307.161 148.597 308.006 149.062C308.85 149.525 309.5 150.189 309.955 151.057C310.413 151.924 310.642 152.962 310.642 154.17C310.642 155.383 310.413 156.424 309.955 157.295C309.5 158.167 308.847 158.835 307.994 159.301C307.146 159.767 306.131 160 304.949 160ZM303.284 157.892H304.847C305.574 157.892 306.186 157.763 306.682 157.506C307.182 157.244 307.557 156.841 307.807 156.295C308.061 155.746 308.188 155.038 308.188 154.17C308.188 153.311 308.061 152.608 307.807 152.062C307.557 151.517 307.184 151.116 306.688 150.858C306.191 150.6 305.58 150.472 304.852 150.472H303.284V157.892ZM326.435 152.438H323.946C323.901 152.116 323.808 151.83 323.668 151.58C323.527 151.326 323.348 151.11 323.128 150.932C322.908 150.754 322.654 150.617 322.366 150.523C322.082 150.428 321.774 150.381 321.44 150.381C320.838 150.381 320.313 150.53 319.866 150.83C319.42 151.125 319.073 151.557 318.827 152.125C318.58 152.689 318.457 153.375 318.457 154.182C318.457 155.011 318.58 155.708 318.827 156.273C319.077 156.837 319.425 157.263 319.872 157.551C320.319 157.839 320.836 157.983 321.423 157.983C321.753 157.983 322.058 157.939 322.338 157.852C322.622 157.765 322.874 157.638 323.094 157.472C323.313 157.301 323.495 157.095 323.639 156.852C323.787 156.61 323.889 156.333 323.946 156.023L326.435 156.034C326.37 156.568 326.209 157.083 325.952 157.58C325.698 158.072 325.355 158.513 324.923 158.903C324.495 159.29 323.984 159.597 323.389 159.824C322.798 160.047 322.13 160.159 321.384 160.159C320.346 160.159 319.418 159.924 318.599 159.455C317.785 158.985 317.141 158.305 316.668 157.415C316.198 156.525 315.963 155.447 315.963 154.182C315.963 152.913 316.202 151.833 316.679 150.943C317.156 150.053 317.804 149.375 318.622 148.909C319.44 148.439 320.361 148.205 321.384 148.205C322.058 148.205 322.683 148.299 323.259 148.489C323.838 148.678 324.351 148.955 324.798 149.318C325.245 149.678 325.609 150.119 325.889 150.642C326.173 151.165 326.355 151.763 326.435 152.438ZM334.511 151.71C334.466 151.252 334.271 150.896 333.926 150.642C333.581 150.388 333.114 150.261 332.523 150.261C332.121 150.261 331.782 150.318 331.506 150.432C331.229 150.542 331.017 150.695 330.869 150.892C330.725 151.089 330.653 151.312 330.653 151.562C330.646 151.771 330.689 151.953 330.784 152.108C330.883 152.263 331.017 152.398 331.188 152.511C331.358 152.621 331.555 152.718 331.778 152.801C332.002 152.881 332.241 152.949 332.494 153.006L333.54 153.256C334.047 153.369 334.513 153.521 334.938 153.71C335.362 153.9 335.729 154.133 336.04 154.409C336.35 154.686 336.591 155.011 336.761 155.386C336.936 155.761 337.025 156.191 337.028 156.676C337.025 157.388 336.843 158.006 336.483 158.528C336.127 159.047 335.612 159.451 334.938 159.739C334.267 160.023 333.458 160.165 332.511 160.165C331.572 160.165 330.754 160.021 330.057 159.733C329.364 159.445 328.822 159.019 328.432 158.455C328.045 157.886 327.843 157.184 327.824 156.347H330.205C330.231 156.737 330.343 157.062 330.54 157.324C330.741 157.581 331.008 157.777 331.341 157.909C331.678 158.038 332.059 158.102 332.483 158.102C332.9 158.102 333.261 158.042 333.568 157.92C333.879 157.799 334.119 157.631 334.29 157.415C334.46 157.199 334.545 156.951 334.545 156.67C334.545 156.409 334.468 156.189 334.312 156.011C334.161 155.833 333.938 155.682 333.642 155.557C333.35 155.432 332.992 155.318 332.568 155.216L331.301 154.898C330.32 154.659 329.545 154.286 328.977 153.778C328.409 153.271 328.127 152.587 328.131 151.727C328.127 151.023 328.314 150.407 328.693 149.881C329.076 149.354 329.6 148.943 330.267 148.648C330.934 148.352 331.691 148.205 332.54 148.205C333.403 148.205 334.157 148.352 334.801 148.648C335.449 148.943 335.953 149.354 336.312 149.881C336.672 150.407 336.858 151.017 336.869 151.71H334.511ZM344.996 151.71C344.95 151.252 344.755 150.896 344.411 150.642C344.066 150.388 343.598 150.261 343.007 150.261C342.606 150.261 342.267 150.318 341.99 150.432C341.714 150.542 341.501 150.695 341.354 150.892C341.21 151.089 341.138 151.312 341.138 151.562C341.13 151.771 341.174 151.953 341.268 152.108C341.367 152.263 341.501 152.398 341.672 152.511C341.842 152.621 342.039 152.718 342.263 152.801C342.486 152.881 342.725 152.949 342.979 153.006L344.024 153.256C344.532 153.369 344.998 153.521 345.422 153.71C345.846 153.9 346.214 154.133 346.524 154.409C346.835 154.686 347.075 155.011 347.246 155.386C347.42 155.761 347.509 156.191 347.513 156.676C347.509 157.388 347.327 158.006 346.967 158.528C346.611 159.047 346.096 159.451 345.422 159.739C344.751 160.023 343.943 160.165 342.996 160.165C342.056 160.165 341.238 160.021 340.541 159.733C339.848 159.445 339.306 159.019 338.916 158.455C338.53 157.886 338.327 157.184 338.308 156.347H340.689C340.715 156.737 340.827 157.062 341.024 157.324C341.225 157.581 341.492 157.777 341.825 157.909C342.162 158.038 342.543 158.102 342.967 158.102C343.384 158.102 343.746 158.042 344.053 157.92C344.363 157.799 344.604 157.631 344.774 157.415C344.945 157.199 345.03 156.951 345.03 156.67C345.03 156.409 344.952 156.189 344.797 156.011C344.645 155.833 344.422 155.682 344.126 155.557C343.835 155.432 343.477 155.318 343.053 155.216L341.786 154.898C340.804 154.659 340.03 154.286 339.462 153.778C338.893 153.271 338.611 152.587 338.615 151.727C338.611 151.023 338.799 150.407 339.178 149.881C339.56 149.354 340.085 148.943 340.751 148.648C341.418 148.352 342.176 148.205 343.024 148.205C343.888 148.205 344.642 148.352 345.286 148.648C345.933 148.943 346.437 149.354 346.797 149.881C347.157 150.407 347.342 151.017 347.354 151.71H344.996Z" fill="white"/>
<g clip-path="url(#clip3_920_4506)">
<path d="M211 148.8C208.467 148.8 206.883 150.066 206.25 152.6C207.2 151.333 208.308 150.858 209.575 151.175C210.298 151.355 210.814 151.879 211.386 152.46C212.318 153.406 213.396 154.5 215.75 154.5C218.283 154.5 219.867 153.233 220.5 150.7C219.55 151.966 218.442 152.441 217.175 152.125C216.452 151.944 215.936 151.42 215.364 150.839C214.433 149.894 213.355 148.8 211 148.8ZM206.25 154.5C203.717 154.5 202.133 155.766 201.5 158.3C202.45 157.033 203.558 156.558 204.825 156.875C205.548 157.055 206.064 157.579 206.636 158.16C207.568 159.106 208.646 160.2 211 160.2C213.533 160.2 215.117 158.933 215.75 156.4C214.8 157.666 213.692 158.141 212.425 157.825C211.702 157.644 211.186 157.12 210.614 156.539C209.683 155.594 208.605 154.5 206.25 154.5Z" fill="#FFFDFD"/>
</g>
<rect x="379.5" y="137" width="169" height="35" fill="#21759B"/>
<path d="M431.029 160L427.7 148.364H430.387L432.313 156.449H432.41L434.535 148.364H436.836L438.955 156.466H439.058L440.984 148.364H443.671L440.342 160H437.944L435.728 152.392H435.637L433.427 160H431.029ZM455.025 154.182C455.025 155.451 454.784 156.53 454.303 157.42C453.826 158.311 453.174 158.991 452.349 159.46C451.527 159.926 450.603 160.159 449.576 160.159C448.542 160.159 447.614 159.924 446.792 159.455C445.97 158.985 445.32 158.305 444.843 157.415C444.366 156.525 444.127 155.447 444.127 154.182C444.127 152.913 444.366 151.833 444.843 150.943C445.32 150.053 445.97 149.375 446.792 148.909C447.614 148.439 448.542 148.205 449.576 148.205C450.603 148.205 451.527 148.439 452.349 148.909C453.174 149.375 453.826 150.053 454.303 150.943C454.784 151.833 455.025 152.913 455.025 154.182ZM452.531 154.182C452.531 153.36 452.407 152.667 452.161 152.102C451.919 151.538 451.576 151.11 451.133 150.818C450.69 150.527 450.171 150.381 449.576 150.381C448.981 150.381 448.462 150.527 448.019 150.818C447.576 151.11 447.231 151.538 446.985 152.102C446.743 152.667 446.621 153.36 446.621 154.182C446.621 155.004 446.743 155.697 446.985 156.261C447.231 156.826 447.576 157.254 448.019 157.545C448.462 157.837 448.981 157.983 449.576 157.983C450.171 157.983 450.69 157.837 451.133 157.545C451.576 157.254 451.919 156.826 452.161 156.261C452.407 155.697 452.531 155.004 452.531 154.182ZM456.847 160V148.364H461.438C462.317 148.364 463.067 148.521 463.688 148.835C464.313 149.146 464.789 149.587 465.114 150.159C465.444 150.727 465.609 151.396 465.609 152.165C465.609 152.937 465.442 153.602 465.109 154.159C464.775 154.712 464.292 155.136 463.66 155.432C463.031 155.727 462.27 155.875 461.376 155.875H458.302V153.898H460.978C461.448 153.898 461.838 153.833 462.148 153.705C462.459 153.576 462.69 153.383 462.842 153.125C462.997 152.867 463.075 152.547 463.075 152.165C463.075 151.778 462.997 151.453 462.842 151.188C462.69 150.922 462.457 150.722 462.143 150.585C461.832 150.445 461.44 150.375 460.967 150.375H459.308V160H456.847ZM463.131 154.705L466.023 160H463.308L460.478 154.705H463.131ZM471.472 160H467.347V148.364H471.506C472.677 148.364 473.684 148.597 474.529 149.062C475.374 149.525 476.023 150.189 476.478 151.057C476.936 151.924 477.165 152.962 477.165 154.17C477.165 155.383 476.936 156.424 476.478 157.295C476.023 158.167 475.37 158.835 474.518 159.301C473.669 159.767 472.654 160 471.472 160ZM469.808 157.892H471.37C472.097 157.892 472.709 157.763 473.205 157.506C473.705 157.244 474.08 156.841 474.33 156.295C474.584 155.746 474.711 155.038 474.711 154.17C474.711 153.311 474.584 152.608 474.33 152.062C474.08 151.517 473.707 151.116 473.211 150.858C472.715 150.6 472.103 150.472 471.376 150.472H469.808V157.892ZM478.988 160V148.364H483.579C484.461 148.364 485.213 148.532 485.835 148.869C486.456 149.203 486.929 149.667 487.255 150.261C487.585 150.852 487.749 151.534 487.749 152.307C487.749 153.08 487.583 153.761 487.249 154.352C486.916 154.943 486.433 155.403 485.8 155.733C485.172 156.062 484.41 156.227 483.516 156.227H480.59V154.256H483.119C483.592 154.256 483.982 154.174 484.289 154.011C484.6 153.845 484.831 153.616 484.982 153.324C485.138 153.028 485.215 152.689 485.215 152.307C485.215 151.92 485.138 151.583 484.982 151.295C484.831 151.004 484.6 150.778 484.289 150.619C483.978 150.456 483.585 150.375 483.107 150.375H481.448V160H478.988ZM489.347 160V148.364H493.938C494.817 148.364 495.567 148.521 496.188 148.835C496.813 149.146 497.289 149.587 497.614 150.159C497.944 150.727 498.109 151.396 498.109 152.165C498.109 152.937 497.942 153.602 497.609 154.159C497.275 154.712 496.792 155.136 496.16 155.432C495.531 155.727 494.77 155.875 493.876 155.875H490.802V153.898H493.478C493.948 153.898 494.338 153.833 494.648 153.705C494.959 153.576 495.19 153.383 495.342 153.125C495.497 152.867 495.575 152.547 495.575 152.165C495.575 151.778 495.497 151.453 495.342 151.188C495.19 150.922 494.957 150.722 494.643 150.585C494.332 150.445 493.94 150.375 493.467 150.375H491.808V160H489.347ZM495.631 154.705L498.523 160H495.808L492.978 154.705H495.631ZM499.847 160V148.364H507.688V150.392H502.308V153.165H507.285V155.193H502.308V157.972H507.711V160H499.847ZM515.957 151.71C515.911 151.252 515.716 150.896 515.371 150.642C515.027 150.388 514.559 150.261 513.968 150.261C513.567 150.261 513.228 150.318 512.951 150.432C512.674 150.542 512.462 150.695 512.315 150.892C512.171 151.089 512.099 151.312 512.099 151.562C512.091 151.771 512.135 151.953 512.229 152.108C512.328 152.263 512.462 152.398 512.633 152.511C512.803 152.621 513 152.718 513.224 152.801C513.447 152.881 513.686 152.949 513.94 153.006L514.985 153.256C515.493 153.369 515.959 153.521 516.383 153.71C516.807 153.9 517.174 154.133 517.485 154.409C517.796 154.686 518.036 155.011 518.207 155.386C518.381 155.761 518.47 156.191 518.474 156.676C518.47 157.388 518.288 158.006 517.928 158.528C517.572 159.047 517.057 159.451 516.383 159.739C515.712 160.023 514.904 160.165 513.957 160.165C513.017 160.165 512.199 160.021 511.502 159.733C510.809 159.445 510.267 159.019 509.877 158.455C509.491 157.886 509.288 157.184 509.269 156.347H511.65C511.676 156.737 511.788 157.062 511.985 157.324C512.186 157.581 512.453 157.777 512.786 157.909C513.123 158.038 513.504 158.102 513.928 158.102C514.345 158.102 514.707 158.042 515.013 157.92C515.324 157.799 515.565 157.631 515.735 157.415C515.906 157.199 515.991 156.951 515.991 156.67C515.991 156.409 515.913 156.189 515.758 156.011C515.606 155.833 515.383 155.682 515.087 155.557C514.796 155.432 514.438 155.318 514.013 155.216L512.746 154.898C511.765 154.659 510.991 154.286 510.423 153.778C509.854 153.271 509.572 152.587 509.576 151.727C509.572 151.023 509.76 150.407 510.138 149.881C510.521 149.354 511.046 148.943 511.712 148.648C512.379 148.352 513.137 148.205 513.985 148.205C514.849 148.205 515.603 148.352 516.246 148.648C516.894 148.943 517.398 149.354 517.758 149.881C518.118 150.407 518.303 151.017 518.315 151.71H515.957ZM526.441 151.71C526.396 151.252 526.201 150.896 525.856 150.642C525.511 150.388 525.043 150.261 524.452 150.261C524.051 150.261 523.712 150.318 523.435 150.432C523.159 150.542 522.947 150.695 522.799 150.892C522.655 151.089 522.583 151.312 522.583 151.562C522.576 151.771 522.619 151.953 522.714 152.108C522.812 152.263 522.947 152.398 523.117 152.511C523.288 152.621 523.485 152.718 523.708 152.801C523.932 152.881 524.17 152.949 524.424 153.006L525.469 153.256C525.977 153.369 526.443 153.521 526.867 153.71C527.291 153.9 527.659 154.133 527.969 154.409C528.28 154.686 528.521 155.011 528.691 155.386C528.865 155.761 528.954 156.191 528.958 156.676C528.954 157.388 528.772 158.006 528.413 158.528C528.057 159.047 527.541 159.451 526.867 159.739C526.197 160.023 525.388 160.165 524.441 160.165C523.502 160.165 522.683 160.021 521.987 159.733C521.293 159.445 520.752 159.019 520.362 158.455C519.975 157.886 519.772 157.184 519.754 156.347H522.134C522.161 156.737 522.272 157.062 522.469 157.324C522.67 157.581 522.937 157.777 523.271 157.909C523.608 158.038 523.988 158.102 524.413 158.102C524.829 158.102 525.191 158.042 525.498 157.92C525.808 157.799 526.049 157.631 526.219 157.415C526.39 157.199 526.475 156.951 526.475 156.67C526.475 156.409 526.397 156.189 526.242 156.011C526.091 155.833 525.867 155.682 525.572 155.557C525.28 155.432 524.922 155.318 524.498 155.216L523.231 154.898C522.25 154.659 521.475 154.286 520.907 153.778C520.339 153.271 520.057 152.587 520.06 151.727C520.057 151.023 520.244 150.407 520.623 149.881C521.005 149.354 521.53 148.943 522.197 148.648C522.863 148.352 523.621 148.205 524.469 148.205C525.333 148.205 526.087 148.352 526.731 148.648C527.379 148.943 527.882 149.354 528.242 149.881C528.602 150.407 528.788 151.017 528.799 151.71H526.441Z" fill="white"/>
<g clip-path="url(#clip4_920_4506)">
<path d="M411.496 150.403C412.161 151.62 412.54 153.016 412.54 154.5C412.54 157.65 410.833 160.403 408.294 161.882L410.903 154.34C411.389 153.121 411.552 152.146 411.552 151.281C411.552 150.96 411.531 150.664 411.496 150.403ZM405.178 150.485C405.69 150.462 406.153 150.402 406.153 150.402C406.614 150.343 406.56 149.666 406.1 149.691C406.1 149.691 404.711 149.798 403.82 149.798C402.978 149.798 401.564 149.679 401.564 149.679C401.101 149.655 401.041 150.356 401.505 150.379C401.505 150.379 401.932 150.428 402.395 150.451L403.725 154.096L401.849 159.701L398.739 150.463C399.252 150.439 399.715 150.383 399.715 150.383C400.179 150.324 400.124 149.647 399.664 149.674C399.664 149.674 398.282 149.783 397.389 149.783C397.23 149.783 397.042 149.777 396.843 149.771C398.388 147.494 401.019 145.962 404 145.962C406.224 145.962 408.247 146.811 409.768 148.205C409.732 148.202 409.696 148.198 409.656 148.198C408.817 148.198 408.222 148.928 408.222 149.713C408.222 150.417 408.628 151.014 409.061 151.717C409.387 152.287 409.766 153.017 409.766 154.073C409.766 154.798 409.485 155.652 409.116 156.828L408.265 159.666L405.177 150.474L405.178 150.485ZM404 163.037C403.162 163.037 402.353 162.916 401.587 162.691L404.15 155.245L406.774 162.439C406.793 162.481 406.814 162.519 406.836 162.557C405.949 162.868 404.995 163.039 404 163.039M395.459 154.5C395.459 153.262 395.725 152.085 396.199 151.025L400.271 162.186C397.424 160.802 395.46 157.881 395.459 154.5ZM404 145C398.763 145 394.5 149.263 394.5 154.5C394.5 159.737 398.763 164 404 164C409.237 164 413.5 159.737 413.5 154.5C413.5 149.263 409.237 145 404 145Z" fill="#FFFDFD"/>
</g>
<rect x="562.5" y="137" width="164" height="35" fill="black"/>
<path d="M609.91 148.364H612.944L616.148 156.182H616.285L619.489 148.364H622.523V160H620.137V152.426H620.04L617.029 159.943H615.404L612.393 152.398H612.296V160H609.91V148.364ZM626.556 160H623.92L627.937 148.364H631.107L635.119 160H632.482L629.567 151.023H629.477L626.556 160ZM626.391 155.426H632.619V157.347H626.391V155.426ZM636.519 160V148.364H641.11C641.989 148.364 642.739 148.521 643.36 148.835C643.985 149.146 644.46 149.587 644.786 150.159C645.116 150.727 645.281 151.396 645.281 152.165C645.281 152.937 645.114 153.602 644.781 154.159C644.447 154.712 643.964 155.136 643.332 155.432C642.703 155.727 641.942 155.875 641.048 155.875H637.974V153.898H640.65C641.12 153.898 641.51 153.833 641.82 153.705C642.131 153.576 642.362 153.383 642.513 153.125C642.669 152.867 642.746 152.547 642.746 152.165C642.746 151.778 642.669 151.453 642.513 151.188C642.362 150.922 642.129 150.722 641.815 150.585C641.504 150.445 641.112 150.375 640.638 150.375H638.979V160H636.519ZM642.803 154.705L645.695 160H642.979L640.15 154.705H642.803ZM647.019 160V148.364H649.479V153.494H649.633L653.82 148.364H656.769L652.451 153.574L656.82 160H653.877L650.69 155.216L649.479 156.693V160H647.019ZM662.175 160H658.05V148.364H662.21C663.38 148.364 664.388 148.597 665.232 149.062C666.077 149.525 666.727 150.189 667.181 151.057C667.639 151.924 667.869 152.962 667.869 154.17C667.869 155.383 667.639 156.424 667.181 157.295C666.727 158.167 666.073 158.835 665.221 159.301C664.372 159.767 663.357 160 662.175 160ZM660.511 157.892H662.073C662.8 157.892 663.412 157.763 663.908 157.506C664.408 157.244 664.783 156.841 665.033 156.295C665.287 155.746 665.414 155.038 665.414 154.17C665.414 153.311 665.287 152.608 665.033 152.062C664.783 151.517 664.41 151.116 663.914 150.858C663.418 150.6 662.806 150.472 662.079 150.472H660.511V157.892ZM680.384 154.182C680.384 155.451 680.144 156.53 679.663 157.42C679.185 158.311 678.534 158.991 677.708 159.46C676.886 159.926 675.962 160.159 674.935 160.159C673.901 160.159 672.973 159.924 672.151 159.455C671.329 158.985 670.68 158.305 670.202 157.415C669.725 156.525 669.487 155.447 669.487 154.182C669.487 152.913 669.725 151.833 670.202 150.943C670.68 150.053 671.329 149.375 672.151 148.909C672.973 148.439 673.901 148.205 674.935 148.205C675.962 148.205 676.886 148.439 677.708 148.909C678.534 149.375 679.185 150.053 679.663 150.943C680.144 151.833 680.384 152.913 680.384 154.182ZM677.89 154.182C677.89 153.36 677.767 152.667 677.521 152.102C677.278 151.538 676.935 151.11 676.492 150.818C676.049 150.527 675.53 150.381 674.935 150.381C674.341 150.381 673.822 150.527 673.379 150.818C672.935 151.11 672.591 151.538 672.344 152.102C672.102 152.667 671.981 153.36 671.981 154.182C671.981 155.004 672.102 155.697 672.344 156.261C672.591 156.826 672.935 157.254 673.379 157.545C673.822 157.837 674.341 157.983 674.935 157.983C675.53 157.983 676.049 157.837 676.492 157.545C676.935 157.254 677.278 156.826 677.521 156.261C677.767 155.697 677.89 155.004 677.89 154.182ZM684.388 160L681.059 148.364H683.746L685.673 156.449H685.769L687.894 148.364H690.195L692.315 156.466H692.417L694.343 148.364H697.031L693.701 160H691.303L689.087 152.392H688.996L686.786 160H684.388ZM708.08 148.364V160H705.955L700.893 152.676H700.808V160H698.347V148.364H700.506L705.529 155.682H705.631V148.364H708.08Z" fill="white"/>
<g clip-path="url(#clip5_920_4506)">
<path d="M595.13 160.346H578.87C578.69 160.346 578.512 160.311 578.345 160.242C578.179 160.173 578.028 160.072 577.901 159.945C577.774 159.818 577.673 159.667 577.604 159.501C577.535 159.335 577.5 159.157 577.5 158.977V150.023C577.5 149.66 577.644 149.311 577.901 149.054C578.158 148.798 578.506 148.653 578.87 148.653H595.13C595.31 148.653 595.488 148.689 595.655 148.758C595.821 148.826 595.972 148.927 596.099 149.054C596.226 149.182 596.327 149.333 596.396 149.499C596.465 149.665 596.5 149.843 596.5 150.023V158.975C596.5 159.155 596.465 159.333 596.396 159.499C596.327 159.666 596.226 159.817 596.099 159.944C595.972 160.071 595.821 160.172 595.655 160.241C595.489 160.31 595.31 160.346 595.13 160.346ZM582.067 157.605V154.043L583.894 156.327L585.721 154.043V157.605H587.548V151.395H585.721L583.894 153.679L582.067 151.395H580.239V157.607L582.067 157.605ZM594.309 154.5H592.481V151.394H590.654V154.5H588.827L591.567 157.697L594.309 154.5Z" fill="#FFFDFD"/>
</g>
</g>
<rect x="850" width="500" height="200" rx="20" fill="#303258"/>
<path d="M1034.13 49V25.7273H1043.45C1045.16 25.7273 1046.59 25.9811 1047.73 26.4886C1048.88 26.9962 1049.74 27.7008 1050.31 28.6023C1050.89 29.4962 1051.18 30.5265 1051.18 31.6932C1051.18 32.6023 1051 33.4015 1050.63 34.0909C1050.27 34.7727 1049.77 35.3333 1049.13 35.7727C1048.5 36.2045 1047.78 36.5114 1046.97 36.6932V36.9205C1047.86 36.9583 1048.69 37.2083 1049.46 37.6705C1050.24 38.1326 1050.87 38.7803 1051.36 39.6136C1051.84 40.4394 1052.09 41.4242 1052.09 42.5682C1052.09 43.803 1051.78 44.9053 1051.17 45.875C1050.56 46.8371 1049.66 47.5985 1048.47 48.1591C1047.28 48.7197 1045.82 49 1044.08 49H1034.13ZM1039.05 44.9773H1043.06C1044.44 44.9773 1045.44 44.7159 1046.06 44.1932C1046.69 43.6629 1047.01 42.9583 1047.01 42.0795C1047.01 41.4356 1046.85 40.8674 1046.54 40.375C1046.23 39.8826 1045.79 39.4962 1045.21 39.2159C1044.64 38.9356 1043.97 38.7955 1043.18 38.7955H1039.05V44.9773ZM1039.05 35.4659H1042.7C1043.37 35.4659 1043.97 35.3485 1044.5 35.1136C1045.03 34.8712 1045.44 34.5303 1045.75 34.0909C1046.06 33.6515 1046.21 33.125 1046.21 32.5114C1046.21 31.6705 1045.91 30.9924 1045.31 30.4773C1044.72 29.9621 1043.88 29.7045 1042.79 29.7045H1039.05V35.4659ZM1060.17 49.3295C1059.06 49.3295 1058.07 49.1364 1057.2 48.75C1056.33 48.3561 1055.64 47.7765 1055.13 47.0114C1054.63 46.2386 1054.38 45.2765 1054.38 44.125C1054.38 43.1553 1054.56 42.3409 1054.91 41.6818C1055.27 41.0227 1055.75 40.4924 1056.37 40.0909C1056.98 39.6894 1057.68 39.3864 1058.46 39.1818C1059.25 38.9773 1060.07 38.8333 1060.94 38.75C1061.95 38.6439 1062.77 38.5455 1063.39 38.4545C1064.01 38.3561 1064.46 38.2121 1064.74 38.0227C1065.02 37.8333 1065.16 37.553 1065.16 37.1818V37.1136C1065.16 36.3939 1064.94 35.8371 1064.48 35.4432C1064.03 35.0492 1063.4 34.8523 1062.57 34.8523C1061.7 34.8523 1061.01 35.0455 1060.49 35.4318C1059.98 35.8106 1059.64 36.2879 1059.47 36.8636L1054.99 36.5C1055.22 35.4394 1055.67 34.5227 1056.33 33.75C1057 32.9697 1057.86 32.3712 1058.91 31.9545C1059.97 31.5303 1061.2 31.3182 1062.6 31.3182C1063.56 31.3182 1064.49 31.4318 1065.38 31.6591C1066.27 31.8864 1067.06 32.2386 1067.75 32.7159C1068.45 33.1932 1069 33.8068 1069.4 34.5568C1069.8 35.2992 1070 36.1894 1070 37.2273V49H1065.41V46.5795H1065.28C1065 47.125 1064.62 47.6061 1064.15 48.0227C1063.68 48.4318 1063.12 48.7538 1062.46 48.9886C1061.8 49.2159 1061.04 49.3295 1060.17 49.3295ZM1061.56 45.9886C1062.27 45.9886 1062.9 45.8485 1063.45 45.5682C1063.99 45.2803 1064.42 44.8939 1064.73 44.4091C1065.04 43.9242 1065.2 43.375 1065.2 42.7614V40.9091C1065.05 41.0076 1064.84 41.0985 1064.57 41.1818C1064.31 41.2576 1064.02 41.3295 1063.7 41.3977C1063.37 41.4583 1063.05 41.5152 1062.72 41.5682C1062.39 41.6136 1062.1 41.6553 1061.83 41.6932C1061.27 41.7765 1060.77 41.9091 1060.35 42.0909C1059.92 42.2727 1059.59 42.5189 1059.36 42.8295C1059.12 43.1326 1059 43.5114 1059 43.9659C1059 44.625 1059.24 45.1288 1059.72 45.4773C1060.21 45.8182 1060.82 45.9886 1061.56 45.9886ZM1081.65 49.3409C1079.86 49.3409 1078.32 48.9621 1077.03 48.2045C1075.75 47.4394 1074.77 46.3788 1074.08 45.0227C1073.4 43.6667 1073.06 42.1061 1073.06 40.3409C1073.06 38.553 1073.4 36.9848 1074.09 35.6364C1074.79 34.2803 1075.78 33.2235 1077.06 32.4659C1078.34 31.7008 1079.86 31.3182 1081.62 31.3182C1083.15 31.3182 1084.48 31.5947 1085.62 32.1477C1086.77 32.7008 1087.67 33.4773 1088.34 34.4773C1089.01 35.4773 1089.37 36.6515 1089.44 38H1084.87C1084.74 37.1288 1084.4 36.428 1083.85 35.8977C1083.31 35.3598 1082.59 35.0909 1081.7 35.0909C1080.95 35.0909 1080.3 35.2955 1079.74 35.7045C1079.18 36.1061 1078.75 36.6932 1078.44 37.4659C1078.13 38.2386 1077.98 39.1742 1077.98 40.2727C1077.98 41.3864 1078.13 42.3333 1078.43 43.1136C1078.74 43.8939 1079.18 44.4886 1079.74 44.8977C1080.3 45.3068 1080.95 45.5114 1081.7 45.5114C1082.26 45.5114 1082.75 45.3977 1083.19 45.1705C1083.64 44.9432 1084.01 44.6136 1084.29 44.1818C1084.59 43.7424 1084.78 43.2159 1084.87 42.6023H1089.44C1089.37 43.9356 1089 45.1098 1088.35 46.125C1087.71 47.1326 1086.82 47.9205 1085.68 48.4886C1084.54 49.0568 1083.2 49.3409 1081.65 49.3409ZM1096.93 43.9773L1096.94 38.1705H1097.64L1103.23 31.5455H1108.79L1101.28 40.3182H1100.13L1096.93 43.9773ZM1092.54 49V25.7273H1097.38V49H1092.54ZM1103.45 49L1098.31 41.3977L1101.54 37.9773L1109.12 49H1103.45ZM1118.4 49.3409C1116.61 49.3409 1115.06 48.9773 1113.77 48.25C1112.48 47.5152 1111.49 46.4773 1110.79 45.1364C1110.09 43.7879 1109.74 42.1932 1109.74 40.3523C1109.74 38.5568 1110.09 36.9811 1110.79 35.625C1111.49 34.2689 1112.47 33.2121 1113.73 32.4545C1115 31.697 1116.5 31.3182 1118.21 31.3182C1119.36 31.3182 1120.43 31.5038 1121.42 31.875C1122.42 32.2386 1123.3 32.7879 1124.04 33.5227C1124.79 34.2576 1125.37 35.1818 1125.79 36.2955C1126.21 37.4015 1126.41 38.697 1126.41 40.1818V41.5114H1111.67V38.5114H1121.86C1121.86 37.8144 1121.71 37.197 1121.4 36.6591C1121.1 36.1212 1120.68 35.7008 1120.14 35.3977C1119.61 35.0871 1118.99 34.9318 1118.29 34.9318C1117.55 34.9318 1116.9 35.1023 1116.33 35.4432C1115.77 35.7765 1115.33 36.2273 1115.02 36.7955C1114.7 37.3561 1114.53 37.9811 1114.53 38.6705V41.5227C1114.53 42.3864 1114.69 43.1326 1115 43.7614C1115.33 44.3902 1115.79 44.875 1116.38 45.2159C1116.97 45.5568 1117.67 45.7273 1118.48 45.7273C1119.02 45.7273 1119.51 45.6515 1119.96 45.5C1120.41 45.3485 1120.79 45.1212 1121.11 44.8182C1121.42 44.5152 1121.67 44.1439 1121.83 43.7045L1126.31 44C1126.08 45.0758 1125.62 46.0152 1124.91 46.8182C1124.22 47.6136 1123.31 48.2348 1122.21 48.6818C1121.11 49.1212 1119.84 49.3409 1118.4 49.3409ZM1134.41 38.9091V49H1129.57V31.5455H1134.19V34.625H1134.39C1134.78 33.6098 1135.42 32.8068 1136.33 32.2159C1137.24 31.6174 1138.35 31.3182 1139.64 31.3182C1140.85 31.3182 1141.91 31.5833 1142.81 32.1136C1143.71 32.6439 1144.41 33.4015 1144.91 34.3864C1145.41 35.3636 1145.66 36.5303 1145.66 37.8864V49H1140.82V38.75C1140.83 37.6818 1140.56 36.8485 1140 36.25C1139.45 35.6439 1138.69 35.3409 1137.72 35.3409C1137.07 35.3409 1136.49 35.4811 1135.99 35.7614C1135.5 36.0417 1135.11 36.4508 1134.83 36.9886C1134.56 37.5189 1134.42 38.1591 1134.41 38.9091ZM1155.91 49.2841C1154.58 49.2841 1153.38 48.9432 1152.31 48.2614C1151.24 47.572 1150.39 46.5606 1149.76 45.2273C1149.14 43.8864 1148.83 42.2424 1148.83 40.2955C1148.83 38.2955 1149.15 36.6326 1149.8 35.3068C1150.44 33.9735 1151.3 32.9773 1152.37 32.3182C1153.44 31.6515 1154.62 31.3182 1155.9 31.3182C1156.88 31.3182 1157.69 31.4848 1158.34 31.8182C1159 32.1439 1159.53 32.553 1159.93 33.0455C1160.34 33.5303 1160.65 34.0076 1160.87 34.4773H1161.01V25.7273H1165.84V49H1161.07V46.2045H1160.87C1160.64 46.6894 1160.32 47.1705 1159.9 47.6477C1159.49 48.1174 1158.96 48.5076 1158.3 48.8182C1157.65 49.1288 1156.85 49.2841 1155.91 49.2841ZM1157.44 45.4318C1158.22 45.4318 1158.88 45.2197 1159.42 44.7955C1159.97 44.3636 1160.38 43.7614 1160.67 42.9886C1160.97 42.2159 1161.12 41.3106 1161.12 40.2727C1161.12 39.2348 1160.97 38.3333 1160.68 37.5682C1160.4 36.803 1159.98 36.2121 1159.43 35.7955C1158.89 35.3788 1158.22 35.1705 1157.44 35.1705C1156.65 35.1705 1155.98 35.3864 1155.43 35.8182C1154.89 36.25 1154.47 36.8485 1154.19 37.6136C1153.91 38.3788 1153.77 39.2652 1153.77 40.2727C1153.77 41.2879 1153.91 42.1856 1154.19 42.9659C1154.48 43.7386 1154.9 44.3447 1155.43 44.7841C1155.98 45.2159 1156.65 45.4318 1157.44 45.4318Z" fill="white"/>
<g filter="url(#filter1_d_920_4506)">
<rect x="917.5" y="88" width="104" height="35" fill="#F58620"/>
<path d="M968.655 99.3636H971.087V107.477C971.087 108.227 970.918 108.879 970.581 109.432C970.248 109.985 969.784 110.411 969.189 110.71C968.594 111.009 967.903 111.159 967.115 111.159C966.414 111.159 965.778 111.036 965.206 110.79C964.638 110.54 964.187 110.161 963.854 109.653C963.52 109.142 963.356 108.5 963.359 107.727H965.808C965.816 108.034 965.878 108.297 965.996 108.517C966.117 108.733 966.282 108.9 966.49 109.017C966.702 109.131 966.952 109.188 967.24 109.188C967.543 109.188 967.799 109.123 968.007 108.994C968.219 108.862 968.38 108.669 968.49 108.415C968.6 108.161 968.655 107.848 968.655 107.477V99.3636ZM975.126 111H972.49L976.507 99.3636H979.678L983.689 111H981.053L978.138 102.023H978.047L975.126 111ZM974.962 106.426H981.189V108.347H974.962V106.426ZM985.739 99.3636L988.551 108.205H988.659L991.477 99.3636H994.205L990.193 111H987.023L983.006 99.3636H985.739ZM996.064 111H993.428L997.445 99.3636H1000.62L1004.63 111H1001.99L999.075 102.023H998.984L996.064 111ZM995.899 106.426H1002.13V108.347H995.899V106.426Z" fill="white"/>
<path d="M941.933 96L941.762 96.1702C940.033 97.9 938.414 101.059 937.286 104.299C936.444 105.11 934.41 106.524 934.348 107.11C934.275 107.799 935.731 109.177 935.575 109.671C935.419 110.166 934.543 110.786 934.773 111.206C934.852 111.355 935.424 111.215 935.784 110.818C935.734 111.381 935.73 111.948 935.77 112.512C935.83 113.229 935.984 113.832 936.279 114.279C936.574 114.725 937.036 115 937.599 115C937.913 115 938.175 114.91 938.41 114.791C938.646 114.673 938.862 114.53 939.13 114.395C939.668 114.126 940.424 113.868 941.925 113.917C943.431 113.966 944.198 114.226 944.742 114.474C945.286 114.723 945.653 115 946.266 115C946.873 115 947.371 114.734 947.697 114.288C948.023 113.842 948.196 113.235 948.267 112.514C948.314 112.021 948.31 111.469 948.267 110.879C948.626 111.235 949.151 111.357 949.227 111.214C949.457 110.795 948.581 110.174 948.425 109.681C948.268 109.187 949.725 107.808 949.651 107.119C949.588 106.527 947.508 105.086 946.684 104.28C945.505 101.046 943.827 97.8952 942.103 96.1702L941.933 96ZM942.071 100.78C942.688 100.782 943.28 101.027 943.717 101.464C944.153 101.9 944.399 102.492 944.401 103.109C944.4 103.727 944.154 104.318 943.717 104.755C943.28 105.192 942.689 105.438 942.071 105.439C941.454 105.437 940.862 105.191 940.426 104.755C939.989 104.318 939.743 103.727 939.742 103.109C939.744 102.492 939.99 101.901 940.426 101.464C940.862 101.028 941.454 100.782 942.071 100.78ZM939.375 102.32C939.3 102.576 939.261 102.842 939.261 103.109C939.261 104.654 940.527 105.92 942.071 105.92C943.615 105.92 944.882 104.655 944.882 103.109C944.882 102.849 944.845 102.596 944.777 102.356C945.041 102.432 945.284 102.521 945.501 102.622C946.151 104.119 946.691 105.662 947.118 107.237C947.655 109.252 947.918 111.132 947.788 112.467C947.723 113.136 947.558 113.663 947.308 114.003C947.059 114.344 946.744 114.519 946.267 114.519C945.797 114.519 945.529 114.305 944.942 114.036C944.356 113.768 943.498 113.486 941.94 113.436C940.378 113.385 939.508 113.668 938.916 113.965C938.619 114.114 938.394 114.261 938.194 114.361C937.995 114.462 937.825 114.519 937.599 114.519C937.179 114.519 936.905 114.354 936.681 114.013C936.455 113.672 936.305 113.141 936.249 112.471C936.138 111.13 936.389 109.249 936.901 107.235C937.303 105.674 937.814 104.144 938.432 102.656C938.707 102.524 939.025 102.411 939.375 102.32ZM936.698 105.773C936.734 105.77 936.77 105.779 936.801 105.798C936.67 106.241 936.545 106.681 936.434 107.116C936.264 107.784 936.12 108.459 936.001 109.139C935.954 109.033 935.902 108.93 935.843 108.83C935.384 108.029 935.119 107.53 934.925 107.183C935.174 106.993 936.254 105.794 936.698 105.773ZM947.302 105.781C947.747 105.802 948.826 107.003 949.075 107.193C948.88 107.539 948.616 108.038 948.157 108.839C948.11 108.919 948.067 109.001 948.028 109.084C947.905 108.421 947.757 107.764 947.583 107.113C947.465 106.674 947.338 106.238 947.201 105.805C947.231 105.787 947.266 105.778 947.302 105.781Z" fill="#FFFDFD"/>
<rect x="1035.5" y="88" width="139" height="35" fill="#5FA04E"/>
<path d="M1095.2 99.3636V111H1093.07L1088.01 103.676H1087.92V111H1085.46V99.3636H1087.62L1092.65 106.682H1092.75V99.3636H1095.2ZM1107.92 105.182C1107.92 106.451 1107.68 107.53 1107.2 108.42C1106.72 109.311 1106.07 109.991 1105.25 110.46C1104.43 110.926 1103.5 111.159 1102.47 111.159C1101.44 111.159 1100.51 110.924 1099.69 110.455C1098.87 109.985 1098.22 109.305 1097.74 108.415C1097.26 107.525 1097.03 106.447 1097.03 105.182C1097.03 103.913 1097.26 102.833 1097.74 101.943C1098.22 101.053 1098.87 100.375 1099.69 99.9091C1100.51 99.4394 1101.44 99.2045 1102.47 99.2045C1103.5 99.2045 1104.43 99.4394 1105.25 99.9091C1106.07 100.375 1106.72 101.053 1107.2 101.943C1107.68 102.833 1107.92 103.913 1107.92 105.182ZM1105.43 105.182C1105.43 104.36 1105.31 103.667 1105.06 103.102C1104.82 102.538 1104.47 102.11 1104.03 101.818C1103.59 101.527 1103.07 101.381 1102.47 101.381C1101.88 101.381 1101.36 101.527 1100.92 101.818C1100.47 102.11 1100.13 102.538 1099.88 103.102C1099.64 103.667 1099.52 104.36 1099.52 105.182C1099.52 106.004 1099.64 106.697 1099.88 107.261C1100.13 107.826 1100.47 108.254 1100.92 108.545C1101.36 108.837 1101.88 108.983 1102.47 108.983C1103.07 108.983 1103.59 108.837 1104.03 108.545C1104.47 108.254 1104.82 107.826 1105.06 107.261C1105.31 106.697 1105.43 106.004 1105.43 105.182ZM1113.87 111H1109.75V99.3636H1113.9C1115.08 99.3636 1116.08 99.5966 1116.93 100.062C1117.77 100.525 1118.42 101.189 1118.88 102.057C1119.33 102.924 1119.56 103.962 1119.56 105.17C1119.56 106.383 1119.33 107.424 1118.88 108.295C1118.42 109.167 1117.77 109.835 1116.92 110.301C1116.07 110.767 1115.05 111 1113.87 111ZM1112.21 108.892H1113.77C1114.5 108.892 1115.11 108.763 1115.6 108.506C1116.1 108.244 1116.48 107.841 1116.73 107.295C1116.98 106.746 1117.11 106.038 1117.11 105.17C1117.11 104.311 1116.98 103.608 1116.73 103.062C1116.48 102.517 1116.11 102.116 1115.61 101.858C1115.11 101.6 1114.5 101.472 1113.77 101.472H1112.21V108.892ZM1121.39 111V99.3636H1129.23V101.392H1123.85V104.165H1128.82V106.193H1123.85V108.972H1129.25V111H1121.39ZM1132.55 111.148C1132.18 111.148 1131.86 111.015 1131.59 110.75C1131.32 110.481 1131.19 110.159 1131.19 109.784C1131.19 109.413 1131.32 109.095 1131.59 108.83C1131.86 108.564 1132.18 108.432 1132.55 108.432C1132.92 108.432 1133.23 108.564 1133.51 108.83C1133.78 109.095 1133.92 109.413 1133.92 109.784C1133.92 110.034 1133.85 110.263 1133.72 110.472C1133.6 110.676 1133.43 110.841 1133.23 110.966C1133.02 111.087 1132.8 111.148 1132.55 111.148ZM1140.61 99.3636H1143.04V107.477C1143.04 108.227 1142.87 108.879 1142.53 109.432C1142.2 109.985 1141.74 110.411 1141.14 110.71C1140.55 111.009 1139.86 111.159 1139.07 111.159C1138.37 111.159 1137.73 111.036 1137.16 110.79C1136.59 110.54 1136.14 110.161 1135.81 109.653C1135.47 109.142 1135.31 108.5 1135.31 107.727H1137.76C1137.77 108.034 1137.83 108.297 1137.95 108.517C1138.07 108.733 1138.23 108.9 1138.44 109.017C1138.66 109.131 1138.91 109.188 1139.19 109.188C1139.5 109.188 1139.75 109.123 1139.96 108.994C1140.17 108.862 1140.33 108.669 1140.44 108.415C1140.55 108.161 1140.61 107.848 1140.61 107.477V99.3636ZM1151.39 102.71C1151.34 102.252 1151.15 101.896 1150.8 101.642C1150.46 101.388 1149.99 101.261 1149.4 101.261C1149 101.261 1148.66 101.318 1148.38 101.432C1148.1 101.542 1147.89 101.695 1147.74 101.892C1147.6 102.089 1147.53 102.312 1147.53 102.562C1147.52 102.771 1147.56 102.953 1147.66 103.108C1147.76 103.263 1147.89 103.398 1148.06 103.511C1148.23 103.621 1148.43 103.718 1148.65 103.801C1148.88 103.881 1149.12 103.949 1149.37 104.006L1150.41 104.256C1150.92 104.369 1151.39 104.521 1151.81 104.71C1152.24 104.9 1152.6 105.133 1152.91 105.409C1153.23 105.686 1153.47 106.011 1153.64 106.386C1153.81 106.761 1153.9 107.191 1153.9 107.676C1153.9 108.388 1153.72 109.006 1153.36 109.528C1153 110.047 1152.49 110.451 1151.81 110.739C1151.14 111.023 1150.33 111.165 1149.39 111.165C1148.45 111.165 1147.63 111.021 1146.93 110.733C1146.24 110.445 1145.7 110.019 1145.31 109.455C1144.92 108.886 1144.72 108.184 1144.7 107.347H1147.08C1147.11 107.737 1147.22 108.062 1147.41 108.324C1147.62 108.581 1147.88 108.777 1148.22 108.909C1148.55 109.038 1148.93 109.102 1149.36 109.102C1149.77 109.102 1150.14 109.042 1150.44 108.92C1150.75 108.799 1150.99 108.631 1151.16 108.415C1151.34 108.199 1151.42 107.951 1151.42 107.67C1151.42 107.409 1151.34 107.189 1151.19 107.011C1151.04 106.833 1150.81 106.682 1150.52 106.557C1150.23 106.432 1149.87 106.318 1149.44 106.216L1148.18 105.898C1147.2 105.659 1146.42 105.286 1145.85 104.778C1145.28 104.271 1145 103.587 1145.01 102.727C1145 102.023 1145.19 101.407 1145.57 100.881C1145.95 100.354 1146.48 99.9432 1147.14 99.6477C1147.81 99.3523 1148.57 99.2045 1149.41 99.2045C1150.28 99.2045 1151.03 99.3523 1151.68 99.6477C1152.32 99.9432 1152.83 100.354 1153.19 100.881C1153.55 101.407 1153.73 102.017 1153.74 102.71H1151.39Z" fill="white"/>
<g clip-path="url(#clip6_920_4506)">
<path d="M1060 115C1059.74 115 1059.49 114.934 1059.27 114.805L1056.94 113.43C1056.6 113.236 1056.77 113.167 1056.88 113.126C1057.34 112.966 1057.44 112.928 1057.93 112.648C1057.98 112.619 1058.05 112.63 1058.1 112.662L1059.89 113.722C1059.95 113.757 1060.05 113.757 1060.11 113.722L1067.07 109.703C1067.13 109.666 1067.17 109.592 1067.17 109.515V101.479C1067.17 101.401 1067.13 101.327 1067.07 101.288L1060.11 97.2724C1060.04 97.2352 1059.96 97.2352 1059.89 97.2724L1052.93 101.289C1052.87 101.327 1052.82 101.403 1052.82 101.479V109.515C1052.82 109.592 1052.87 109.664 1052.93 109.701L1054.84 110.803C1055.88 111.321 1056.51 110.711 1056.51 110.098V102.165C1056.51 102.052 1056.6 101.965 1056.71 101.965H1057.59C1057.7 101.965 1057.8 102.053 1057.8 102.165V110.098C1057.8 111.48 1057.04 112.271 1055.74 112.271C1055.33 112.271 1055.02 112.271 1054.13 111.835L1052.3 110.785C1051.85 110.524 1051.57 110.036 1051.57 109.515V101.479C1051.57 100.958 1051.85 100.47 1052.3 100.21L1059.27 96.187C1059.71 95.9377 1060.29 95.9377 1060.73 96.187L1067.69 100.21C1068.14 100.471 1068.42 100.958 1068.42 101.479V109.515C1068.42 110.036 1068.14 110.523 1067.69 110.785L1060.73 114.805C1060.51 114.934 1060.26 115 1060 115ZM1065.62 107.078C1065.62 105.574 1064.6 105.173 1062.46 104.891C1060.3 104.605 1060.08 104.457 1060.08 103.951C1060.08 103.533 1060.27 102.975 1061.87 102.975C1063.3 102.975 1063.83 103.283 1064.04 104.247C1064.06 104.338 1064.15 104.405 1064.24 104.405H1065.14C1065.2 104.405 1065.25 104.38 1065.29 104.34C1065.33 104.298 1065.35 104.243 1065.34 104.185C1065.2 102.524 1064.1 101.75 1061.87 101.75C1059.88 101.75 1058.7 102.588 1058.7 103.993C1058.7 105.517 1059.88 105.938 1061.78 106.126C1064.06 106.35 1064.24 106.683 1064.24 107.131C1064.24 107.909 1063.61 108.241 1062.15 108.241C1060.3 108.241 1059.9 107.779 1059.76 106.862C1059.75 106.764 1059.66 106.692 1059.56 106.692H1058.66C1058.55 106.692 1058.46 106.78 1058.46 106.892C1058.46 108.065 1059.1 109.463 1062.15 109.463C1064.35 109.464 1065.62 108.596 1065.62 107.078Z" fill="#FFFDFD"/>
</g>
<rect x="1188.5" y="88" width="94" height="35" fill="#9843AF"/>
<path d="M1250.07 103.438H1247.58C1247.53 103.116 1247.44 102.83 1247.3 102.58C1247.16 102.326 1246.98 102.11 1246.76 101.932C1246.54 101.754 1246.29 101.617 1246 101.523C1245.72 101.428 1245.41 101.381 1245.07 101.381C1244.47 101.381 1243.95 101.53 1243.5 101.83C1243.05 102.125 1242.71 102.557 1242.46 103.125C1242.21 103.689 1242.09 104.375 1242.09 105.182C1242.09 106.011 1242.21 106.708 1242.46 107.273C1242.71 107.837 1243.06 108.263 1243.5 108.551C1243.95 108.839 1244.47 108.983 1245.06 108.983C1245.39 108.983 1245.69 108.939 1245.97 108.852C1246.25 108.765 1246.51 108.638 1246.73 108.472C1246.95 108.301 1247.13 108.095 1247.27 107.852C1247.42 107.61 1247.52 107.333 1247.58 107.023L1250.07 107.034C1250 107.568 1249.84 108.083 1249.58 108.58C1249.33 109.072 1248.99 109.513 1248.56 109.903C1248.13 110.29 1247.62 110.597 1247.02 110.824C1246.43 111.047 1245.76 111.159 1245.02 111.159C1243.98 111.159 1243.05 110.924 1242.23 110.455C1241.42 109.985 1240.77 109.305 1240.3 108.415C1239.83 107.525 1239.6 106.447 1239.6 105.182C1239.6 103.913 1239.83 102.833 1240.31 101.943C1240.79 101.053 1241.44 100.375 1242.25 99.9091C1243.07 99.4394 1243.99 99.2045 1245.02 99.2045C1245.69 99.2045 1246.32 99.2992 1246.89 99.4886C1247.47 99.678 1247.98 99.9545 1248.43 100.318C1248.88 100.678 1249.24 101.119 1249.52 101.642C1249.81 102.165 1249.99 102.763 1250.07 103.438ZM1256.2 111L1258.1 99.3636H1259.92L1258.01 111H1256.2ZM1250.99 108.114L1251.29 106.295H1260.38L1260.08 108.114H1250.99ZM1252.1 111L1254.01 99.3636H1255.83L1253.92 111H1252.1ZM1251.65 104.068L1251.96 102.25H1261.05L1260.74 104.068H1251.65Z" fill="white"/>
<path d="M1217.03 105.079H1217.56L1217.49 105.723H1216.96L1217.03 105.079ZM1221.5 101.47V109.53C1221.48 110.039 1221.22 110.494 1220.76 110.796L1213.74 114.826C1213.33 115.058 1212.67 115.058 1212.26 114.826L1205.24 110.796C1204.81 110.518 1204.53 110.071 1204.5 109.53V101.47C1204.5 101.006 1204.83 100.436 1205.24 100.204L1212.26 96.1741C1212.67 95.942 1213.33 95.942 1213.74 96.1741L1220.76 100.204C1221.19 100.489 1221.48 100.982 1221.5 101.47ZM1217.91 108.316L1215.46 106.906C1213.82 109.507 1210.21 108.236 1210.17 105.5C1210.3 102.531 1213.97 101.662 1215.45 104.094L1217.91 102.684C1214.71 97.578 1207.3 100.005 1207.33 105.5C1207.48 111.425 1215.09 113.172 1217.91 108.316ZM1218.49 104.631H1218.07L1218.15 103.904H1217.68L1217.6 104.631H1217.07L1217.15 103.904H1216.68L1216.6 104.631H1216.16V105.079H1216.55L1216.49 105.723H1216.03V106.171H1216.44L1216.35 106.966H1216.83L1216.91 106.171H1217.44L1217.35 106.966H1217.83L1217.91 106.171H1218.36V105.723H1217.96L1218.03 105.079H1218.49V104.631Z" fill="white"/>
<rect x="941.5" y="137" width="129" height="35" fill="#6DB33F"/>
<path d="M997.941 151.71C997.896 151.252 997.701 150.896 997.356 150.642C997.011 150.388 996.543 150.261 995.952 150.261C995.551 150.261 995.212 150.318 994.935 150.432C994.659 150.542 994.447 150.695 994.299 150.892C994.155 151.089 994.083 151.312 994.083 151.562C994.076 151.771 994.119 151.953 994.214 152.108C994.312 152.263 994.447 152.398 994.617 152.511C994.788 152.621 994.985 152.718 995.208 152.801C995.432 152.881 995.67 152.949 995.924 153.006L996.969 153.256C997.477 153.369 997.943 153.521 998.367 153.71C998.791 153.9 999.159 154.133 999.469 154.409C999.78 154.686 1000.02 155.011 1000.19 155.386C1000.37 155.761 1000.45 156.191 1000.46 156.676C1000.45 157.388 1000.27 158.006 999.913 158.528C999.557 159.047 999.041 159.451 998.367 159.739C997.697 160.023 996.888 160.165 995.941 160.165C995.002 160.165 994.183 160.021 993.487 159.733C992.793 159.445 992.252 159.019 991.862 158.455C991.475 157.886 991.272 157.184 991.254 156.347H993.634C993.661 156.737 993.772 157.062 993.969 157.324C994.17 157.581 994.437 157.777 994.771 157.909C995.108 158.038 995.488 158.102 995.913 158.102C996.329 158.102 996.691 158.042 996.998 157.92C997.308 157.799 997.549 157.631 997.719 157.415C997.89 157.199 997.975 156.951 997.975 156.67C997.975 156.409 997.897 156.189 997.742 156.011C997.591 155.833 997.367 155.682 997.072 155.557C996.78 155.432 996.422 155.318 995.998 155.216L994.731 154.898C993.75 154.659 992.975 154.286 992.407 153.778C991.839 153.271 991.557 152.587 991.56 151.727C991.557 151.023 991.744 150.407 992.123 149.881C992.505 149.354 993.03 148.943 993.697 148.648C994.363 148.352 995.121 148.205 995.969 148.205C996.833 148.205 997.587 148.352 998.231 148.648C998.879 148.943 999.382 149.354 999.742 149.881C1000.1 150.407 1000.29 151.017 1000.3 151.71H997.941ZM1002.11 160V148.364H1006.7C1007.59 148.364 1008.34 148.532 1008.96 148.869C1009.58 149.203 1010.05 149.667 1010.38 150.261C1010.71 150.852 1010.87 151.534 1010.87 152.307C1010.87 153.08 1010.71 153.761 1010.37 154.352C1010.04 154.943 1009.56 155.403 1008.93 155.733C1008.3 156.062 1007.54 156.227 1006.64 156.227H1003.72V154.256H1006.24C1006.72 154.256 1007.11 154.174 1007.41 154.011C1007.72 153.845 1007.96 153.616 1008.11 153.324C1008.26 153.028 1008.34 152.689 1008.34 152.307C1008.34 151.92 1008.26 151.583 1008.11 151.295C1007.96 151.004 1007.72 150.778 1007.41 150.619C1007.1 150.456 1006.71 150.375 1006.23 150.375H1004.57V160H1002.11ZM1012.47 160V148.364H1017.06C1017.94 148.364 1018.69 148.521 1019.31 148.835C1019.94 149.146 1020.41 149.587 1020.74 150.159C1021.07 150.727 1021.23 151.396 1021.23 152.165C1021.23 152.937 1021.07 153.602 1020.73 154.159C1020.4 154.712 1019.92 155.136 1019.28 155.432C1018.66 155.727 1017.89 155.875 1017 155.875H1013.93V153.898H1016.6C1017.07 153.898 1017.46 153.833 1017.77 153.705C1018.08 153.576 1018.32 153.383 1018.47 153.125C1018.62 152.867 1018.7 152.547 1018.7 152.165C1018.7 151.778 1018.62 151.453 1018.47 151.188C1018.32 150.922 1018.08 150.722 1017.77 150.585C1017.46 150.445 1017.07 150.375 1016.59 150.375H1014.93V160H1012.47ZM1018.76 154.705L1021.65 160H1018.93L1016.1 154.705H1018.76ZM1025.43 148.364V160H1022.97V148.364H1025.43ZM1037.19 148.364V160H1035.06L1030 152.676H1029.92V160H1027.46V148.364H1029.62L1034.64 155.682H1034.74V148.364H1037.19ZM1046.94 152.125C1046.86 151.848 1046.75 151.604 1046.6 151.392C1046.46 151.176 1046.28 150.994 1046.07 150.847C1045.87 150.695 1045.64 150.58 1045.37 150.5C1045.11 150.42 1044.82 150.381 1044.5 150.381C1043.91 150.381 1043.38 150.528 1042.93 150.824C1042.49 151.119 1042.14 151.549 1041.89 152.114C1041.64 152.674 1041.51 153.36 1041.51 154.17C1041.51 154.981 1041.64 155.67 1041.88 156.239C1042.13 156.807 1042.48 157.241 1042.93 157.54C1043.38 157.835 1043.91 157.983 1044.52 157.983C1045.08 157.983 1045.56 157.884 1045.95 157.688C1046.35 157.487 1046.65 157.205 1046.86 156.841C1047.07 156.477 1047.18 156.047 1047.18 155.551L1047.68 155.625H1044.68V153.773H1049.55V155.239C1049.55 156.261 1049.33 157.14 1048.9 157.875C1048.47 158.606 1047.87 159.17 1047.11 159.568C1046.36 159.962 1045.49 160.159 1044.51 160.159C1043.42 160.159 1042.46 159.919 1041.64 159.438C1040.81 158.953 1040.17 158.265 1039.71 157.375C1039.25 156.481 1039.02 155.42 1039.02 154.193C1039.02 153.25 1039.15 152.409 1039.43 151.67C1039.7 150.928 1040.09 150.299 1040.59 149.784C1041.08 149.269 1041.66 148.877 1042.32 148.608C1042.98 148.339 1043.69 148.205 1044.46 148.205C1045.12 148.205 1045.73 148.301 1046.3 148.494C1046.87 148.684 1047.37 148.953 1047.81 149.301C1048.26 149.65 1048.62 150.064 1048.9 150.545C1049.18 151.023 1049.36 151.549 1049.44 152.125H1046.94Z" fill="white"/>
<g clip-path="url(#clip7_920_4506)">
<path d="M973.8 146.121C973.536 146.754 973.195 147.351 972.784 147.9C971.903 146.989 970.849 146.265 969.683 145.769C968.517 145.273 967.264 145.015 965.998 145.012C964.731 145.009 963.476 145.26 962.308 145.75C961.14 146.24 960.082 146.959 959.197 147.866C958.312 148.772 957.617 149.846 957.155 151.025C956.692 152.205 956.47 153.465 956.503 154.731C956.536 155.997 956.822 157.244 957.345 158.398C957.868 159.551 958.618 160.588 959.549 161.448L959.9 161.76C961.236 162.887 962.857 163.621 964.584 163.883C966.311 164.145 968.077 163.923 969.686 163.243C971.295 162.563 972.684 161.451 973.7 160.03C974.716 158.609 975.319 156.934 975.442 155.192C975.716 152.807 974.992 149.757 973.8 146.121ZM960.917 161.526C960.817 161.649 960.682 161.74 960.529 161.787C960.377 161.834 960.215 161.835 960.062 161.789C959.909 161.744 959.774 161.654 959.672 161.531C959.571 161.409 959.508 161.259 959.491 161.1C959.475 160.942 959.506 160.782 959.58 160.641C959.654 160.501 959.769 160.385 959.909 160.309C960.049 160.233 960.208 160.201 960.367 160.215C960.525 160.23 960.676 160.292 960.8 160.392C960.962 160.529 961.065 160.724 961.086 160.935C961.108 161.147 961.048 161.358 960.917 161.526ZM973.741 158.691C971.415 161.799 966.41 160.744 963.224 160.9C963.224 160.9 962.657 160.939 962.09 161.017C962.09 161.017 962.305 160.92 962.579 160.822C964.827 160.04 965.883 159.884 967.251 159.18C969.812 157.87 972.373 154.996 972.881 152.025C971.904 154.879 968.932 157.342 966.234 158.339C964.377 159.024 961.034 159.688 961.034 159.688L960.898 159.61C958.63 158.496 958.552 153.569 962.696 151.986C964.514 151.282 966.234 151.673 968.209 151.204C970.301 150.715 972.725 149.151 973.702 147.098C974.797 150.402 976.126 155.524 973.741 158.691Z" fill="#FFFDFD"/>
</g>
<rect x="1084.5" y="137" width="174" height="35" fill="#6DB33F"/>
<path d="M1138.71 151.71C1138.66 151.252 1138.47 150.896 1138.12 150.642C1137.78 150.388 1137.31 150.261 1136.72 150.261C1136.32 150.261 1135.98 150.318 1135.7 150.432C1135.42 150.542 1135.21 150.695 1135.06 150.892C1134.92 151.089 1134.85 151.312 1134.85 151.562C1134.84 151.771 1134.88 151.953 1134.98 152.108C1135.08 152.263 1135.21 152.398 1135.38 152.511C1135.55 152.621 1135.75 152.718 1135.97 152.801C1136.2 152.881 1136.44 152.949 1136.69 153.006L1137.74 153.256C1138.24 153.369 1138.71 153.521 1139.13 153.71C1139.56 153.9 1139.92 154.133 1140.24 154.409C1140.55 154.686 1140.79 155.011 1140.96 155.386C1141.13 155.761 1141.22 156.191 1141.22 156.676C1141.22 157.388 1141.04 158.006 1140.68 158.528C1140.32 159.047 1139.81 159.451 1139.13 159.739C1138.46 160.023 1137.65 160.165 1136.71 160.165C1135.77 160.165 1134.95 160.021 1134.25 159.733C1133.56 159.445 1133.02 159.019 1132.63 158.455C1132.24 157.886 1132.04 157.184 1132.02 156.347H1134.4C1134.43 156.737 1134.54 157.062 1134.74 157.324C1134.94 157.581 1135.2 157.777 1135.54 157.909C1135.87 158.038 1136.25 158.102 1136.68 158.102C1137.09 158.102 1137.46 158.042 1137.76 157.92C1138.07 157.799 1138.31 157.631 1138.49 157.415C1138.66 157.199 1138.74 156.951 1138.74 156.67C1138.74 156.409 1138.66 156.189 1138.51 156.011C1138.36 155.833 1138.13 155.682 1137.84 155.557C1137.55 155.432 1137.19 155.318 1136.76 155.216L1135.5 154.898C1134.52 154.659 1133.74 154.286 1133.17 153.778C1132.6 153.271 1132.32 152.587 1132.33 151.727C1132.32 151.023 1132.51 150.407 1132.89 149.881C1133.27 149.354 1133.8 148.943 1134.46 148.648C1135.13 148.352 1135.89 148.205 1136.74 148.205C1137.6 148.205 1138.35 148.352 1139 148.648C1139.64 148.943 1140.15 149.354 1140.51 149.881C1140.87 150.407 1141.05 151.017 1141.06 151.71H1138.71ZM1142.88 160V148.364H1147.47C1148.35 148.364 1149.1 148.532 1149.73 148.869C1150.35 149.203 1150.82 149.667 1151.15 150.261C1151.48 150.852 1151.64 151.534 1151.64 152.307C1151.64 153.08 1151.47 153.761 1151.14 154.352C1150.81 154.943 1150.32 155.403 1149.69 155.733C1149.06 156.062 1148.3 156.227 1147.41 156.227H1144.48V154.256H1147.01C1147.48 154.256 1147.87 154.174 1148.18 154.011C1148.49 153.845 1148.72 153.616 1148.87 153.324C1149.03 153.028 1149.11 152.689 1149.11 152.307C1149.11 151.92 1149.03 151.583 1148.87 151.295C1148.72 151.004 1148.49 150.778 1148.18 150.619C1147.87 150.456 1147.48 150.375 1147 150.375H1145.34V160H1142.88ZM1153.24 160V148.364H1157.83C1158.71 148.364 1159.46 148.521 1160.08 148.835C1160.7 149.146 1161.18 149.587 1161.5 150.159C1161.83 150.727 1162 151.396 1162 152.165C1162 152.937 1161.83 153.602 1161.5 154.159C1161.17 154.712 1160.68 155.136 1160.05 155.432C1159.42 155.727 1158.66 155.875 1157.77 155.875H1154.69V153.898H1157.37C1157.84 153.898 1158.23 153.833 1158.54 153.705C1158.85 153.576 1159.08 153.383 1159.23 153.125C1159.39 152.867 1159.47 152.547 1159.47 152.165C1159.47 151.778 1159.39 151.453 1159.23 151.188C1159.08 150.922 1158.85 150.722 1158.53 150.585C1158.22 150.445 1157.83 150.375 1157.36 150.375H1155.7V160H1153.24ZM1159.52 154.705L1162.41 160H1159.7L1156.87 154.705H1159.52ZM1166.2 148.364V160H1163.74V148.364H1166.2ZM1177.96 148.364V160H1175.83L1170.77 152.676H1170.68V160H1168.22V148.364H1170.38L1175.4 155.682H1175.51V148.364H1177.96ZM1187.7 152.125C1187.62 151.848 1187.51 151.604 1187.37 151.392C1187.22 151.176 1187.05 150.994 1186.84 150.847C1186.64 150.695 1186.4 150.58 1186.14 150.5C1185.87 150.42 1185.58 150.381 1185.27 150.381C1184.67 150.381 1184.15 150.528 1183.7 150.824C1183.25 151.119 1182.9 151.549 1182.65 152.114C1182.4 152.674 1182.28 153.36 1182.28 154.17C1182.28 154.981 1182.4 155.67 1182.65 156.239C1182.89 156.807 1183.24 157.241 1183.69 157.54C1184.14 157.835 1184.68 157.983 1185.29 157.983C1185.85 157.983 1186.32 157.884 1186.72 157.688C1187.11 157.487 1187.42 157.205 1187.62 156.841C1187.84 156.477 1187.94 156.047 1187.94 155.551L1188.44 155.625H1185.44V153.773H1190.31V155.239C1190.31 156.261 1190.1 157.14 1189.66 157.875C1189.23 158.606 1188.64 159.17 1187.88 159.568C1187.12 159.962 1186.25 160.159 1185.28 160.159C1184.19 160.159 1183.23 159.919 1182.4 159.438C1181.58 158.953 1180.93 158.265 1180.47 157.375C1180.01 156.481 1179.78 155.42 1179.78 154.193C1179.78 153.25 1179.92 152.409 1180.19 151.67C1180.47 150.928 1180.86 150.299 1181.35 149.784C1181.85 149.269 1182.43 148.877 1183.08 148.608C1183.74 148.339 1184.46 148.205 1185.23 148.205C1185.89 148.205 1186.5 148.301 1187.07 148.494C1187.64 148.684 1188.14 148.953 1188.58 149.301C1189.02 149.65 1189.38 150.064 1189.66 150.545C1189.94 151.023 1190.12 151.549 1190.2 152.125H1187.7ZM1195.86 160V148.364H1200.52C1201.38 148.364 1202.09 148.491 1202.66 148.744C1203.24 148.998 1203.67 149.35 1203.95 149.801C1204.24 150.248 1204.39 150.763 1204.39 151.347C1204.39 151.801 1204.29 152.201 1204.11 152.545C1203.93 152.886 1203.68 153.167 1203.36 153.386C1203.05 153.602 1202.69 153.756 1202.28 153.847V153.96C1202.73 153.979 1203.14 154.104 1203.53 154.335C1203.92 154.566 1204.23 154.89 1204.48 155.307C1204.72 155.72 1204.84 156.212 1204.84 156.784C1204.84 157.402 1204.69 157.953 1204.38 158.438C1204.08 158.919 1203.63 159.299 1203.03 159.58C1202.44 159.86 1201.71 160 1200.83 160H1195.86ZM1198.32 157.989H1200.33C1201.01 157.989 1201.51 157.858 1201.83 157.597C1202.14 157.331 1202.3 156.979 1202.3 156.54C1202.3 156.218 1202.22 155.934 1202.07 155.688C1201.91 155.441 1201.69 155.248 1201.4 155.108C1201.12 154.968 1200.78 154.898 1200.39 154.898H1198.32V157.989ZM1198.32 153.233H1200.15C1200.48 153.233 1200.78 153.174 1201.04 153.057C1201.31 152.936 1201.52 152.765 1201.67 152.545C1201.83 152.326 1201.9 152.062 1201.9 151.756C1201.9 151.335 1201.75 150.996 1201.45 150.739C1201.16 150.481 1200.74 150.352 1200.19 150.352H1198.32V153.233ZM1217.13 154.182C1217.13 155.451 1216.89 156.53 1216.41 157.42C1215.94 158.311 1215.28 158.991 1214.46 159.46C1213.64 159.926 1212.71 160.159 1211.69 160.159C1210.65 160.159 1209.72 159.924 1208.9 159.455C1208.08 158.985 1207.43 158.305 1206.95 157.415C1206.48 156.525 1206.24 155.447 1206.24 154.182C1206.24 152.913 1206.48 151.833 1206.95 150.943C1207.43 150.053 1208.08 149.375 1208.9 148.909C1209.72 148.439 1210.65 148.205 1211.69 148.205C1212.71 148.205 1213.64 148.439 1214.46 148.909C1215.28 149.375 1215.94 150.053 1216.41 150.943C1216.89 151.833 1217.13 152.913 1217.13 154.182ZM1214.64 154.182C1214.64 153.36 1214.52 152.667 1214.27 152.102C1214.03 151.538 1213.69 151.11 1213.24 150.818C1212.8 150.527 1212.28 150.381 1211.69 150.381C1211.09 150.381 1210.57 150.527 1210.13 150.818C1209.69 151.11 1209.34 151.538 1209.09 152.102C1208.85 152.667 1208.73 153.36 1208.73 154.182C1208.73 155.004 1208.85 155.697 1209.09 156.261C1209.34 156.826 1209.69 157.254 1210.13 157.545C1210.57 157.837 1211.09 157.983 1211.69 157.983C1212.28 157.983 1212.8 157.837 1213.24 157.545C1213.69 157.254 1214.03 156.826 1214.27 156.261C1214.52 155.697 1214.64 155.004 1214.64 154.182ZM1229.65 154.182C1229.65 155.451 1229.41 156.53 1228.93 157.42C1228.45 158.311 1227.8 158.991 1226.97 159.46C1226.15 159.926 1225.23 160.159 1224.2 160.159C1223.17 160.159 1222.24 159.924 1221.42 159.455C1220.59 158.985 1219.95 158.305 1219.47 157.415C1218.99 156.525 1218.75 155.447 1218.75 154.182C1218.75 152.913 1218.99 151.833 1219.47 150.943C1219.95 150.053 1220.59 149.375 1221.42 148.909C1222.24 148.439 1223.17 148.205 1224.2 148.205C1225.23 148.205 1226.15 148.439 1226.97 148.909C1227.8 149.375 1228.45 150.053 1228.93 150.943C1229.41 151.833 1229.65 152.913 1229.65 154.182ZM1227.16 154.182C1227.16 153.36 1227.03 152.667 1226.79 152.102C1226.54 151.538 1226.2 151.11 1225.76 150.818C1225.31 150.527 1224.8 150.381 1224.2 150.381C1223.61 150.381 1223.09 150.527 1222.64 150.818C1222.2 151.11 1221.86 151.538 1221.61 152.102C1221.37 152.667 1221.25 153.36 1221.25 154.182C1221.25 155.004 1221.37 155.697 1221.61 156.261C1221.86 156.826 1222.2 157.254 1222.64 157.545C1223.09 157.837 1223.61 157.983 1224.2 157.983C1224.8 157.983 1225.31 157.837 1225.76 157.545C1226.2 157.254 1226.54 156.826 1226.79 156.261C1227.03 155.697 1227.16 155.004 1227.16 154.182ZM1230.5 150.392V148.364H1240.05V150.392H1236.49V160H1234.06V150.392H1230.5Z" fill="white"/>
<g clip-path="url(#clip8_920_4506)">
<path d="M1118.26 153.476L1114.51 146.996C1114.19 146.434 1113.39 145.972 1112.74 145.972H1105.26C1104.61 145.972 1103.81 146.434 1103.48 146.996L1099.74 153.476C1099.42 154.038 1099.42 154.958 1099.74 155.521L1103.48 162.004C1103.81 162.567 1104.61 163.029 1105.26 163.029H1112.74C1113.39 163.029 1114.19 162.567 1114.52 162.004L1118.26 155.521C1118.58 154.958 1118.58 154.038 1118.26 153.476ZM1108.19 149.556C1108.19 149.131 1108.54 148.785 1108.96 148.785C1109.39 148.785 1109.73 149.131 1109.73 149.556V154.165C1109.73 154.59 1109.39 154.936 1108.96 154.936C1108.54 154.936 1108.19 154.59 1108.19 154.165V149.556ZM1108.96 159.396C1106.08 159.396 1103.73 157.049 1103.73 154.165C1103.73 152.511 1104.52 150.957 1105.84 149.966C1105.91 149.912 1106 149.873 1106.08 149.85C1106.17 149.828 1106.26 149.824 1106.35 149.837C1106.44 149.85 1106.53 149.881 1106.61 149.927C1106.68 149.973 1106.75 150.035 1106.8 150.107C1106.86 150.18 1106.9 150.262 1106.92 150.35C1106.94 150.437 1106.95 150.528 1106.93 150.617C1106.92 150.707 1106.89 150.793 1106.84 150.87C1106.8 150.947 1106.73 151.015 1106.66 151.069C1104.95 152.339 1104.59 154.757 1105.86 156.467C1107.14 158.178 1109.55 158.535 1111.26 157.265C1112.24 156.538 1112.82 155.387 1112.82 154.165C1112.82 153.56 1112.68 152.964 1112.4 152.425C1112.13 151.885 1111.73 151.417 1111.25 151.058C1110.94 150.834 1110.88 150.402 1111.1 150.096C1111.33 149.791 1111.76 149.727 1112.06 149.951C1113.4 150.938 1114.19 152.503 1114.19 154.165C1114.19 157.052 1111.84 159.396 1108.96 159.396Z" fill="#FFFDFD"/>
</g>
</g>
<defs>
<filter id="filter0_d_920_4506" x="16" y="80" width="768" height="108" filterUnits="userSpaceOnUse" color-interpolation-filters="sRGB">
<feFlood flood-opacity="0" result="BackgroundImageFix"/>
<feColorMatrix in="SourceAlpha" type="matrix" values="0 0 0 0 0 0 0 0 0 0 0 0 0 0 0 0 0 0 127 0" result="hardAlpha"/>
<feOffset dy="4"/>
<feGaussianBlur stdDeviation="2"/>
<feComposite in2="hardAlpha" operator="out"/>
<feColorMatrix type="matrix" values="0 0 0 0 0 0 0 0 0 0 0 0 0 0 0 0 0 0 0.25 0"/>
<feBlend mode="normal" in2="BackgroundImageFix" result="effect1_dropShadow_920_4506"/>
<feBlend mode="normal" in="SourceGraphic" in2="effect1_dropShadow_920_4506" result="shape"/>
</filter>
<filter id="filter1_d_920_4506" x="866" y="80" width="468" height="108" filterUnits="userSpaceOnUse" color-interpolation-filters="sRGB">
<feFlood flood-opacity="0" result="BackgroundImageFix"/>
<feColorMatrix in="SourceAlpha" type="matrix" values="0 0 0 0 0 0 0 0 0 0 0 0 0 0 0 0 0 0 127 0" result="hardAlpha"/>
<feOffset dy="4"/>
<feGaussianBlur stdDeviation="2"/>
<feComposite in2="hardAlpha" operator="out"/>
<feColorMatrix type="matrix" values="0 0 0 0 0 0 0 0 0 0 0 0 0 0 0 0 0 0 0.25 0"/>
<feBlend mode="normal" in2="BackgroundImageFix" result="effect1_dropShadow_920_4506"/>
<feBlend mode="normal" in="SourceGraphic" in2="effect1_dropShadow_920_4506" result="shape"/>
</filter>
<clipPath id="clip0_920_4506">
<rect width="19" height="19" fill="white" transform="translate(49.5 96)"/>
</clipPath>
<clipPath id="clip1_920_4506">
<rect width="19" height="19" fill="white" transform="translate(355.5 96)"/>
</clipPath>
<clipPath id="clip2_920_4506">
<rect width="19" height="19" fill="white" transform="translate(533.5 96)"/>
</clipPath>
<clipPath id="clip3_920_4506">
<rect width="19" height="19" fill="white" transform="translate(201.5 145)"/>
</clipPath>
<clipPath id="clip4_920_4506">
<rect width="19" height="19" fill="white" transform="translate(394.5 145)"/>
</clipPath>
<clipPath id="clip5_920_4506">
<rect width="19" height="19" fill="white" transform="translate(577.5 145)"/>
</clipPath>
<clipPath id="clip6_920_4506">
<rect width="19" height="19" fill="white" transform="translate(1050.5 96)"/>
</clipPath>
<clipPath id="clip7_920_4506">
<rect width="19" height="19" fill="white" transform="translate(956.5 145)"/>
</clipPath>
<clipPath id="clip8_920_4506">
<rect width="19" height="19" fill="white" transform="translate(1099.5 145)"/>
</clipPath>
</defs>
</svg>
