<svg width="450" height="150" viewBox="0 0 450 150" fill="none" xmlns="http://www.w3.org/2000/svg">
<rect width="450" height="150" rx="25" fill="#1A1A1A"/>
<path d="M202.728 88.3707C201.475 88.3707 200.358 88.1534 199.378 87.7188C198.398 87.2756 197.623 86.6236 197.052 85.7628C196.489 84.8935 196.208 83.8111 196.208 82.5156C196.208 81.4247 196.408 80.5085 196.809 79.767C197.209 79.0256 197.755 78.429 198.445 77.9773C199.135 77.5256 199.92 77.1847 200.797 76.9545C201.684 76.7244 202.613 76.5625 203.584 76.4688C204.726 76.3494 205.647 76.2386 206.346 76.1364C207.045 76.0256 207.552 75.8636 207.867 75.6506C208.182 75.4375 208.34 75.1222 208.34 74.7045V74.6278C208.34 73.8182 208.084 73.1918 207.573 72.7486C207.07 72.3054 206.354 72.0838 205.425 72.0838C204.445 72.0838 203.665 72.3011 203.086 72.7358C202.506 73.1619 202.123 73.6989 201.935 74.3466L196.898 73.9375C197.154 72.7443 197.657 71.7131 198.407 70.8438C199.157 69.9659 200.124 69.2926 201.309 68.8239C202.502 68.3466 203.883 68.108 205.451 68.108C206.542 68.108 207.586 68.2358 208.583 68.4915C209.589 68.7472 210.479 69.1435 211.255 69.6804C212.039 70.2173 212.657 70.9077 213.108 71.7514C213.56 72.5866 213.786 73.5881 213.786 74.7557V88H208.621V85.277H208.468C208.153 85.8906 207.731 86.4318 207.202 86.9006C206.674 87.3608 206.039 87.723 205.297 87.9872C204.556 88.2429 203.699 88.3707 202.728 88.3707ZM204.287 84.6122C205.089 84.6122 205.796 84.4545 206.41 84.1392C207.023 83.8153 207.505 83.3807 207.854 82.8352C208.204 82.2898 208.378 81.6719 208.378 80.9815V78.8977C208.208 79.0085 207.974 79.1108 207.675 79.2045C207.385 79.2898 207.057 79.3707 206.691 79.4474C206.324 79.5156 205.958 79.5795 205.591 79.6392C205.225 79.6903 204.893 79.7372 204.594 79.7798C203.955 79.8736 203.397 80.0227 202.92 80.2273C202.442 80.4318 202.072 80.7088 201.807 81.0582C201.543 81.3991 201.411 81.8253 201.411 82.3366C201.411 83.0781 201.68 83.6449 202.216 84.0369C202.762 84.4205 203.452 84.6122 204.287 84.6122ZM223.457 61.8182V88H218.011V61.8182H223.457ZM236.769 88.3835C234.749 88.3835 233.01 87.9744 231.553 87.1562C230.104 86.3295 228.987 85.1619 228.203 83.6534C227.419 82.1364 227.027 80.3423 227.027 78.2713C227.027 76.2514 227.419 74.4787 228.203 72.9531C228.987 71.4276 230.091 70.2386 231.514 69.3864C232.946 68.5341 234.625 68.108 236.551 68.108C237.847 68.108 239.053 68.3168 240.169 68.7344C241.294 69.1435 242.274 69.7614 243.11 70.5881C243.953 71.4148 244.61 72.4545 245.078 73.7074C245.547 74.9517 245.781 76.4091 245.781 78.0795V79.5753H229.2V76.2003H240.655C240.655 75.4162 240.485 74.7216 240.144 74.1165C239.803 73.5114 239.33 73.0384 238.725 72.6974C238.128 72.348 237.433 72.1733 236.641 72.1733C235.814 72.1733 235.081 72.3651 234.442 72.7486C233.811 73.1236 233.317 73.6307 232.959 74.2699C232.601 74.9006 232.418 75.6037 232.409 76.3793V79.5881C232.409 80.5597 232.588 81.3991 232.946 82.1065C233.313 82.8139 233.828 83.3594 234.493 83.7429C235.158 84.1264 235.946 84.3182 236.858 84.3182C237.463 84.3182 238.017 84.233 238.52 84.0625C239.023 83.892 239.453 83.6364 239.811 83.2955C240.169 82.9545 240.442 82.5369 240.629 82.0426L245.666 82.375C245.411 83.5852 244.887 84.642 244.094 85.5455C243.31 86.4403 242.296 87.1392 241.051 87.642C239.816 88.1364 238.388 88.3835 236.769 88.3835ZM253.535 68.3636L257.14 75.2287L260.835 68.3636H266.421L260.732 78.1818L266.575 88H261.014L257.14 81.2116L253.33 88H247.705L253.535 78.1818L247.91 68.3636H253.535ZM269.656 68.3636H275.102V88.9716C275.102 90.4886 274.803 91.7159 274.207 92.6534C273.61 93.5909 272.754 94.277 271.637 94.7116C270.529 95.1463 269.204 95.3636 267.661 95.3636C267.474 95.3636 267.295 95.3594 267.124 95.3509C266.945 95.3509 266.758 95.3466 266.562 95.3381V91.081C266.707 91.0895 266.835 91.0938 266.945 91.0938C267.048 91.1023 267.159 91.1065 267.278 91.1065C268.156 91.1065 268.769 90.919 269.119 90.544C269.477 90.1776 269.656 89.6236 269.656 88.8821V68.3636ZM272.366 65.8324C271.565 65.8324 270.874 65.5639 270.295 65.027C269.715 64.4815 269.426 63.8295 269.426 63.071C269.426 62.321 269.715 61.6776 270.295 61.1406C270.874 60.5952 271.565 60.3224 272.366 60.3224C273.184 60.3224 273.879 60.5952 274.45 61.1406C275.029 61.6776 275.319 62.321 275.319 63.071C275.319 63.8295 275.029 64.4815 274.45 65.027C273.879 65.5639 273.184 65.8324 272.366 65.8324ZM285.064 88.3707C283.811 88.3707 282.694 88.1534 281.714 87.7188C280.734 87.2756 279.959 86.6236 279.388 85.7628C278.825 84.8935 278.544 83.8111 278.544 82.5156C278.544 81.4247 278.744 80.5085 279.145 79.767C279.545 79.0256 280.091 78.429 280.781 77.9773C281.471 77.5256 282.256 77.1847 283.133 76.9545C284.02 76.7244 284.949 76.5625 285.92 76.4688C287.062 76.3494 287.983 76.2386 288.682 76.1364C289.381 76.0256 289.888 75.8636 290.203 75.6506C290.518 75.4375 290.676 75.1222 290.676 74.7045V74.6278C290.676 73.8182 290.42 73.1918 289.909 72.7486C289.406 72.3054 288.69 72.0838 287.761 72.0838C286.781 72.0838 286.001 72.3011 285.422 72.7358C284.842 73.1619 284.459 73.6989 284.271 74.3466L279.234 73.9375C279.49 72.7443 279.993 71.7131 280.743 70.8438C281.493 69.9659 282.46 69.2926 283.645 68.8239C284.838 68.3466 286.219 68.108 287.787 68.108C288.878 68.108 289.922 68.2358 290.919 68.4915C291.925 68.7472 292.815 69.1435 293.591 69.6804C294.375 70.2173 294.993 70.9077 295.444 71.7514C295.896 72.5866 296.122 73.5881 296.122 74.7557V88H290.957V85.277H290.804C290.488 85.8906 290.067 86.4318 289.538 86.9006C289.01 87.3608 288.375 87.723 287.633 87.9872C286.892 88.2429 286.035 88.3707 285.064 88.3707ZM286.623 84.6122C287.425 84.6122 288.132 84.4545 288.746 84.1392C289.359 83.8153 289.841 83.3807 290.19 82.8352C290.54 82.2898 290.714 81.6719 290.714 80.9815V78.8977C290.544 79.0085 290.309 79.1108 290.011 79.2045C289.721 79.2898 289.393 79.3707 289.027 79.4474C288.66 79.5156 288.294 79.5795 287.927 79.6392C287.561 79.6903 287.229 79.7372 286.93 79.7798C286.291 79.8736 285.733 80.0227 285.256 80.2273C284.778 80.4318 284.407 80.7088 284.143 81.0582C283.879 81.3991 283.747 81.8253 283.747 82.3366C283.747 83.0781 284.015 83.6449 284.552 84.0369C285.098 84.4205 285.788 84.6122 286.623 84.6122ZM305.793 61.8182V88H300.347V61.8182H305.793ZM319.028 88.3835C317.042 88.3835 315.325 87.9616 313.876 87.1179C312.436 86.2656 311.323 85.081 310.539 83.5639C309.755 82.0384 309.363 80.2699 309.363 78.2585C309.363 76.2301 309.755 74.4574 310.539 72.9403C311.323 71.4148 312.436 70.2301 313.876 69.3864C315.325 68.5341 317.042 68.108 319.028 68.108C321.014 68.108 322.727 68.5341 324.167 69.3864C325.616 70.2301 326.732 71.4148 327.517 72.9403C328.301 74.4574 328.693 76.2301 328.693 78.2585C328.693 80.2699 328.301 82.0384 327.517 83.5639C326.732 85.081 325.616 86.2656 324.167 87.1179C322.727 87.9616 321.014 88.3835 319.028 88.3835ZM319.053 84.1648C319.957 84.1648 320.711 83.9091 321.316 83.3977C321.921 82.8778 322.377 82.1705 322.684 81.2756C322.999 80.3807 323.157 79.3622 323.157 78.2202C323.157 77.0781 322.999 76.0597 322.684 75.1648C322.377 74.2699 321.921 73.5625 321.316 73.0426C320.711 72.5227 319.957 72.2628 319.053 72.2628C318.142 72.2628 317.374 72.5227 316.752 73.0426C316.139 73.5625 315.674 74.2699 315.359 75.1648C315.052 76.0597 314.899 77.0781 314.899 78.2202C314.899 79.3622 315.052 80.3807 315.359 81.2756C315.674 82.1705 316.139 82.8778 316.752 83.3977C317.374 83.9091 318.142 84.1648 319.053 84.1648ZM337.68 61.8182V88H332.234V61.8182H337.68ZM350.991 88.3835C348.971 88.3835 347.233 87.9744 345.775 87.1562C344.327 86.3295 343.21 85.1619 342.426 83.6534C341.642 82.1364 341.25 80.3423 341.25 78.2713C341.25 76.2514 341.642 74.4787 342.426 72.9531C343.21 71.4276 344.314 70.2386 345.737 69.3864C347.169 68.5341 348.848 68.108 350.774 68.108C352.069 68.108 353.275 68.3168 354.392 68.7344C355.517 69.1435 356.497 69.7614 357.332 70.5881C358.176 71.4148 358.832 72.4545 359.301 73.7074C359.77 74.9517 360.004 76.4091 360.004 78.0795V79.5753H343.423V76.2003H354.878C354.878 75.4162 354.707 74.7216 354.366 74.1165C354.025 73.5114 353.552 73.0384 352.947 72.6974C352.351 72.348 351.656 72.1733 350.863 72.1733C350.037 72.1733 349.304 72.3651 348.665 72.7486C348.034 73.1236 347.54 73.6307 347.182 74.2699C346.824 74.9006 346.64 75.6037 346.632 76.3793V79.5881C346.632 80.5597 346.811 81.3991 347.169 82.1065C347.535 82.8139 348.051 83.3594 348.716 83.7429C349.381 84.1264 350.169 84.3182 351.081 84.3182C351.686 84.3182 352.24 84.233 352.743 84.0625C353.246 83.892 353.676 83.6364 354.034 83.2955C354.392 82.9545 354.665 82.5369 354.852 82.0426L359.889 82.375C359.633 83.5852 359.109 84.642 358.317 85.5455C357.532 86.4403 356.518 87.1392 355.274 87.642C354.038 88.1364 352.611 88.3835 350.991 88.3835ZM366.393 95.3636C365.703 95.3636 365.055 95.3082 364.45 95.1974C363.853 95.0952 363.359 94.9631 362.967 94.8011L364.194 90.7358C364.833 90.9318 365.409 91.0384 365.92 91.0554C366.44 91.0724 366.887 90.9531 367.262 90.6974C367.646 90.4418 367.957 90.0071 368.195 89.3935L368.515 88.5625L361.471 68.3636H367.198L371.264 82.7841H371.468L375.572 68.3636H381.338L373.705 90.1222C373.339 91.179 372.84 92.0994 372.21 92.8835C371.588 93.6761 370.799 94.2855 369.845 94.7116C368.89 95.1463 367.74 95.3636 366.393 95.3636ZM387.487 95.3636C386.796 95.3636 386.149 95.3082 385.544 95.1974C384.947 95.0952 384.453 94.9631 384.061 94.8011L385.288 90.7358C385.927 90.9318 386.502 91.0384 387.014 91.0554C387.534 91.0724 387.981 90.9531 388.356 90.6974C388.74 90.4418 389.051 90.0071 389.289 89.3935L389.609 88.5625L382.565 68.3636H388.292L392.357 82.7841H392.562L396.666 68.3636H402.431L394.799 90.1222C394.433 91.179 393.934 92.0994 393.303 92.8835C392.681 93.6761 391.893 94.2855 390.938 94.7116C389.984 95.1463 388.833 95.3636 387.487 95.3636Z" fill="white"/>
<path d="M124.215 81.71C125.35 79.555 126 77.105 126 74.5C126 67.879 121.841 62.243 115.999 60.022C115.999 60.015 116 60.008 116 60C116 48.402 106.598 39 95 39C85.216 39 77.019 45.701 74.687 54.757C73.211 54.272 71.638 54 70 54C62.308 54 55.977 59.793 55.11 67.252C49.906 68.353 46 72.969 46 78.5C46 84.851 51.149 90 57.5 90C57.677 90 57.852 89.988 58.026 89.978C58.022 90.153 58 90.324 58 90.5C58 101.822 67.178 111 78.5 111C84.937 111 90.675 108.028 94.434 103.386C96.612 105.611 99.64 107 103 107C107.65 107 111.674 104.35 113.666 100.482C114.718 100.817 115.837 101 117 101C123.075 101 128 96.075 128 90C128 86.689 126.53 83.727 124.215 81.71Z" fill="#C7EDE6"/>
<path d="M120.875 70.5C120.875 70.5 124.515 70.5 127 70.5C129.485 70.5 131.5 68.485 131.5 66C131.5 63.667 129.718 61.771 127.445 61.545C127.467 61.364 127.5 61.187 127.5 61C127.5 58.515 125.485 56.5 123 56.5C121.562 56.5 120.297 57.186 119.473 58.236C119.333 55.6 117.171 53.5 114.5 53.5C111.739 53.5 109.5 55.739 109.5 58.5C109.5 58.946 109.577 59.37 109.687 59.782C109.045 59.005 108.086 58.5 107 58.5C105.219 58.5 103.766 59.835 103.545 61.555C103.364 61.533 103.187 61.5 103 61.5C100.515 61.5 98.5 63.515 98.5 66C98.5 68.485 100.515 70.5 103 70.5C105.485 70.5 112.5 70.5 112.5 70.5H117.875V71H120.875V70.5Z" fill="#FDFCEF"/>
<path d="M114.5 53C111.467 53 109 55.467 109 58.5C109 58.516 109 58.531 109 58.547C108.398 58.192 107.71 58 107 58C105.169 58 103.589 59.261 103.142 61.005C103.095 61.002 103.048 61 103 61C100.243 61 98 63.243 98 66C98 68.757 100.243 71 103 71H117.875C118.151 71 118.375 70.776 118.375 70.5C118.375 70.224 118.151 70 117.875 70H103C100.794 70 99 68.206 99 66C99 63.794 100.794 62 103 62C103.117 62 103.23 62.017 103.343 62.032L103.484 62.051C103.505 62.054 103.525 62.055 103.546 62.055C103.792 62.055 104.008 61.87 104.041 61.618C104.232 60.125 105.504 59 107 59C107.885 59 108.723 59.401 109.301 60.1C109.399 60.218 109.542 60.282 109.687 60.282C109.765 60.282 109.843 60.264 109.915 60.226C110.124 60.119 110.229 59.88 110.169 59.653C110.054 59.218 110 58.852 110 58.5C110 56.019 112.019 54 114.5 54C116.881 54 118.847 55.872 118.974 58.263C118.985 58.471 119.124 58.65 119.323 58.713C119.373 58.729 119.424 58.737 119.475 58.737C119.625 58.737 119.771 58.668 119.867 58.545C120.638 57.563 121.779 57 123 57C125.206 57 127 58.794 127 61C127 61.117 126.983 61.23 126.968 61.343L126.949 61.484C126.933 61.618 126.971 61.752 127.055 61.857C127.139 61.962 127.262 62.029 127.395 62.042C129.451 62.247 131 63.949 131 66C131 68.206 129.206 70 127 70H120.875C120.599 70 120.375 70.224 120.375 70.5C120.375 70.776 120.599 71 120.875 71H127C129.757 71 132 68.757 132 66C132 63.603 130.311 61.587 127.997 61.123C127.999 61.082 128 61.041 128 61C128 58.243 125.757 56 123 56C121.824 56 120.707 56.416 119.817 57.164C119.219 54.76 117.055 53 114.5 53Z" fill="#472B29"/>
<path d="M113 60C111.597 60 110.391 60.999 110.087 62.341C109.72 62.119 109.301 62 108.875 62C107.673 62 106.677 62.897 106.522 64.068C106.319 64.022 106.126 64 105.938 64C104.409 64 103.127 65.2 103.02 66.732C103.01 66.87 103.114 66.99 103.251 67C103.257 67 103.263 67 103.269 67C103.399 67 103.509 66.899 103.518 66.768C103.607 65.497 104.669 64.5 105.937 64.5C106.166 64.5 106.407 64.542 106.675 64.627C106.697 64.634 106.72 64.637 106.742 64.637C106.797 64.637 106.852 64.617 106.898 64.583C106.962 64.537 107 64.455 107 64.375C107 63.341 107.841 62.5 108.875 62.5C109.322 62.5 109.76 62.668 110.106 62.973C110.153 63.014 110.212 63.036 110.271 63.036C110.303 63.036 110.334 63.03 110.364 63.017C110.452 62.982 110.512 62.9 110.519 62.805C110.623 61.512 111.712 60.5 113 60.5C113.208 60.5 113.425 60.534 113.682 60.607C113.705 60.614 113.729 60.617 113.752 60.617C113.861 60.617 113.959 60.544 113.991 60.435C114.029 60.302 113.952 60.164 113.819 60.126C113.517 60.04 113.256 60 113 60ZM126.883 61.5C125.557 61.5 124.375 62.397 124.009 63.682C123.971 63.815 124.048 63.953 124.181 63.991C124.205 63.997 124.228 64 124.25 64C124.359 64 124.459 63.928 124.49 63.818C124.795 62.748 125.779 62 126.883 62C127 62 127.113 62.014 127.225 62.029C127.237 62.031 127.248 62.032 127.26 62.032C127.381 62.032 127.489 61.94 127.506 61.815C127.525 61.678 127.429 61.552 127.292 61.534C127.158 61.516 127.022 61.5 126.883 61.5Z" fill="#472B29"/>
<path d="M52.405 73H42.5C42.224 73 42 72.776 42 72.5C42 72.224 42.224 72 42.5 72H52.405C52.681 72 52.905 72.224 52.905 72.5C52.905 72.776 52.682 73 52.405 73ZM55.5 73H54.5C54.224 73 54 72.776 54 72.5C54 72.224 54.224 72 54.5 72H55.5C55.776 72 56 72.224 56 72.5C56 72.776 55.777 73 55.5 73ZM60.491 75H51.5C51.224 75 51 74.776 51 74.5C51 74.224 51.224 74 51.5 74H60.491C60.767 74 60.991 74.224 60.991 74.5C60.991 74.776 60.767 75 60.491 75ZM49.5 75H48.5C48.224 75 48 74.776 48 74.5C48 74.224 48.224 74 48.5 74H49.5C49.776 74 50 74.224 50 74.5C50 74.776 49.777 75 49.5 75ZM46.5 75H44.5C44.224 75 44 74.776 44 74.5C44 74.224 44.224 74 44.5 74H46.5C46.776 74 47 74.224 47 74.5C47 74.776 46.777 75 46.5 75ZM52.5 77H50.5C50.224 77 50 76.776 50 76.5C50 76.224 50.224 76 50.5 76H52.5C52.776 76 53 76.224 53 76.5C53 76.776 52.776 77 52.5 77ZM55.5 68C55.323 68 54.677 68 54.5 68C54.224 68 54 68.224 54 68.5C54 68.776 54.224 69 54.5 69C54.677 69 55.323 69 55.5 69C55.776 69 56 68.776 56 68.5C56 68.224 55.776 68 55.5 68ZM55.5 70C55.323 70 50.677 70 50.5 70C50.224 70 50 70.224 50 70.5C50 70.776 50.224 71 50.5 71C50.677 71 55.323 71 55.5 71C55.776 71 56 70.776 56 70.5C56 70.224 55.776 70 55.5 70ZM60.5 72C60.323 72 57.677 72 57.5 72C57.224 72 57 72.224 57 72.5C57 72.776 57.224 73 57.5 73C57.677 73 60.323 73 60.5 73C60.776 73 61 72.776 61 72.5C61 72.224 60.776 72 60.5 72Z" fill="white"/>
<path d="M104.5 46H94.5C94.224 46 94 45.776 94 45.5C94 45.224 94.224 45 94.5 45H104.5C104.776 45 105 45.224 105 45.5C105 45.776 104.776 46 104.5 46ZM108.5 46H106.5C106.224 46 106 45.776 106 45.5C106 45.224 106.224 45 106.5 45H108.5C108.776 45 109 45.224 109 45.5C109 45.776 108.776 46 108.5 46ZM113.5 48H103.5C103.224 48 103 47.776 103 47.5C103 47.224 103.224 47 103.5 47H113.5C113.776 47 114 47.224 114 47.5C114 47.776 113.777 48 113.5 48ZM101.5 48H100.5C100.224 48 100 47.776 100 47.5C100 47.224 100.224 47 100.5 47H101.5C101.776 47 102 47.224 102 47.5C102 47.776 101.776 48 101.5 48ZM98.375 48H96.5C96.224 48 96 47.776 96 47.5C96 47.224 96.224 47 96.5 47H98.375C98.651 47 98.875 47.224 98.875 47.5C98.875 47.776 98.651 48 98.375 48ZM107.5 44H102.5C102.224 44 102 43.776 102 43.5C102 43.224 102.224 43 102.5 43H107.5C107.776 43 108 43.224 108 43.5C108 43.776 107.777 44 107.5 44ZM104.5 50H102.5C102.224 50 102 49.776 102 49.5C102 49.224 102.224 49 102.5 49H104.5C104.776 49 105 49.224 105 49.5C105 49.776 104.776 50 104.5 50Z" fill="white"/>
<path d="M102.116 97.816C101.444 97.816 100.968 97.577 100.57 97.041C99.3997 95.463 98.8277 93.578 98.8217 93.56L98.6487 92.983L98.0517 93.067C95.1137 93.485 92.1007 93.697 89.0977 93.697C86.0927 93.697 83.0127 93.485 79.9427 93.067L79.3487 92.986L79.1767 93.56C79.1707 93.579 78.5987 95.463 77.4287 97.041C77.0317 97.577 76.5547 97.816 75.8827 97.816C75.1687 97.816 74.3317 97.554 73.4457 97.278L72.8547 97.095C70.3347 96.338 66.4927 93.799 64.8477 92.311C64.1357 91.629 63.3837 90.911 63.8367 86.659C64.3477 81.864 67.3607 69.793 68.4287 67.186C69.3837 64.854 71.0177 63.833 72.7507 62.912C74.6717 62.055 76.8137 61.343 79.0757 60.816C79.6027 60.707 80.0617 60.651 80.4637 60.651C81.6247 60.651 81.9567 61.108 82.1167 61.505L83.1327 64.036L83.7167 63.9C85.4547 63.496 87.2247 63.291 88.9767 63.291C90.7287 63.291 92.5137 63.496 94.2817 63.901L94.8647 64.034L95.8797 61.505C96.0397 61.108 96.3717 60.651 97.5327 60.651C97.9337 60.651 98.3927 60.707 98.9347 60.82C101.182 61.342 103.325 62.054 105.289 62.932C106.979 63.833 108.613 64.854 109.568 67.186C110.635 69.792 113.649 81.864 114.16 86.659C114.613 90.911 113.861 91.63 113.136 92.325C111.505 93.8 107.662 96.339 105.143 97.096L104.551 97.279C103.667 97.555 102.83 97.816 102.116 97.816Z" fill="#88CDD7"/>
<path d="M97.5336 61.352C97.8816 61.352 98.3056 61.404 98.7626 61.499C100.965 62.011 103.05 62.703 104.962 63.554C106.62 64.438 108.061 65.351 108.922 67.453C109.951 69.966 112.972 82.1 113.466 86.735C113.882 90.644 113.285 91.216 112.682 91.794C111.123 93.204 107.333 95.71 104.943 96.427C104.743 96.487 104.543 96.55 104.343 96.612C103.51 96.872 102.724 97.118 102.117 97.118C101.666 97.118 101.399 96.985 101.134 96.626C100.042 95.153 99.4996 93.377 99.4946 93.362L99.1506 92.206L97.9566 92.375C95.0486 92.788 92.0686 92.998 89.0976 92.998C86.1246 92.998 83.0766 92.788 80.0396 92.374L78.8506 92.212L78.5086 93.361C78.5036 93.379 77.9546 95.161 76.8696 96.625C76.6036 96.984 76.3366 97.117 75.8856 97.117C75.2786 97.117 74.4916 96.871 73.6596 96.611C73.4606 96.549 73.2606 96.486 73.0606 96.426C70.6706 95.708 66.8806 93.202 65.3506 91.82C64.7186 91.215 64.1206 90.643 64.5376 86.734C65.0316 82.1 68.0526 69.965 69.0816 67.452C69.9416 65.35 71.3826 64.438 73.0416 63.554C74.9536 62.703 77.0386 62.012 79.2096 61.506C79.6976 61.404 80.1206 61.352 80.4696 61.352C81.3056 61.352 81.4146 61.622 81.4726 61.767L82.2646 63.742L82.7116 64.856L83.8806 64.585C85.5676 64.193 87.2836 63.994 88.9826 63.994C90.6826 63.994 92.4146 64.193 94.1296 64.586L95.2956 64.853L95.7406 63.742L96.5326 61.768C96.5896 61.622 96.6976 61.352 97.5336 61.352ZM97.5346 59.952C96.5176 59.952 95.6266 60.264 95.2326 61.245L94.4406 63.22C92.6086 62.801 90.7876 62.593 88.9806 62.593C87.1606 62.593 85.3546 62.803 83.5616 63.22L82.7696 61.245C82.3756 60.263 81.4846 59.952 80.4676 59.952C79.9676 59.952 79.4376 60.027 78.9216 60.135C76.6126 60.673 74.4456 61.391 72.4246 62.295C70.6846 63.22 68.8496 64.319 67.7846 66.922C66.6906 69.592 63.6546 81.796 63.1446 86.586C62.6806 90.943 63.4156 91.907 64.3826 92.832C66.0456 94.335 69.9916 96.967 72.6576 97.768C73.7786 98.104 74.8916 98.518 75.8856 98.518C76.6856 98.518 77.4076 98.25 77.9936 97.46C79.2556 95.757 79.8496 93.762 79.8496 93.762C82.9576 94.185 86.0406 94.398 89.0966 94.398C92.1416 94.398 95.1596 94.187 98.1526 93.762C98.1526 93.762 98.7466 95.757 100.009 97.46C100.595 98.251 101.318 98.518 102.117 98.518C103.111 98.518 104.224 98.105 105.345 97.768C108.011 96.967 111.958 94.336 113.62 92.832C114.587 91.907 115.322 90.943 114.858 86.586C114.348 81.796 111.311 69.592 110.218 66.922C109.152 64.319 107.318 63.22 105.578 62.295C103.557 61.392 101.391 60.673 99.0806 60.135C98.5646 60.027 98.0336 59.952 97.5346 59.952Z" fill="#472B29"/>
<path d="M89.1546 94.4461C83.5756 94.4461 78.0216 93.5491 72.5326 91.7531C72.1656 91.6331 71.9656 91.2371 72.0856 90.8701C72.2056 90.5021 72.6026 90.3021 72.9686 90.4231C83.6576 93.9191 94.6026 93.9201 105.501 90.4221C105.873 90.3001 106.264 90.5071 106.381 90.8741C106.499 91.2421 106.297 91.6361 105.929 91.7541C100.338 93.5491 94.7336 94.4461 89.1546 94.4461ZM103.22 67.2391C103.129 67.2391 103.036 67.2211 102.948 67.1831C93.7606 63.3001 84.5326 63.3001 75.5236 67.1811C75.1676 67.3321 74.7556 67.1711 74.6036 66.8161C74.4506 66.4611 74.6146 66.0481 74.9686 65.8961C84.3456 61.8571 93.9416 61.8571 103.492 65.8941C103.848 66.0441 104.014 66.4551 103.864 66.8111C103.752 67.0791 103.492 67.2391 103.22 67.2391Z" fill="#472B29"/>
<path d="M103.219 69.825C103.154 69.825 103.087 69.812 103.024 69.785C102.668 69.634 102.312 69.489 101.955 69.35C97.0357 67.43 92.0747 66.605 87.2087 66.9C86.9027 66.941 86.6947 66.707 86.6797 66.431C86.6627 66.156 86.8727 65.918 87.1487 65.902C92.1587 65.597 97.2627 66.445 102.319 68.419C102.684 68.562 103.049 68.71 103.416 68.865C103.67 68.972 103.789 69.266 103.681 69.52C103.599 69.711 103.413 69.825 103.219 69.825ZM82.7817 67.465C82.5477 67.465 82.3387 67.3 82.2917 67.061C82.2387 66.79 82.4157 66.528 82.6877 66.475C83.4597 66.324 84.2337 66.2 84.9867 66.105C85.2577 66.067 85.5107 66.263 85.5457 66.539C85.5797 66.813 85.3857 67.063 85.1117 67.098C84.3807 67.19 83.6297 67.31 82.8797 67.457C82.8467 67.462 82.8137 67.465 82.7817 67.465ZM76.1237 69.458C75.9257 69.458 75.7387 69.34 75.6597 69.145C75.5557 68.889 75.6807 68.598 75.9367 68.495C77.4687 67.878 79.0247 67.361 80.5617 66.961C80.8327 66.884 81.1017 67.052 81.1707 67.318C81.2407 67.585 81.0807 67.858 80.8137 67.927C79.3187 68.318 77.8027 68.821 76.3097 69.422C76.2497 69.446 76.1867 69.458 76.1237 69.458Z" fill="#472B29"/>
<path d="M80.1804 86.6741C77.7494 86.6741 75.7734 84.2801 75.7734 81.3381C75.7734 78.3971 77.7504 76.0031 80.1804 76.0031C82.6104 76.0031 84.5874 78.3971 84.5874 81.3381C84.5874 84.2801 82.6104 86.6741 80.1804 86.6741Z" fill="#FFFEF4"/>
<path d="M80.1793 76.702C82.2233 76.702 83.8863 78.782 83.8863 81.338C83.8863 83.894 82.2233 85.974 80.1793 85.974C78.1353 85.974 76.4723 83.894 76.4723 81.338C76.4723 78.782 78.1343 76.702 80.1793 76.702ZM80.1793 75.302C77.3583 75.302 75.0723 78.005 75.0723 81.338C75.0723 84.671 77.3593 87.374 80.1793 87.374C83.0003 87.374 85.2863 84.671 85.2863 81.338C85.2863 78.005 82.9993 75.302 80.1793 75.302Z" fill="#472B29"/>
<path d="M97.8211 86.6741C95.3901 86.6741 93.4141 84.2801 93.4141 81.3381C93.4141 78.3971 95.3911 76.0031 97.8211 76.0031C100.251 76.0031 102.228 78.3971 102.228 81.3381C102.229 84.2801 100.252 86.6741 97.8211 86.6741Z" fill="#FFFEF4"/>
<path d="M97.8218 76.702C99.8658 76.702 101.529 78.782 101.529 81.338C101.529 83.894 99.8658 85.974 97.8218 85.974C95.7778 85.974 94.1148 83.894 94.1148 81.338C94.1148 78.782 95.7778 76.702 97.8218 76.702ZM97.8218 75.302C95.0008 75.302 92.7148 78.005 92.7148 81.338C92.7148 84.671 95.0018 87.374 97.8218 87.374C100.643 87.374 102.929 84.671 102.929 81.338C102.93 78.005 100.643 75.302 97.8218 75.302Z" fill="#472B29"/>
<path d="M63.5 98.5C63.5 98.5 65.067 98.5 67 98.5C68.933 98.5 70.5 96.933 70.5 95C70.5 93.219 69.165 91.766 67.445 91.545C67.473 91.366 67.5 91.187 67.5 91C67.5 89.067 65.933 87.5 64 87.5C62.968 87.5 62.05 87.955 61.41 88.665C61.026 86.857 59.423 85.5 57.5 85.5C55.291 85.5 53.5 87.291 53.5 89.5C53.5 89.691 53.53 89.874 53.556 90.058C53.128 89.714 52.592 89.5 52 89.5C50.772 89.5 49.755 90.387 49.545 91.555C49.366 91.527 49.187 91.5 49 91.5C47.067 91.5 45.5 93.067 45.5 95C45.5 96.933 47.067 98.5 49 98.5C50.933 98.5 56.5 98.5 56.5 98.5V99H63.5V98.5Z" fill="#FDFCEF"/>
<path d="M65.25 94C65.112 94 65 93.888 65 93.75C65 92.527 65.995 91.532 67.218 91.532C67.252 91.541 67.955 91.531 68.462 91.668C68.595 91.704 68.674 91.841 68.638 91.974C68.602 92.108 68.465 92.187 68.332 92.15C67.888 92.03 67.232 92.03 67.219 92.032C66.271 92.032 65.5 92.803 65.5 93.75C65.5 93.888 65.388 94 65.25 94ZM58.5 98C58.3674 98 58.2402 98.0527 58.1464 98.1464C58.0527 98.2402 58 98.3674 58 98.5C58 98.6326 58.0527 98.7598 58.1464 98.8535C58.2402 98.9473 58.3674 99 58.5 99C58.6326 99 58.7598 98.9473 58.8536 98.8535C58.9473 98.7598 59 98.6326 59 98.5C59 98.3674 58.9473 98.2402 58.8536 98.1464C58.7598 98.0527 58.6326 98 58.5 98Z" fill="#472B29"/>
<path d="M67 99H63.5C63.224 99 63 98.776 63 98.5C63 98.224 63.224 98 63.5 98H67C68.654 98 70 96.654 70 95C70 93.504 68.875 92.232 67.382 92.041C67.248 92.023 67.127 91.953 67.046 91.845C66.965 91.737 66.931 91.601 66.952 91.468C66.975 91.314 67 91.16 67 91C67 89.346 65.654 88 64 88C63.15 88 62.362 88.355 61.781 89C61.656 89.139 61.46 89.198 61.281 89.148C61.099 89.099 60.96 88.953 60.921 88.769C60.58 87.165 59.141 86 57.5 86C55.57 86 54 87.57 54 89.5C54 89.643 54.021 89.78 54.041 89.918C54.07 90.121 53.978 90.356 53.799 90.458C53.62 90.56 53.403 90.576 53.243 90.448C52.878 90.155 52.449 90 52 90C51.034 90 50.208 90.691 50.037 91.644C49.989 91.911 49.741 92.09 49.468 92.049C49.314 92.025 49.16 92 49 92C47.346 92 46 93.346 46 95C46 96.654 47.346 98 49 98H56.5C56.776 98 57 98.224 57 98.5C57 98.776 56.776 99 56.5 99H49C46.794 99 45 97.206 45 95C45 92.794 46.794 91 49 91C49.059 91 49.116 91.002 49.174 91.006C49.588 89.82 50.711 89 52 89C52.349 89 52.689 89.061 53.011 89.18C53.176 86.847 55.126 85 57.5 85C59.331 85 60.966 86.127 61.653 87.774C62.333 87.276 63.155 87 64 87C66.206 87 68 88.794 68 91C68 91.048 67.999 91.095 67.996 91.142C69.739 91.59 71 93.169 71 95C71 97.206 69.206 99 67 99Z" fill="#472B29"/>
<path d="M61.5 98C61.341 98 60.659 98 60.5 98C60.224 98 60 98.224 60 98.5C60 98.776 60.224 99 60.5 99C60.659 99 61.341 99 61.5 99C61.776 99 62 98.776 62 98.5C62 98.224 61.776 98 61.5 98Z" fill="#472B29"/>
</svg>
